{"glyphs":{"0":{"ha":947,"x_min":76,"x_max":871,"o":"m 231 0 l 76 154 l 76 869 l 231 1024 l 717 1024 l 871 869 l 871 154 l 717 0 l 231 0 m 349 175 l 599 175 l 654 231 l 654 794 l 599 849 l 349 849 l 293 794 l 293 231 l 349 175 z "},"1":{"ha":632,"x_min":76,"x_max":569,"o":"m 76 0 l 76 182 l 214 182 l 214 840 l 93 840 l 93 1024 l 432 1024 l 432 182 l 569 182 l 569 0 l 76 0 z "},"2":{"ha":933,"x_min":81,"x_max":847,"o":"m 81 0 l 81 225 l 619 692 l 619 794 l 565 849 l 326 849 l 219 744 l 81 876 l 228 1024 l 688 1024 l 838 878 l 838 613 l 342 182 l 847 182 l 847 0 l 81 0 z "},"3":{"ha":928,"x_min":74,"x_max":851,"o":"m 221 0 l 74 147 l 213 279 l 318 175 l 579 175 l 635 231 l 635 390 l 579 446 l 286 446 l 286 619 l 579 618 l 635 674 l 635 794 l 579 849 l 331 849 l 225 744 l 86 876 l 232 1024 l 697 1024 l 851 869 l 851 629 l 753 532 l 851 435 l 851 154 l 697 0 l 221 0 z "},"4":{"ha":933,"x_min":39,"x_max":882,"o":"m 547 0 l 547 183 l 39 183 l 39 360 l 544 1024 l 764 1024 l 764 360 l 882 360 l 882 183 l 764 183 l 764 0 l 547 0 m 289 360 l 547 360 l 547 708 l 289 360 z "},"5":{"ha":925,"x_min":74,"x_max":849,"o":"m 219 0 l 74 147 l 213 279 l 319 175 l 578 175 l 632 231 l 632 429 l 578 485 l 128 485 l 128 1024 l 796 1024 l 796 840 l 344 840 l 344 651 l 700 651 l 849 507 l 849 146 l 700 0 l 219 0 z "},"6":{"ha":965,"x_min":76,"x_max":889,"o":"m 226 0 l 76 146 l 76 878 l 226 1024 l 743 1024 l 886 879 l 747 747 l 643 849 l 351 849 l 296 794 l 296 611 l 338 642 l 739 642 l 889 497 l 889 146 l 739 0 l 226 0 m 351 175 l 617 175 l 671 231 l 671 421 l 617 475 l 356 475 l 296 417 l 296 231 l 351 175 z "},"7":{"ha":790,"x_min":25,"x_max":751,"o":"m 79 0 l 492 793 l 492 835 l 25 835 l 25 1024 l 751 1024 l 751 810 l 338 0 l 79 0 z "},"8":{"ha":957,"x_min":76,"x_max":881,"o":"m 226 0 l 76 146 l 76 438 l 182 538 l 104 610 l 104 878 l 254 1024 l 701 1024 l 853 878 l 853 610 l 775 538 l 881 438 l 881 146 l 729 0 l 226 0 m 364 619 l 592 619 l 640 667 l 639 794 l 585 849 l 371 849 l 317 794 l 317 667 l 364 619 m 349 175 l 608 175 l 663 229 l 663 390 l 608 446 l 349 446 l 293 390 l 293 231 l 349 175 z "},"9":{"ha":971,"x_min":93,"x_max":894,"o":"m 240 0 l 93 147 l 232 279 l 340 175 l 622 175 l 678 231 l 678 413 l 636 382 l 243 382 l 93 526 l 93 878 l 243 1024 l 744 1024 l 894 878 l 894 146 l 744 0 l 240 0 m 364 549 l 615 549 l 678 611 l 678 794 l 622 849 l 364 849 l 310 793 l 310 603 l 364 549 z "},"\r":{"ha":833,"x_min":0,"x_max":0,"o":""}," ":{"ha":332,"x_min":0,"x_max":0,"o":""},"A":{"ha":988,"x_min":7,"x_max":981,"o":"m 7 0 l 324 1024 l 664 1024 l 981 0 l 751 0 l 688 226 l 300 226 l 238 0 l 7 0 m 350 403 l 638 403 l 515 843 l 474 843 l 350 403 z "},"Á":{"ha":988,"x_min":7,"x_max":981,"o":"m 413 1104 l 556 1319 l 779 1319 l 578 1104 l 413 1104 m 7 0 l 324 1024 l 664 1024 l 981 0 l 751 0 l 688 226 l 300 226 l 238 0 l 7 0 m 350 403 l 638 403 l 515 843 l 474 843 l 350 403 z "},"Ă":{"ha":988,"x_min":7,"x_max":981,"o":"m 358 1104 l 251 1206 l 251 1308 l 399 1308 l 399 1247 l 424 1224 l 558 1224 l 582 1247 l 582 1308 l 729 1308 l 729 1206 l 622 1104 l 358 1104 m 7 0 l 324 1024 l 664 1024 l 981 0 l 751 0 l 688 226 l 300 226 l 238 0 l 7 0 m 350 403 l 638 403 l 515 843 l 474 843 l 350 403 z "},"Ắ":{"ha":988,"x_min":7,"x_max":981,"o":"m 407 1351 l 550 1568 l 772 1568 l 572 1351 l 407 1351 m 358 1104 l 251 1206 l 251 1308 l 399 1308 l 399 1247 l 424 1224 l 558 1224 l 582 1247 l 582 1308 l 729 1308 l 729 1206 l 622 1104 l 358 1104 m 7 0 l 324 1024 l 664 1024 l 981 0 l 751 0 l 688 226 l 300 226 l 238 0 l 7 0 m 350 403 l 638 403 l 515 843 l 474 843 l 350 403 z "},"Ặ":{"ha":988,"x_min":7,"x_max":981,"o":"m 358 1104 l 251 1206 l 251 1308 l 399 1308 l 399 1247 l 424 1224 l 558 1224 l 582 1247 l 582 1308 l 729 1308 l 729 1206 l 622 1104 l 358 1104 m 7 0 l 324 1024 l 664 1024 l 981 0 l 751 0 l 688 226 l 300 226 l 238 0 l 7 0 m 350 403 l 638 403 l 515 843 l 474 843 l 350 403 m 383 -264 l 383 -79 l 597 -79 l 597 -264 l 383 -264 z "},"Ằ":{"ha":988,"x_min":7,"x_max":981,"o":"m 400 1351 l 200 1568 l 422 1568 l 567 1351 l 400 1351 m 358 1104 l 251 1206 l 251 1308 l 399 1308 l 399 1247 l 424 1224 l 558 1224 l 582 1247 l 582 1308 l 729 1308 l 729 1206 l 622 1104 l 358 1104 m 7 0 l 324 1024 l 664 1024 l 981 0 l 751 0 l 688 226 l 300 226 l 238 0 l 7 0 m 350 403 l 638 403 l 515 843 l 474 843 l 350 403 z "},"Ẳ":{"ha":988,"x_min":7,"x_max":981,"o":"m 407 1353 l 407 1458 l 504 1526 l 504 1563 l 456 1563 l 456 1528 l 314 1528 l 314 1599 l 379 1661 l 588 1661 l 653 1599 l 653 1475 l 551 1408 l 551 1353 l 407 1353 m 358 1104 l 251 1206 l 251 1308 l 399 1308 l 399 1247 l 424 1224 l 558 1224 l 582 1247 l 582 1308 l 729 1308 l 729 1206 l 622 1104 l 358 1104 m 7 0 l 324 1024 l 664 1024 l 981 0 l 751 0 l 688 226 l 300 226 l 238 0 l 7 0 m 350 403 l 638 403 l 515 843 l 474 843 l 350 403 z "},"Ẵ":{"ha":988,"x_min":7,"x_max":981,"o":"m 492 1351 l 411 1442 l 375 1442 l 342 1394 l 342 1358 l 206 1358 l 207 1465 l 300 1560 l 501 1560 l 582 1472 l 618 1472 l 651 1515 l 651 1553 l 789 1553 l 788 1449 l 694 1351 l 492 1351 m 358 1104 l 251 1206 l 251 1308 l 399 1308 l 399 1247 l 424 1224 l 558 1224 l 582 1247 l 582 1308 l 729 1308 l 729 1206 l 622 1104 l 358 1104 m 7 0 l 324 1024 l 664 1024 l 981 0 l 751 0 l 688 226 l 300 226 l 238 0 l 7 0 m 350 403 l 638 403 l 515 843 l 474 843 l 350 403 z "},"Â":{"ha":988,"x_min":7,"x_max":981,"o":"m 226 1104 l 378 1308 l 603 1308 l 754 1104 l 586 1104 l 490 1201 l 394 1104 l 226 1104 m 7 0 l 324 1024 l 664 1024 l 981 0 l 751 0 l 688 226 l 300 226 l 238 0 l 7 0 m 350 403 l 638 403 l 515 843 l 474 843 l 350 403 z "},"Ấ":{"ha":988,"x_min":7,"x_max":1099,"o":"m 733 1218 l 876 1433 l 1099 1433 l 899 1218 l 733 1218 m 226 1104 l 378 1308 l 603 1308 l 754 1104 l 586 1104 l 490 1201 l 396 1104 l 226 1104 m 7 0 l 324 1024 l 664 1024 l 981 0 l 751 0 l 688 226 l 300 226 l 238 0 l 7 0 m 350 403 l 638 403 l 515 843 l 474 843 l 350 403 z "},"Ậ":{"ha":988,"x_min":7,"x_max":981,"o":"m 226 1104 l 378 1308 l 603 1308 l 754 1104 l 586 1104 l 490 1201 l 394 1104 l 226 1104 m 7 0 l 324 1024 l 664 1024 l 981 0 l 751 0 l 688 226 l 300 226 l 238 0 l 7 0 m 350 403 l 638 403 l 515 843 l 474 843 l 350 403 m 383 -264 l 383 -79 l 597 -79 l 597 -264 l 383 -264 z "},"Ầ":{"ha":988,"x_min":-118,"x_max":981,"o":"m 83 1218 l -118 1433 l 106 1433 l 249 1218 l 83 1218 m 226 1104 l 378 1308 l 603 1308 l 754 1104 l 586 1104 l 490 1201 l 394 1104 l 226 1104 m 7 0 l 324 1024 l 664 1024 l 981 0 l 751 0 l 688 226 l 300 226 l 238 0 l 7 0 m 350 403 l 638 403 l 515 843 l 474 843 l 350 403 z "},"Ẩ":{"ha":988,"x_min":7,"x_max":981,"o":"m 710 1218 l 710 1324 l 807 1392 l 807 1429 l 758 1429 l 758 1394 l 617 1394 l 617 1464 l 681 1528 l 890 1528 l 956 1465 l 956 1340 l 854 1274 l 854 1218 l 710 1218 m 226 1104 l 378 1308 l 603 1308 l 754 1104 l 586 1104 l 490 1201 l 394 1104 l 226 1104 m 7 0 l 324 1024 l 664 1024 l 981 0 l 751 0 l 688 226 l 300 226 l 238 0 l 7 0 m 350 403 l 638 403 l 515 843 l 474 843 l 350 403 z "},"Ẫ":{"ha":988,"x_min":7,"x_max":981,"o":"m 492 1351 l 411 1440 l 375 1440 l 342 1394 l 342 1358 l 206 1358 l 207 1464 l 300 1558 l 501 1558 l 582 1472 l 618 1472 l 651 1515 l 651 1553 l 789 1553 l 788 1447 l 694 1351 l 492 1351 m 226 1104 l 378 1308 l 603 1308 l 754 1104 l 586 1104 l 490 1201 l 394 1104 l 226 1104 m 7 0 l 324 1024 l 664 1024 l 981 0 l 751 0 l 688 226 l 300 226 l 238 0 l 7 0 m 350 403 l 638 403 l 515 843 l 474 843 l 350 403 z "},"Ȁ":{"ha":988,"x_min":7,"x_max":981,"o":"m 275 1104 l 75 1319 l 290 1319 l 433 1104 l 275 1104 m 556 1104 l 356 1319 l 571 1319 l 714 1104 l 556 1104 m 7 0 l 324 1024 l 664 1024 l 981 0 l 751 0 l 688 226 l 300 226 l 238 0 l 7 0 m 350 403 l 638 403 l 515 843 l 474 843 l 350 403 z "},"Ä":{"ha":988,"x_min":7,"x_max":981,"o":"m 197 1104 l 197 1288 l 403 1288 l 403 1104 l 197 1104 m 579 1104 l 579 1288 l 785 1288 l 785 1104 l 579 1104 m 7 0 l 324 1024 l 664 1024 l 981 0 l 751 0 l 688 226 l 300 226 l 238 0 l 7 0 m 350 403 l 638 403 l 515 843 l 474 843 l 350 403 z "},"Ạ":{"ha":988,"x_min":7,"x_max":981,"o":"m 7 0 l 324 1024 l 664 1024 l 981 0 l 751 0 l 688 226 l 300 226 l 238 0 l 7 0 m 350 403 l 638 403 l 515 843 l 474 843 l 350 403 m 383 -264 l 383 -79 l 597 -79 l 597 -264 l 383 -264 z "},"À":{"ha":988,"x_min":7,"x_max":981,"o":"m 401 1104 l 200 1319 l 424 1319 l 567 1104 l 401 1104 m 7 0 l 324 1024 l 664 1024 l 981 0 l 751 0 l 688 226 l 300 226 l 238 0 l 7 0 m 350 403 l 638 403 l 515 843 l 474 843 l 350 403 z "},"Ả":{"ha":988,"x_min":7,"x_max":981,"o":"m 417 1104 l 417 1210 l 514 1278 l 514 1315 l 464 1315 l 464 1281 l 322 1281 l 322 1350 l 388 1413 l 596 1413 l 661 1351 l 661 1226 l 560 1160 l 560 1104 l 417 1104 m 7 0 l 324 1024 l 664 1024 l 981 0 l 751 0 l 688 226 l 300 226 l 238 0 l 7 0 m 350 403 l 638 403 l 515 843 l 474 843 l 350 403 z "},"Ȃ":{"ha":988,"x_min":7,"x_max":981,"o":"m 251 1104 l 251 1206 l 358 1308 l 622 1308 l 729 1206 l 729 1104 l 582 1104 l 582 1167 l 558 1189 l 424 1189 l 399 1167 l 399 1104 l 251 1104 m 7 0 l 324 1024 l 664 1024 l 981 0 l 751 0 l 688 226 l 300 226 l 238 0 l 7 0 m 350 403 l 638 403 l 515 843 l 474 843 l 350 403 z "},"Ā":{"ha":988,"x_min":7,"x_max":981,"o":"m 197 1104 l 197 1249 l 785 1249 l 785 1104 l 197 1104 m 7 0 l 324 1024 l 664 1024 l 981 0 l 751 0 l 688 226 l 300 226 l 238 0 l 7 0 m 350 403 l 638 403 l 515 843 l 474 843 l 350 403 z "},"Ą":{"ha":988,"x_min":7,"x_max":981,"o":"m 783 -244 l 689 -154 l 689 -46 l 751 0 l 688 226 l 300 226 l 238 0 l 7 0 l 324 1024 l 664 1024 l 981 0 l 874 0 l 813 -50 l 813 -90 l 840 -117 l 882 -117 l 882 -244 l 783 -244 m 350 403 l 638 403 l 515 843 l 474 843 l 350 403 z "},"Å":{"ha":988,"x_min":7,"x_max":981,"o":"m 413 1104 l 315 1200 l 315 1310 l 413 1407 l 569 1407 l 665 1310 l 665 1200 l 569 1104 l 413 1104 m 472 1204 l 508 1204 l 542 1236 l 542 1274 l 508 1306 l 472 1306 l 439 1274 l 439 1236 l 472 1204 m 7 0 l 324 1024 l 664 1024 l 981 0 l 751 0 l 688 226 l 300 226 l 238 0 l 7 0 m 350 403 l 638 403 l 515 843 l 474 843 l 350 403 z "},"Ǻ":{"ha":988,"x_min":7,"x_max":981,"o":"m 408 1450 l 551 1665 l 775 1665 l 574 1450 l 408 1450 m 413 1104 l 315 1200 l 315 1310 l 413 1407 l 569 1407 l 665 1310 l 665 1200 l 569 1104 l 413 1104 m 472 1204 l 508 1204 l 542 1236 l 542 1274 l 508 1306 l 472 1306 l 439 1274 l 439 1236 l 472 1204 m 7 0 l 324 1024 l 664 1024 l 981 0 l 751 0 l 688 226 l 300 226 l 238 0 l 7 0 m 350 403 l 638 403 l 515 843 l 474 843 l 350 403 z "},"Ã":{"ha":988,"x_min":7,"x_max":981,"o":"m 490 1104 l 410 1193 l 374 1193 l 340 1146 l 340 1111 l 203 1111 l 206 1217 l 297 1311 l 500 1311 l 581 1225 l 617 1225 l 650 1268 l 650 1304 l 786 1304 l 785 1200 l 692 1104 l 490 1104 m 7 0 l 324 1024 l 664 1024 l 981 0 l 751 0 l 688 226 l 300 226 l 238 0 l 7 0 m 350 403 l 638 403 l 515 843 l 474 843 l 350 403 z "},"Æ":{"ha":1432,"x_min":7,"x_max":1363,"o":"m 7 0 l 324 1024 l 1363 1024 l 1363 839 l 721 839 l 789 619 l 1314 619 l 1314 442 l 844 442 l 924 185 l 1363 185 l 1363 0 l 751 0 l 688 226 l 300 226 l 238 0 l 7 0 m 350 403 l 638 403 l 515 843 l 474 843 l 350 403 z "},"Ǽ":{"ha":1432,"x_min":7,"x_max":1363,"o":"m 413 1104 l 556 1319 l 779 1319 l 578 1104 l 413 1104 m 7 0 l 324 1024 l 1363 1024 l 1363 839 l 721 839 l 789 619 l 1314 619 l 1314 442 l 844 442 l 924 185 l 1363 185 l 1363 0 l 751 0 l 688 226 l 300 226 l 238 0 l 7 0 m 350 403 l 638 403 l 515 843 l 474 843 l 350 403 z "},"B":{"ha":1010,"x_min":104,"x_max":938,"o":"m 104 0 l 104 1024 l 740 1024 l 894 869 l 894 626 l 826 554 l 938 447 l 938 154 l 783 0 l 104 0 m 321 619 l 628 619 l 683 678 l 683 794 l 628 849 l 321 849 l 321 619 m 321 175 l 665 175 l 721 231 l 721 399 l 665 453 l 321 453 l 321 175 z "},"C":{"ha":935,"x_min":76,"x_max":893,"o":"m 231 0 l 76 154 l 76 869 l 231 1024 l 735 1024 l 883 876 l 746 744 l 639 849 l 349 849 l 293 794 l 293 231 l 349 175 l 650 175 l 756 279 l 893 147 l 746 0 l 231 0 z "},"Ć":{"ha":935,"x_min":76,"x_max":893,"o":"m 406 1104 l 549 1319 l 771 1319 l 571 1104 l 406 1104 m 231 0 l 76 154 l 76 869 l 231 1024 l 735 1024 l 883 876 l 746 744 l 639 849 l 349 849 l 293 794 l 293 231 l 349 175 l 650 175 l 756 279 l 893 147 l 746 0 l 231 0 z "},"Č":{"ha":935,"x_min":76,"x_max":893,"o":"m 369 1104 l 218 1308 l 388 1308 l 483 1211 l 578 1308 l 747 1308 l 596 1104 l 369 1104 m 231 0 l 76 154 l 76 869 l 231 1024 l 735 1024 l 883 876 l 746 744 l 639 849 l 349 849 l 293 794 l 293 231 l 349 175 l 650 175 l 756 279 l 893 147 l 746 0 l 231 0 z "},"Ç":{"ha":935,"x_min":76,"x_max":893,"o":"m 376 -174 l 404 0 l 231 0 l 76 154 l 76 869 l 231 1024 l 735 1024 l 883 876 l 746 744 l 639 849 l 349 849 l 293 794 l 293 231 l 349 175 l 650 175 l 756 279 l 893 147 l 746 0 l 582 0 l 519 -174 l 376 -174 z "},"Ĉ":{"ha":935,"x_min":76,"x_max":893,"o":"m 218 1104 l 369 1308 l 596 1308 l 747 1104 l 578 1104 l 483 1201 l 388 1104 l 218 1104 m 231 0 l 76 154 l 76 869 l 231 1024 l 735 1024 l 883 876 l 746 744 l 639 849 l 349 849 l 293 794 l 293 231 l 349 175 l 650 175 l 756 279 l 893 147 l 746 0 l 231 0 z "},"Ċ":{"ha":935,"x_min":76,"x_max":893,"o":"m 376 1104 l 376 1288 l 590 1288 l 590 1104 l 376 1104 m 231 0 l 76 154 l 76 869 l 231 1024 l 735 1024 l 883 876 l 746 744 l 639 849 l 349 849 l 293 794 l 293 231 l 349 175 l 650 175 l 756 279 l 893 147 l 746 0 l 231 0 z "},"D":{"ha":1017,"x_min":104,"x_max":947,"o":"m 104 0 l 104 1024 l 733 1024 l 947 810 l 947 214 l 733 0 l 104 0 m 321 175 l 636 175 l 735 274 l 735 751 l 636 849 l 321 849 l 321 175 z "},"Ǆ":{"ha":1939,"x_min":104,"x_max":1865,"o":"m 1388 1104 l 1236 1308 l 1404 1308 l 1500 1211 l 1596 1308 l 1764 1308 l 1613 1104 l 1388 1104 m 104 0 l 104 1024 l 733 1024 l 947 810 l 947 214 l 733 0 l 104 0 m 1082 0 l 1082 189 l 1578 797 l 1578 839 l 1114 839 l 1114 1024 l 1865 1024 l 1865 835 l 1372 226 l 1372 185 l 1865 185 l 1865 0 l 1082 0 m 321 175 l 636 175 l 735 274 l 735 751 l 636 849 l 321 849 l 321 175 z "},"Ð":{"ha":1017,"x_min":7,"x_max":947,"o":"m 104 0 l 104 444 l 7 444 l 7 596 l 104 596 l 104 1024 l 733 1024 l 947 810 l 947 214 l 733 0 l 104 0 m 321 175 l 636 175 l 735 274 l 735 751 l 636 849 l 321 849 l 321 596 l 475 596 l 475 444 l 321 444 l 321 175 z "},"Ď":{"ha":1017,"x_min":104,"x_max":947,"o":"m 363 1104 l 211 1308 l 379 1308 l 475 1211 l 571 1308 l 739 1308 l 588 1104 l 363 1104 m 104 0 l 104 1024 l 733 1024 l 947 810 l 947 214 l 733 0 l 104 0 m 321 175 l 636 175 l 735 274 l 735 751 l 636 849 l 321 849 l 321 175 z "},"Đ":{"ha":1017,"x_min":7,"x_max":947,"o":"m 104 0 l 104 444 l 7 444 l 7 596 l 104 596 l 104 1024 l 733 1024 l 947 810 l 947 214 l 733 0 l 104 0 m 321 175 l 636 175 l 735 274 l 735 751 l 636 849 l 321 849 l 321 596 l 475 596 l 475 444 l 321 444 l 321 175 z "},"ǅ":{"ha":1867,"x_min":104,"x_max":1776,"o":"m 104 0 l 104 1024 l 733 1024 l 947 810 l 947 214 l 733 0 l 104 0 m 1332 806 l 1181 1010 l 1349 1010 l 1444 913 l 1540 1010 l 1708 1010 l 1557 806 l 1332 806 m 321 175 l 636 175 l 735 274 l 735 751 l 636 849 l 321 849 l 321 175 m 1108 0 l 1108 164 l 1488 568 l 1139 568 l 1139 725 l 1767 725 l 1767 560 l 1388 158 l 1776 158 l 1776 0 l 1108 0 z "},"E":{"ha":913,"x_min":104,"x_max":843,"o":"m 104 0 l 104 1024 l 843 1024 l 843 839 l 321 839 l 321 619 l 794 619 l 794 442 l 321 442 l 321 185 l 843 185 l 843 0 l 104 0 z "},"É":{"ha":913,"x_min":104,"x_max":843,"o":"m 396 1104 l 539 1319 l 761 1319 l 561 1104 l 396 1104 m 104 0 l 104 1024 l 843 1024 l 843 839 l 321 839 l 321 619 l 794 619 l 794 442 l 321 442 l 321 185 l 843 185 l 843 0 l 104 0 z "},"Ĕ":{"ha":913,"x_min":104,"x_max":843,"o":"m 340 1104 l 233 1206 l 233 1308 l 381 1308 l 381 1247 l 406 1224 l 540 1224 l 564 1247 l 564 1308 l 713 1308 l 713 1206 l 604 1104 l 340 1104 m 104 0 l 104 1024 l 843 1024 l 843 839 l 321 839 l 321 619 l 794 619 l 794 442 l 321 442 l 321 185 l 843 185 l 843 0 l 104 0 z "},"Ě":{"ha":913,"x_min":104,"x_max":843,"o":"m 360 1104 l 208 1308 l 376 1308 l 472 1211 l 568 1308 l 738 1308 l 586 1104 l 360 1104 m 104 0 l 104 1024 l 843 1024 l 843 839 l 321 839 l 321 619 l 794 619 l 794 442 l 321 442 l 321 185 l 843 185 l 843 0 l 104 0 z "},"Ê":{"ha":913,"x_min":104,"x_max":843,"o":"m 208 1104 l 360 1308 l 586 1308 l 738 1104 l 568 1104 l 472 1201 l 376 1104 l 208 1104 m 104 0 l 104 1024 l 843 1024 l 843 839 l 321 839 l 321 619 l 794 619 l 794 442 l 321 442 l 321 185 l 843 185 l 843 0 l 104 0 z "},"Ế":{"ha":913,"x_min":104,"x_max":1081,"o":"m 715 1218 l 858 1433 l 1081 1433 l 881 1218 l 715 1218 m 208 1104 l 360 1308 l 586 1308 l 738 1104 l 568 1104 l 472 1201 l 378 1104 l 208 1104 m 104 0 l 104 1024 l 843 1024 l 843 839 l 321 839 l 321 619 l 794 619 l 794 442 l 321 442 l 321 185 l 843 185 l 843 0 l 104 0 z "},"Ệ":{"ha":913,"x_min":104,"x_max":843,"o":"m 208 1104 l 360 1308 l 586 1308 l 738 1104 l 568 1104 l 472 1201 l 376 1104 l 208 1104 m 104 0 l 104 1024 l 843 1024 l 843 839 l 321 839 l 321 619 l 794 619 l 794 442 l 321 442 l 321 185 l 843 185 l 843 0 l 104 0 m 365 -264 l 365 -79 l 579 -79 l 579 -264 l 365 -264 z "},"Ề":{"ha":913,"x_min":-135,"x_max":843,"o":"m 65 1218 l -135 1433 l 88 1433 l 231 1218 l 65 1218 m 208 1104 l 360 1308 l 586 1308 l 738 1104 l 568 1104 l 472 1201 l 376 1104 l 208 1104 m 104 0 l 104 1024 l 843 1024 l 843 839 l 321 839 l 321 619 l 794 619 l 794 442 l 321 442 l 321 185 l 843 185 l 843 0 l 104 0 z "},"Ể":{"ha":913,"x_min":104,"x_max":938,"o":"m 692 1218 l 692 1324 l 789 1392 l 789 1429 l 740 1429 l 740 1394 l 599 1394 l 599 1464 l 664 1528 l 872 1528 l 938 1465 l 938 1340 l 836 1274 l 836 1218 l 692 1218 m 208 1104 l 360 1308 l 586 1308 l 738 1104 l 568 1104 l 472 1201 l 376 1104 l 208 1104 m 104 0 l 104 1024 l 843 1024 l 843 839 l 321 839 l 321 619 l 794 619 l 794 442 l 321 442 l 321 185 l 843 185 l 843 0 l 104 0 z "},"Ễ":{"ha":913,"x_min":104,"x_max":843,"o":"m 474 1351 l 393 1440 l 358 1440 l 324 1394 l 324 1358 l 188 1358 l 189 1464 l 282 1558 l 485 1558 l 565 1472 l 600 1472 l 635 1515 l 635 1553 l 771 1553 l 769 1447 l 676 1351 l 474 1351 m 208 1104 l 360 1308 l 586 1308 l 738 1104 l 568 1104 l 472 1201 l 376 1104 l 208 1104 m 104 0 l 104 1024 l 843 1024 l 843 839 l 321 839 l 321 619 l 794 619 l 794 442 l 321 442 l 321 185 l 843 185 l 843 0 l 104 0 z "},"Ȅ":{"ha":913,"x_min":57,"x_max":843,"o":"m 258 1104 l 57 1319 l 272 1319 l 415 1104 l 258 1104 m 539 1104 l 338 1319 l 553 1319 l 696 1104 l 539 1104 m 104 0 l 104 1024 l 843 1024 l 843 839 l 321 839 l 321 619 l 794 619 l 794 442 l 321 442 l 321 185 l 843 185 l 843 0 l 104 0 z "},"Ë":{"ha":913,"x_min":104,"x_max":843,"o":"m 179 1104 l 179 1288 l 385 1288 l 385 1104 l 179 1104 m 561 1104 l 561 1288 l 767 1288 l 767 1104 l 561 1104 m 104 0 l 104 1024 l 843 1024 l 843 839 l 321 839 l 321 619 l 794 619 l 794 442 l 321 442 l 321 185 l 843 185 l 843 0 l 104 0 z "},"Ė":{"ha":913,"x_min":104,"x_max":843,"o":"m 365 1104 l 365 1288 l 579 1288 l 579 1104 l 365 1104 m 104 0 l 104 1024 l 843 1024 l 843 839 l 321 839 l 321 619 l 794 619 l 794 442 l 321 442 l 321 185 l 843 185 l 843 0 l 104 0 z "},"Ẹ":{"ha":913,"x_min":104,"x_max":843,"o":"m 104 0 l 104 1024 l 843 1024 l 843 839 l 321 839 l 321 619 l 794 619 l 794 442 l 321 442 l 321 185 l 843 185 l 843 0 l 104 0 m 365 -264 l 365 -79 l 579 -79 l 579 -264 l 365 -264 z "},"È":{"ha":913,"x_min":104,"x_max":843,"o":"m 383 1104 l 183 1319 l 406 1319 l 549 1104 l 383 1104 m 104 0 l 104 1024 l 843 1024 l 843 839 l 321 839 l 321 619 l 794 619 l 794 442 l 321 442 l 321 185 l 843 185 l 843 0 l 104 0 z "},"Ẻ":{"ha":913,"x_min":104,"x_max":843,"o":"m 399 1104 l 399 1210 l 496 1278 l 496 1315 l 447 1315 l 447 1281 l 306 1281 l 306 1350 l 369 1413 l 579 1413 l 644 1351 l 644 1226 l 543 1160 l 543 1104 l 399 1104 m 104 0 l 104 1024 l 843 1024 l 843 839 l 321 839 l 321 619 l 794 619 l 794 442 l 321 442 l 321 185 l 843 185 l 843 0 l 104 0 z "},"Ȇ":{"ha":913,"x_min":104,"x_max":843,"o":"m 233 1104 l 233 1206 l 340 1308 l 604 1308 l 713 1206 l 713 1104 l 564 1104 l 564 1167 l 540 1189 l 406 1189 l 381 1167 l 381 1104 l 233 1104 m 104 0 l 104 1024 l 843 1024 l 843 839 l 321 839 l 321 619 l 794 619 l 794 442 l 321 442 l 321 185 l 843 185 l 843 0 l 104 0 z "},"Ē":{"ha":913,"x_min":104,"x_max":843,"o":"m 176 1104 l 176 1249 l 764 1249 l 764 1104 l 176 1104 m 104 0 l 104 1024 l 843 1024 l 843 839 l 321 839 l 321 619 l 794 619 l 794 442 l 321 442 l 321 185 l 843 185 l 843 0 l 104 0 z "},"Ę":{"ha":913,"x_min":104,"x_max":843,"o":"m 754 -244 l 658 -154 l 658 -46 l 721 0 l 104 0 l 104 1024 l 843 1024 l 843 839 l 321 839 l 321 619 l 794 619 l 794 442 l 321 442 l 321 185 l 843 185 l 843 0 l 783 -50 l 783 -90 l 811 -117 l 843 -117 l 843 -244 l 754 -244 z "},"Ẽ":{"ha":913,"x_min":104,"x_max":843,"o":"m 472 1104 l 392 1193 l 357 1193 l 322 1146 l 322 1111 l 186 1111 l 188 1217 l 281 1311 l 482 1311 l 564 1225 l 599 1225 l 633 1268 l 633 1304 l 769 1304 l 768 1200 l 675 1104 l 472 1104 m 104 0 l 104 1024 l 843 1024 l 843 839 l 321 839 l 321 619 l 794 619 l 794 442 l 321 442 l 321 185 l 843 185 l 843 0 l 104 0 z "},"F":{"ha":849,"x_min":104,"x_max":831,"o":"m 104 0 l 104 1024 l 831 1024 l 831 839 l 321 839 l 321 597 l 768 597 l 768 419 l 321 419 l 321 0 l 104 0 z "},"G":{"ha":1024,"x_min":76,"x_max":926,"o":"m 231 0 l 76 154 l 76 869 l 231 1024 l 771 1024 l 918 876 l 781 744 l 675 849 l 349 849 l 293 794 l 293 231 l 349 175 l 590 175 l 738 304 l 738 381 l 526 381 l 526 556 l 926 556 l 926 0 l 744 0 l 744 97 l 635 0 l 231 0 z "},"Ğ":{"ha":1024,"x_min":76,"x_max":926,"o":"m 368 1104 l 261 1206 l 261 1308 l 408 1308 l 408 1247 l 433 1224 l 568 1224 l 592 1247 l 592 1308 l 739 1308 l 739 1206 l 632 1104 l 368 1104 m 231 0 l 76 154 l 76 869 l 231 1024 l 771 1024 l 918 876 l 781 744 l 675 849 l 349 849 l 293 794 l 293 231 l 349 175 l 590 175 l 738 304 l 738 381 l 526 381 l 526 556 l 926 556 l 926 0 l 744 0 l 744 97 l 635 0 l 231 0 z "},"Ǧ":{"ha":1024,"x_min":76,"x_max":926,"o":"m 388 1104 l 236 1308 l 404 1308 l 500 1211 l 596 1308 l 764 1308 l 614 1104 l 388 1104 m 231 0 l 76 154 l 76 869 l 231 1024 l 771 1024 l 918 876 l 781 744 l 675 849 l 349 849 l 293 794 l 293 231 l 349 175 l 590 175 l 738 304 l 738 381 l 526 381 l 526 556 l 926 556 l 926 0 l 744 0 l 744 97 l 635 0 l 231 0 z "},"Ĝ":{"ha":1024,"x_min":76,"x_max":926,"o":"m 236 1104 l 388 1308 l 614 1308 l 764 1104 l 596 1104 l 500 1201 l 404 1104 l 236 1104 m 231 0 l 76 154 l 76 869 l 231 1024 l 771 1024 l 918 876 l 781 744 l 675 849 l 349 849 l 293 794 l 293 231 l 349 175 l 590 175 l 738 304 l 738 381 l 526 381 l 526 556 l 926 556 l 926 0 l 744 0 l 744 97 l 635 0 l 231 0 z "},"Ģ":{"ha":1024,"x_min":76,"x_max":926,"o":"m 231 0 l 76 154 l 76 869 l 231 1024 l 771 1024 l 918 876 l 781 744 l 675 849 l 349 849 l 293 794 l 293 231 l 349 175 l 590 175 l 738 304 l 738 381 l 526 381 l 526 556 l 926 556 l 926 0 l 744 0 l 744 97 l 635 0 l 231 0 m 292 -333 l 353 -79 l 556 -79 l 413 -333 l 292 -333 z "},"Ġ":{"ha":1024,"x_min":76,"x_max":926,"o":"m 393 1104 l 393 1288 l 607 1288 l 607 1104 l 393 1104 m 231 0 l 76 154 l 76 869 l 231 1024 l 771 1024 l 918 876 l 781 744 l 675 849 l 349 849 l 293 794 l 293 231 l 349 175 l 590 175 l 738 304 l 738 381 l 526 381 l 526 556 l 926 556 l 926 0 l 744 0 l 744 97 l 635 0 l 231 0 z "},"H":{"ha":1040,"x_min":104,"x_max":936,"o":"m 104 0 l 104 1024 l 321 1024 l 321 628 l 719 628 l 719 1024 l 936 1024 l 936 0 l 719 0 l 719 450 l 321 450 l 321 0 l 104 0 z "},"Ħ":{"ha":1040,"x_min":19,"x_max":1021,"o":"m 104 0 l 104 743 l 19 743 l 19 893 l 104 893 l 104 1024 l 321 1024 l 321 893 l 719 893 l 719 1024 l 936 1024 l 936 893 l 1021 893 l 1021 743 l 936 743 l 936 0 l 719 0 l 719 450 l 321 450 l 321 0 l 104 0 m 321 628 l 719 628 l 719 743 l 321 743 l 321 628 z "},"Ĥ":{"ha":1040,"x_min":104,"x_max":936,"o":"m 260 1104 l 411 1308 l 638 1308 l 789 1104 l 619 1104 l 525 1201 l 429 1104 l 260 1104 m 104 0 l 104 1024 l 321 1024 l 321 628 l 719 628 l 719 1024 l 936 1024 l 936 0 l 719 0 l 719 450 l 321 450 l 321 0 l 104 0 z "},"I":{"ha":567,"x_min":69,"x_max":497,"o":"m 69 0 l 69 178 l 178 178 l 178 846 l 69 846 l 69 1024 l 497 1024 l 497 846 l 389 846 l 386 178 l 497 178 l 497 0 l 69 0 z "},"Í":{"ha":567,"x_min":69,"x_max":571,"o":"m 206 1104 l 349 1319 l 571 1319 l 371 1104 l 206 1104 m 69 0 l 69 178 l 178 178 l 178 846 l 69 846 l 69 1024 l 497 1024 l 497 846 l 389 846 l 386 178 l 497 178 l 497 0 l 69 0 z "},"Ĭ":{"ha":567,"x_min":44,"x_max":522,"o":"m 151 1104 l 44 1206 l 44 1308 l 192 1308 l 192 1247 l 215 1224 l 350 1224 l 375 1247 l 375 1308 l 522 1308 l 522 1206 l 414 1104 l 151 1104 m 69 0 l 69 178 l 178 178 l 178 846 l 69 846 l 69 1024 l 497 1024 l 497 846 l 389 846 l 386 178 l 497 178 l 497 0 l 69 0 z "},"Î":{"ha":567,"x_min":19,"x_max":547,"o":"m 19 1104 l 169 1308 l 396 1308 l 547 1104 l 378 1104 l 283 1201 l 188 1104 l 19 1104 m 69 0 l 69 178 l 178 178 l 178 846 l 69 846 l 69 1024 l 497 1024 l 497 846 l 389 846 l 386 178 l 497 178 l 497 0 l 69 0 z "},"Ȉ":{"ha":567,"x_min":-132,"x_max":507,"o":"m 68 1104 l -132 1319 l 83 1319 l 226 1104 l 68 1104 m 349 1104 l 149 1319 l 363 1319 l 507 1104 l 349 1104 m 69 0 l 69 178 l 178 178 l 178 846 l 69 846 l 69 1024 l 497 1024 l 497 846 l 389 846 l 386 178 l 497 178 l 497 0 l 69 0 z "},"Ï":{"ha":567,"x_min":-11,"x_max":576,"o":"m -11 1104 l -11 1288 l 194 1288 l 194 1104 l -11 1104 m 371 1104 l 371 1288 l 576 1288 l 576 1104 l 371 1104 m 69 0 l 69 178 l 178 178 l 178 846 l 69 846 l 69 1024 l 497 1024 l 497 846 l 389 846 l 386 178 l 497 178 l 497 0 l 69 0 z "},"İ":{"ha":567,"x_min":69,"x_max":497,"o":"m 176 1104 l 176 1288 l 390 1288 l 390 1104 l 176 1104 m 69 0 l 69 178 l 178 178 l 178 846 l 69 846 l 69 1024 l 497 1024 l 497 846 l 389 846 l 386 178 l 497 178 l 497 0 l 69 0 z "},"Ị":{"ha":567,"x_min":69,"x_max":497,"o":"m 69 0 l 69 178 l 178 178 l 178 846 l 69 846 l 69 1024 l 497 1024 l 497 846 l 389 846 l 386 178 l 497 178 l 497 0 l 69 0 m 176 -264 l 176 -79 l 390 -79 l 390 -264 l 176 -264 z "},"Ì":{"ha":567,"x_min":-7,"x_max":497,"o":"m 193 1104 l -7 1319 l 215 1319 l 358 1104 l 193 1104 m 69 0 l 69 178 l 178 178 l 178 846 l 69 846 l 69 1024 l 497 1024 l 497 846 l 389 846 l 386 178 l 497 178 l 497 0 l 69 0 z "},"Ỉ":{"ha":567,"x_min":69,"x_max":497,"o":"m 208 1104 l 208 1210 l 306 1278 l 306 1315 l 257 1315 l 257 1281 l 115 1281 l 115 1350 l 181 1413 l 389 1413 l 454 1351 l 454 1226 l 353 1160 l 353 1104 l 208 1104 m 69 0 l 69 178 l 178 178 l 178 846 l 69 846 l 69 1024 l 497 1024 l 497 846 l 389 846 l 386 178 l 497 178 l 497 0 l 69 0 z "},"Ȋ":{"ha":567,"x_min":44,"x_max":522,"o":"m 44 1104 l 44 1206 l 151 1308 l 414 1308 l 522 1206 l 522 1104 l 375 1104 l 375 1167 l 350 1189 l 215 1189 l 192 1167 l 192 1104 l 44 1104 m 69 0 l 69 178 l 178 178 l 178 846 l 69 846 l 69 1024 l 497 1024 l 497 846 l 389 846 l 386 178 l 497 178 l 497 0 l 69 0 z "},"Ī":{"ha":567,"x_min":-11,"x_max":576,"o":"m -11 1104 l -11 1249 l 576 1249 l 576 1104 l -11 1104 m 69 0 l 69 178 l 178 178 l 178 846 l 69 846 l 69 1024 l 497 1024 l 497 846 l 389 846 l 386 178 l 497 178 l 497 0 l 69 0 z "},"Į":{"ha":567,"x_min":69,"x_max":497,"o":"m 407 -244 l 313 -154 l 313 -46 l 375 0 l 69 0 l 69 178 l 178 178 l 178 846 l 69 846 l 69 1024 l 497 1024 l 497 846 l 389 846 l 386 178 l 497 178 l 497 0 l 436 -50 l 436 -90 l 464 -117 l 497 -117 l 497 -244 l 407 -244 z "},"Ĩ":{"ha":567,"x_min":-4,"x_max":579,"o":"m 282 1104 l 201 1193 l 167 1193 l 132 1146 l 132 1111 l -4 1111 l -1 1217 l 90 1311 l 293 1311 l 374 1225 l 408 1225 l 443 1268 l 443 1304 l 579 1304 l 578 1200 l 485 1104 l 282 1104 m 69 0 l 69 178 l 178 178 l 178 846 l 69 846 l 69 1024 l 497 1024 l 497 846 l 389 846 l 386 178 l 497 178 l 497 0 l 69 0 z "},"J":{"ha":882,"x_min":49,"x_max":778,"o":"m 203 0 l 49 154 l 49 414 l 265 414 l 265 231 l 321 175 l 506 175 l 561 231 l 561 1024 l 778 1024 l 778 154 l 624 0 l 203 0 z "},"Ĵ":{"ha":882,"x_min":49,"x_max":933,"o":"m 406 1104 l 557 1308 l 782 1308 l 933 1104 l 765 1104 l 669 1201 l 574 1104 l 406 1104 m 203 0 l 49 154 l 49 414 l 265 414 l 265 231 l 321 175 l 506 175 l 561 231 l 561 1024 l 778 1024 l 778 154 l 624 0 l 203 0 z "},"K":{"ha":953,"x_min":104,"x_max":949,"o":"m 104 0 l 104 1024 l 321 1024 l 321 564 l 703 1024 l 949 1024 l 579 582 l 949 0 l 706 0 l 446 422 l 321 272 l 321 0 l 104 0 z "},"Ķ":{"ha":953,"x_min":104,"x_max":949,"o":"m 104 0 l 104 1024 l 321 1024 l 321 564 l 703 1024 l 949 1024 l 579 582 l 949 0 l 706 0 l 446 422 l 321 272 l 321 0 l 104 0 m 335 -333 l 396 -79 l 599 -79 l 456 -333 l 335 -333 z "},"L":{"ha":821,"x_min":104,"x_max":803,"o":"m 104 0 l 104 1024 l 321 1024 l 321 185 l 803 185 l 803 0 l 104 0 z "},"Ǉ":{"ha":1725,"x_min":104,"x_max":1621,"o":"m 1047 0 l 893 154 l 893 414 l 1110 414 l 1110 231 l 1164 175 l 1350 175 l 1404 231 l 1404 1024 l 1621 1024 l 1621 154 l 1467 0 l 1047 0 m 104 0 l 104 1024 l 321 1024 l 321 185 l 803 185 l 803 0 l 104 0 z "},"Ĺ":{"ha":821,"x_min":104,"x_max":803,"o":"m 135 1104 l 278 1319 l 500 1319 l 300 1104 l 135 1104 m 104 0 l 104 1024 l 321 1024 l 321 185 l 803 185 l 803 0 l 104 0 z "},"Ľ":{"ha":821,"x_min":104,"x_max":803,"o":"m 104 0 l 104 1024 l 321 1024 l 321 185 l 803 185 l 803 0 l 104 0 m 469 769 l 531 1024 l 732 1024 l 589 769 l 469 769 z "},"Ļ":{"ha":821,"x_min":104,"x_max":803,"o":"m 104 0 l 104 1024 l 321 1024 l 321 185 l 803 185 l 803 0 l 104 0 m 285 -333 l 346 -79 l 549 -79 l 406 -333 l 285 -333 z "},"Ŀ":{"ha":821,"x_min":104,"x_max":803,"o":"m 104 0 l 104 1024 l 321 1024 l 321 185 l 803 185 l 803 0 l 104 0 m 515 460 l 515 656 l 717 656 l 717 460 l 515 460 z "},"ǈ":{"ha":1261,"x_min":104,"x_max":1164,"o":"m 104 0 l 104 1024 l 321 1024 l 321 185 l 803 185 l 803 0 l 104 0 m 950 806 l 950 990 l 1164 990 l 1164 806 l 950 806 m 797 -260 l 797 -107 l 903 -107 l 950 -60 l 950 725 l 1164 725 l 1164 -124 l 1021 -260 l 797 -260 z "},"Ł":{"ha":840,"x_min":24,"x_max":822,"o":"m 124 0 l 124 379 l 24 335 l 24 511 l 124 554 l 124 1024 l 340 1024 l 340 650 l 549 742 l 549 565 l 340 474 l 340 185 l 822 185 l 822 0 l 124 0 z "},"M":{"ha":1239,"x_min":103,"x_max":1136,"o":"m 103 0 l 103 1024 l 340 1024 l 619 342 l 899 1024 l 1136 1024 l 1136 0 l 926 0 l 926 636 l 675 22 l 564 22 l 313 638 l 313 0 l 103 0 z "},"N":{"ha":1044,"x_min":103,"x_max":942,"o":"m 103 0 l 103 1024 l 357 1024 l 732 361 l 732 1024 l 942 1024 l 942 0 l 725 0 l 354 657 l 313 657 l 313 0 l 103 0 z "},"Ǌ":{"ha":1954,"x_min":103,"x_max":1850,"o":"m 103 0 l 103 1024 l 357 1024 l 732 361 l 732 1024 l 942 1024 l 942 0 l 725 0 l 354 657 l 313 657 l 313 0 l 103 0 m 1275 0 l 1121 154 l 1121 414 l 1338 414 l 1338 231 l 1393 175 l 1578 175 l 1633 231 l 1632 1024 l 1850 1024 l 1850 154 l 1696 0 l 1275 0 z "},"Ń":{"ha":1044,"x_min":103,"x_max":942,"o":"m 438 1104 l 581 1319 l 803 1319 l 603 1104 l 438 1104 m 103 0 l 103 1024 l 357 1024 l 732 361 l 732 1024 l 942 1024 l 942 0 l 725 0 l 354 657 l 313 657 l 313 0 l 103 0 z "},"Ň":{"ha":1044,"x_min":103,"x_max":942,"o":"m 401 1104 l 250 1308 l 418 1308 l 514 1211 l 610 1308 l 778 1308 l 628 1104 l 401 1104 m 103 0 l 103 1024 l 357 1024 l 732 361 l 732 1024 l 942 1024 l 942 0 l 725 0 l 354 657 l 313 657 l 313 0 l 103 0 z "},"Ņ":{"ha":1044,"x_min":103,"x_max":942,"o":"m 103 0 l 103 1024 l 357 1024 l 732 361 l 732 1024 l 942 1024 l 942 0 l 725 0 l 354 657 l 313 657 l 313 0 l 103 0 m 344 -333 l 404 -79 l 607 -79 l 464 -333 l 344 -333 z "},"Ŋ":{"ha":1044,"x_min":103,"x_max":942,"o":"m 589 -260 l 589 -115 l 679 -115 l 725 -67 l 725 0 l 354 657 l 313 657 l 313 0 l 103 0 l 103 1024 l 357 1024 l 732 361 l 732 1024 l 942 1024 l 942 -124 l 797 -260 l 589 -260 z "},"ǋ":{"ha":1490,"x_min":103,"x_max":1393,"o":"m 103 0 l 103 1024 l 357 1024 l 732 361 l 732 1024 l 942 1024 l 942 0 l 725 0 l 354 657 l 313 657 l 313 0 l 103 0 m 1179 806 l 1179 990 l 1393 990 l 1393 806 l 1179 806 m 1026 -260 l 1026 -107 l 1132 -107 l 1179 -60 l 1179 725 l 1393 725 l 1393 -124 l 1250 -260 l 1026 -260 z "},"Ñ":{"ha":1044,"x_min":103,"x_max":942,"o":"m 514 1104 l 433 1193 l 397 1193 l 364 1146 l 364 1111 l 228 1111 l 229 1217 l 322 1311 l 524 1311 l 606 1225 l 640 1225 l 675 1268 l 675 1304 l 811 1304 l 810 1200 l 717 1104 l 514 1104 m 103 0 l 103 1024 l 357 1024 l 732 361 l 732 1024 l 942 1024 l 942 0 l 725 0 l 354 657 l 313 657 l 313 0 l 103 0 z "},"O":{"ha":1013,"x_min":76,"x_max":936,"o":"m 231 0 l 76 154 l 76 869 l 231 1024 l 781 1024 l 936 869 l 936 154 l 781 0 l 231 0 m 349 175 l 664 175 l 719 231 l 719 794 l 663 849 l 349 849 l 293 794 l 293 231 l 349 175 z "},"Ó":{"ha":1013,"x_min":76,"x_max":936,"o":"m 428 1104 l 572 1319 l 794 1319 l 594 1104 l 428 1104 m 231 0 l 76 154 l 76 869 l 231 1024 l 781 1024 l 936 869 l 936 154 l 781 0 l 231 0 m 349 175 l 664 175 l 719 231 l 719 794 l 663 849 l 349 849 l 293 794 l 293 231 l 349 175 z "},"Ŏ":{"ha":1013,"x_min":76,"x_max":936,"o":"m 374 1104 l 267 1206 l 267 1308 l 414 1308 l 414 1247 l 439 1224 l 574 1224 l 597 1247 l 597 1308 l 744 1308 l 744 1206 l 638 1104 l 374 1104 m 231 0 l 76 154 l 76 869 l 231 1024 l 781 1024 l 936 869 l 936 154 l 781 0 l 231 0 m 349 175 l 664 175 l 719 231 l 719 794 l 663 849 l 349 849 l 293 794 l 293 231 l 349 175 z "},"Ô":{"ha":1013,"x_min":76,"x_max":936,"o":"m 242 1104 l 393 1308 l 619 1308 l 769 1104 l 601 1104 l 506 1201 l 410 1104 l 242 1104 m 231 0 l 76 154 l 76 869 l 231 1024 l 781 1024 l 936 869 l 936 154 l 781 0 l 231 0 m 349 175 l 664 175 l 719 231 l 719 794 l 663 849 l 349 849 l 293 794 l 293 231 l 349 175 z "},"Ố":{"ha":1013,"x_min":76,"x_max":1114,"o":"m 749 1218 l 892 1433 l 1114 1433 l 914 1218 l 749 1218 m 242 1104 l 393 1308 l 619 1308 l 769 1104 l 601 1104 l 506 1201 l 411 1104 l 242 1104 m 231 0 l 76 154 l 76 869 l 231 1024 l 781 1024 l 936 869 l 936 154 l 781 0 l 231 0 m 349 175 l 664 175 l 719 231 l 719 794 l 663 849 l 349 849 l 293 794 l 293 231 l 349 175 z "},"Ộ":{"ha":1013,"x_min":76,"x_max":936,"o":"m 242 1104 l 393 1308 l 619 1308 l 769 1104 l 601 1104 l 506 1201 l 410 1104 l 242 1104 m 231 0 l 76 154 l 76 869 l 231 1024 l 781 1024 l 936 869 l 936 154 l 781 0 l 231 0 m 349 175 l 664 175 l 719 231 l 719 794 l 663 849 l 349 849 l 293 794 l 293 231 l 349 175 m 399 -264 l 399 -79 l 613 -79 l 613 -264 l 399 -264 z "},"Ồ":{"ha":1013,"x_min":-103,"x_max":936,"o":"m 99 1218 l -103 1433 l 121 1433 l 264 1218 l 99 1218 m 242 1104 l 393 1308 l 619 1308 l 769 1104 l 601 1104 l 506 1201 l 410 1104 l 242 1104 m 231 0 l 76 154 l 76 869 l 231 1024 l 781 1024 l 936 869 l 936 154 l 781 0 l 231 0 m 349 175 l 664 175 l 719 231 l 719 794 l 663 849 l 349 849 l 293 794 l 293 231 l 349 175 z "},"Ổ":{"ha":1013,"x_min":76,"x_max":971,"o":"m 725 1218 l 725 1324 l 822 1392 l 822 1429 l 774 1429 l 774 1394 l 632 1394 l 632 1464 l 697 1528 l 906 1528 l 971 1465 l 971 1340 l 869 1274 l 869 1218 l 725 1218 m 242 1104 l 393 1308 l 619 1308 l 769 1104 l 601 1104 l 506 1201 l 410 1104 l 242 1104 m 231 0 l 76 154 l 76 869 l 231 1024 l 781 1024 l 936 869 l 936 154 l 781 0 l 231 0 m 349 175 l 664 175 l 719 231 l 719 794 l 663 849 l 349 849 l 293 794 l 293 231 l 349 175 z "},"Ỗ":{"ha":1013,"x_min":76,"x_max":936,"o":"m 507 1351 l 426 1440 l 392 1440 l 357 1394 l 357 1358 l 221 1358 l 222 1464 l 315 1558 l 517 1558 l 599 1472 l 633 1472 l 668 1515 l 668 1553 l 804 1553 l 803 1447 l 710 1351 l 507 1351 m 242 1104 l 393 1308 l 619 1308 l 769 1104 l 601 1104 l 506 1201 l 410 1104 l 242 1104 m 231 0 l 76 154 l 76 869 l 231 1024 l 781 1024 l 936 869 l 936 154 l 781 0 l 231 0 m 349 175 l 664 175 l 719 231 l 719 794 l 663 849 l 349 849 l 293 794 l 293 231 l 349 175 z "},"Ȍ":{"ha":1013,"x_min":76,"x_max":936,"o":"m 292 1104 l 90 1319 l 306 1319 l 449 1104 l 292 1104 m 571 1104 l 371 1319 l 586 1319 l 729 1104 l 571 1104 m 231 0 l 76 154 l 76 869 l 231 1024 l 781 1024 l 936 869 l 936 154 l 781 0 l 231 0 m 349 175 l 664 175 l 719 231 l 719 794 l 663 849 l 349 849 l 293 794 l 293 231 l 349 175 z "},"Ö":{"ha":1013,"x_min":76,"x_max":936,"o":"m 213 1104 l 213 1288 l 418 1288 l 418 1104 l 213 1104 m 594 1104 l 594 1288 l 800 1288 l 800 1104 l 594 1104 m 231 0 l 76 154 l 76 869 l 231 1024 l 781 1024 l 936 869 l 936 154 l 781 0 l 231 0 m 349 175 l 664 175 l 719 231 l 719 794 l 663 849 l 349 849 l 293 794 l 293 231 l 349 175 z "},"Ȫ":{"ha":1013,"x_min":76,"x_max":936,"o":"m 213 1343 l 213 1488 l 800 1488 l 800 1343 l 213 1343 m 213 1104 l 213 1288 l 418 1288 l 418 1104 l 213 1104 m 594 1104 l 594 1288 l 800 1288 l 800 1104 l 594 1104 m 231 0 l 76 154 l 76 869 l 231 1024 l 781 1024 l 936 869 l 936 154 l 781 0 l 231 0 m 349 175 l 664 175 l 719 231 l 719 794 l 663 849 l 349 849 l 293 794 l 293 231 l 349 175 z "},"Ȱ":{"ha":1013,"x_min":76,"x_max":936,"o":"m 213 1343 l 213 1488 l 800 1488 l 800 1343 l 213 1343 m 399 1104 l 399 1288 l 613 1288 l 613 1104 l 399 1104 m 231 0 l 76 154 l 76 869 l 231 1024 l 781 1024 l 936 869 l 936 154 l 781 0 l 231 0 m 349 175 l 664 175 l 719 231 l 719 794 l 663 849 l 349 849 l 293 794 l 293 231 l 349 175 z "},"Ọ":{"ha":1013,"x_min":76,"x_max":936,"o":"m 231 0 l 76 154 l 76 869 l 231 1024 l 781 1024 l 936 869 l 936 154 l 781 0 l 231 0 m 349 175 l 664 175 l 719 231 l 719 794 l 663 849 l 349 849 l 293 794 l 293 231 l 349 175 m 399 -264 l 399 -79 l 613 -79 l 613 -264 l 399 -264 z "},"Ò":{"ha":1013,"x_min":76,"x_max":936,"o":"m 417 1104 l 215 1319 l 439 1319 l 582 1104 l 417 1104 m 231 0 l 76 154 l 76 869 l 231 1024 l 781 1024 l 936 869 l 936 154 l 781 0 l 231 0 m 349 175 l 664 175 l 719 231 l 719 794 l 663 849 l 349 849 l 293 794 l 293 231 l 349 175 z "},"Ỏ":{"ha":1013,"x_min":76,"x_max":936,"o":"m 432 1104 l 432 1210 l 529 1278 l 529 1315 l 481 1315 l 481 1281 l 338 1281 l 338 1350 l 403 1413 l 613 1413 l 676 1351 l 676 1226 l 576 1160 l 576 1104 l 432 1104 m 231 0 l 76 154 l 76 869 l 231 1024 l 781 1024 l 936 869 l 936 154 l 781 0 l 231 0 m 349 175 l 664 175 l 719 231 l 719 794 l 663 849 l 349 849 l 293 794 l 293 231 l 349 175 z "},"Ơ":{"ha":1013,"x_min":76,"x_max":1174,"o":"m 231 0 l 76 154 l 76 869 l 231 1024 l 781 1024 l 856 950 l 936 950 l 960 1114 l 1174 1114 l 1051 835 l 936 835 l 936 154 l 781 0 l 231 0 m 349 175 l 664 175 l 719 231 l 719 794 l 663 849 l 349 849 l 293 794 l 293 231 l 349 175 z "},"Ớ":{"ha":1013,"x_min":76,"x_max":1174,"o":"m 428 1104 l 572 1319 l 794 1319 l 594 1104 l 428 1104 m 231 0 l 76 154 l 76 869 l 231 1024 l 781 1024 l 856 950 l 936 950 l 960 1114 l 1174 1114 l 1051 835 l 936 835 l 936 154 l 781 0 l 231 0 m 349 175 l 664 175 l 719 231 l 719 794 l 663 849 l 349 849 l 293 794 l 293 231 l 349 175 z "},"Ợ":{"ha":1013,"x_min":76,"x_max":1174,"o":"m 231 0 l 76 154 l 76 869 l 231 1024 l 781 1024 l 856 950 l 936 950 l 960 1114 l 1174 1114 l 1051 835 l 936 835 l 936 154 l 781 0 l 231 0 m 349 175 l 664 175 l 719 231 l 719 794 l 663 849 l 349 849 l 293 794 l 293 231 l 349 175 m 399 -264 l 399 -79 l 613 -79 l 613 -264 l 399 -264 z "},"Ờ":{"ha":1013,"x_min":76,"x_max":1174,"o":"m 417 1104 l 215 1319 l 439 1319 l 582 1104 l 417 1104 m 231 0 l 76 154 l 76 869 l 231 1024 l 781 1024 l 856 950 l 936 950 l 960 1114 l 1174 1114 l 1051 835 l 936 835 l 936 154 l 781 0 l 231 0 m 349 175 l 664 175 l 719 231 l 719 794 l 663 849 l 349 849 l 293 794 l 293 231 l 349 175 z "},"Ở":{"ha":1013,"x_min":76,"x_max":1174,"o":"m 432 1104 l 432 1210 l 529 1278 l 529 1315 l 481 1315 l 481 1281 l 338 1281 l 338 1350 l 403 1413 l 613 1413 l 676 1351 l 676 1226 l 576 1160 l 576 1104 l 432 1104 m 231 0 l 76 154 l 76 869 l 231 1024 l 781 1024 l 856 950 l 936 950 l 960 1114 l 1174 1114 l 1051 835 l 936 835 l 936 154 l 781 0 l 231 0 m 349 175 l 664 175 l 719 231 l 719 794 l 663 849 l 349 849 l 293 794 l 293 231 l 349 175 z "},"Ỡ":{"ha":1013,"x_min":76,"x_max":1174,"o":"m 506 1104 l 425 1193 l 389 1193 l 356 1146 l 356 1111 l 219 1111 l 221 1217 l 314 1311 l 515 1311 l 596 1225 l 632 1225 l 665 1268 l 665 1304 l 803 1304 l 801 1200 l 708 1104 l 506 1104 m 231 0 l 76 154 l 76 869 l 231 1024 l 781 1024 l 856 950 l 936 950 l 960 1114 l 1174 1114 l 1051 835 l 936 835 l 936 154 l 781 0 l 231 0 m 349 175 l 664 175 l 719 231 l 719 794 l 663 849 l 349 849 l 293 794 l 293 231 l 349 175 z "},"Ő":{"ha":1013,"x_min":76,"x_max":939,"o":"m 300 1104 l 443 1319 l 658 1319 l 458 1104 l 300 1104 m 581 1104 l 724 1319 l 939 1319 l 739 1104 l 581 1104 m 231 0 l 76 154 l 76 869 l 231 1024 l 781 1024 l 936 869 l 936 154 l 781 0 l 231 0 m 349 175 l 664 175 l 719 231 l 719 794 l 663 849 l 349 849 l 293 794 l 293 231 l 349 175 z "},"Ȏ":{"ha":1013,"x_min":76,"x_max":936,"o":"m 267 1104 l 267 1206 l 374 1308 l 638 1308 l 744 1206 l 744 1104 l 597 1104 l 597 1167 l 574 1189 l 439 1189 l 414 1167 l 414 1104 l 267 1104 m 231 0 l 76 154 l 76 869 l 231 1024 l 781 1024 l 936 869 l 936 154 l 781 0 l 231 0 m 349 175 l 664 175 l 719 231 l 719 794 l 663 849 l 349 849 l 293 794 l 293 231 l 349 175 z "},"Ō":{"ha":1013,"x_min":76,"x_max":936,"o":"m 213 1104 l 213 1249 l 800 1249 l 800 1104 l 213 1104 m 231 0 l 76 154 l 76 869 l 231 1024 l 781 1024 l 936 869 l 936 154 l 781 0 l 231 0 m 349 175 l 664 175 l 719 231 l 719 794 l 663 849 l 349 849 l 293 794 l 293 231 l 349 175 z "},"Ǫ":{"ha":1013,"x_min":76,"x_max":936,"o":"m 701 -244 l 607 -154 l 607 -46 l 667 0 l 231 0 l 76 154 l 76 869 l 231 1024 l 781 1024 l 936 869 l 936 154 l 731 -50 l 731 -90 l 758 -117 l 800 -117 l 800 -244 l 701 -244 m 349 175 l 664 175 l 719 231 l 719 794 l 663 849 l 349 849 l 293 794 l 293 231 l 349 175 z "},"Ø":{"ha":1013,"x_min":76,"x_max":936,"o":"m 231 0 l 76 154 l 76 869 l 231 1024 l 781 1024 l 936 869 l 936 154 l 781 0 l 231 0 m 293 321 l 636 849 l 349 849 l 293 794 l 293 321 m 375 175 l 664 175 l 719 231 l 719 704 l 375 175 z "},"Ǿ":{"ha":1013,"x_min":76,"x_max":936,"o":"m 428 1104 l 572 1319 l 794 1319 l 594 1104 l 428 1104 m 231 0 l 76 154 l 76 869 l 231 1024 l 781 1024 l 936 869 l 936 154 l 781 0 l 231 0 m 293 321 l 636 849 l 349 849 l 293 794 l 293 321 m 375 175 l 664 175 l 719 231 l 719 704 l 375 175 z "},"Õ":{"ha":1013,"x_min":76,"x_max":936,"o":"m 506 1104 l 425 1193 l 389 1193 l 356 1146 l 356 1111 l 219 1111 l 221 1217 l 314 1311 l 515 1311 l 596 1225 l 632 1225 l 665 1268 l 665 1304 l 803 1304 l 801 1200 l 708 1104 l 506 1104 m 231 0 l 76 154 l 76 869 l 231 1024 l 781 1024 l 936 869 l 936 154 l 781 0 l 231 0 m 349 175 l 664 175 l 719 231 l 719 794 l 663 849 l 349 849 l 293 794 l 293 231 l 349 175 z "},"Ȭ":{"ha":1013,"x_min":76,"x_max":935,"o":"m 213 1367 l 213 1511 l 800 1511 l 800 1367 l 213 1367 m 500 1104 l 419 1193 l 385 1193 l 350 1146 l 350 1111 l 214 1111 l 215 1217 l 308 1311 l 511 1311 l 592 1225 l 626 1225 l 661 1268 l 661 1304 l 797 1304 l 796 1200 l 703 1104 l 500 1104 m 231 0 l 76 154 l 76 869 l 231 1024 l 781 1024 l 935 869 l 935 154 l 781 0 l 231 0 m 349 175 l 664 175 l 719 231 l 718 794 l 663 849 l 349 849 l 293 794 l 293 231 l 349 175 z "},"Œ":{"ha":1535,"x_min":76,"x_max":1465,"o":"m 231 0 l 76 154 l 76 869 l 231 1024 l 1465 1024 l 1465 839 l 943 839 l 943 619 l 1417 619 l 1417 442 l 943 442 l 943 185 l 1465 185 l 1465 0 l 231 0 m 349 175 l 664 175 l 719 231 l 719 794 l 663 849 l 349 849 l 293 794 l 293 231 l 349 175 z "},"P":{"ha":913,"x_min":104,"x_max":889,"o":"m 104 0 l 104 1024 l 735 1024 l 889 869 l 889 492 l 735 338 l 321 338 l 321 0 l 104 0 m 321 513 l 621 513 l 676 567 l 676 794 l 621 849 l 321 849 l 321 513 z "},"Þ":{"ha":913,"x_min":104,"x_max":889,"o":"m 104 -3 l 104 1021 l 321 1021 l 321 868 l 735 868 l 889 714 l 889 336 l 735 182 l 321 182 l 321 -3 l 104 -3 m 321 357 l 617 357 l 672 411 l 672 639 l 617 693 l 321 693 l 321 357 z "},"Q":{"ha":1013,"x_min":76,"x_max":936,"o":"m 421 -124 l 421 0 l 231 0 l 76 154 l 76 869 l 231 1024 l 781 1024 l 936 869 l 936 154 l 781 0 l 592 0 l 592 -124 l 421 -124 m 349 175 l 424 175 l 424 299 l 589 299 l 589 175 l 664 175 l 719 231 l 719 794 l 663 849 l 349 849 l 293 794 l 293 231 l 349 175 z "},"R":{"ha":997,"x_min":104,"x_max":942,"o":"m 104 0 l 104 1024 l 751 1024 l 906 869 l 906 517 l 776 389 l 942 0 l 713 0 l 565 363 l 321 363 l 321 0 l 104 0 m 321 538 l 638 538 l 693 592 l 692 794 l 638 849 l 321 849 l 321 538 z "},"Ŕ":{"ha":997,"x_min":104,"x_max":942,"o":"m 390 1104 l 533 1319 l 757 1319 l 556 1104 l 390 1104 m 104 0 l 104 1024 l 751 1024 l 906 869 l 906 517 l 776 389 l 942 0 l 713 0 l 565 363 l 321 363 l 321 0 l 104 0 m 321 538 l 638 538 l 693 592 l 692 794 l 638 849 l 321 849 l 321 538 z "},"Ř":{"ha":997,"x_min":104,"x_max":942,"o":"m 356 1104 l 204 1308 l 372 1308 l 468 1211 l 564 1308 l 732 1308 l 582 1104 l 356 1104 m 104 0 l 104 1024 l 751 1024 l 906 869 l 906 517 l 776 389 l 942 0 l 713 0 l 565 363 l 321 363 l 321 0 l 104 0 m 321 538 l 638 538 l 693 592 l 692 794 l 638 849 l 321 849 l 321 538 z "},"Ŗ":{"ha":997,"x_min":104,"x_max":942,"o":"m 104 0 l 104 1024 l 751 1024 l 906 869 l 906 517 l 776 389 l 942 0 l 713 0 l 565 363 l 321 363 l 321 0 l 104 0 m 321 538 l 638 538 l 693 592 l 692 794 l 638 849 l 321 849 l 321 538 m 342 -333 l 403 -79 l 604 -79 l 461 -333 l 342 -333 z "},"Ȑ":{"ha":997,"x_min":53,"x_max":942,"o":"m 254 1104 l 53 1319 l 268 1319 l 411 1104 l 254 1104 m 533 1104 l 333 1319 l 549 1319 l 692 1104 l 533 1104 m 104 0 l 104 1024 l 751 1024 l 906 869 l 906 517 l 776 389 l 942 0 l 713 0 l 565 363 l 321 363 l 321 0 l 104 0 m 321 538 l 638 538 l 693 592 l 692 794 l 638 849 l 321 849 l 321 538 z "},"Ȓ":{"ha":997,"x_min":104,"x_max":942,"o":"m 229 1104 l 229 1206 l 336 1308 l 600 1308 l 707 1206 l 707 1104 l 560 1104 l 560 1167 l 536 1189 l 401 1189 l 376 1167 l 376 1104 l 229 1104 m 104 0 l 104 1024 l 751 1024 l 906 869 l 906 517 l 776 389 l 942 0 l 713 0 l 565 363 l 321 363 l 321 0 l 104 0 m 321 538 l 638 538 l 693 592 l 692 794 l 638 849 l 321 849 l 321 538 z "},"S":{"ha":967,"x_min":69,"x_max":897,"o":"m 107 0 l 107 183 l 628 183 l 682 239 l 682 382 l 628 438 l 224 436 l 69 592 l 69 869 l 224 1024 l 842 1024 l 842 840 l 339 840 l 285 785 l 285 672 l 339 617 l 743 617 l 897 463 l 897 154 l 743 0 l 107 0 z "},"Ś":{"ha":967,"x_min":69,"x_max":897,"o":"m 401 1104 l 544 1319 l 768 1319 l 567 1104 l 401 1104 m 107 0 l 107 183 l 628 183 l 682 239 l 682 382 l 628 438 l 224 436 l 69 592 l 69 869 l 224 1024 l 842 1024 l 842 840 l 339 840 l 285 785 l 285 672 l 339 617 l 743 617 l 897 463 l 897 154 l 743 0 l 107 0 z "},"Š":{"ha":967,"x_min":69,"x_max":897,"o":"m 367 1104 l 215 1308 l 383 1308 l 479 1211 l 575 1308 l 743 1308 l 593 1104 l 367 1104 m 107 0 l 107 183 l 628 183 l 682 239 l 682 382 l 628 438 l 224 436 l 69 592 l 69 869 l 224 1024 l 842 1024 l 842 840 l 339 840 l 285 785 l 285 672 l 339 617 l 743 617 l 897 463 l 897 154 l 743 0 l 107 0 z "},"Ş":{"ha":967,"x_min":69,"x_max":897,"o":"m 367 -174 l 394 0 l 107 0 l 107 183 l 628 183 l 682 239 l 682 382 l 628 438 l 224 436 l 69 592 l 69 869 l 224 1024 l 842 1024 l 842 840 l 339 840 l 285 785 l 285 672 l 339 617 l 743 617 l 897 463 l 897 154 l 743 0 l 572 0 l 510 -174 l 367 -174 z "},"Ŝ":{"ha":967,"x_min":69,"x_max":897,"o":"m 215 1104 l 367 1308 l 593 1308 l 743 1104 l 575 1104 l 479 1201 l 383 1104 l 215 1104 m 107 0 l 107 183 l 628 183 l 682 239 l 682 382 l 628 438 l 224 436 l 69 592 l 69 869 l 224 1024 l 842 1024 l 842 840 l 339 840 l 285 785 l 285 672 l 339 617 l 743 617 l 897 463 l 897 154 l 743 0 l 107 0 z "},"Ș":{"ha":967,"x_min":69,"x_max":897,"o":"m 107 0 l 107 183 l 628 183 l 682 239 l 682 382 l 628 438 l 224 436 l 69 592 l 69 869 l 224 1024 l 842 1024 l 842 840 l 339 840 l 285 785 l 285 672 l 339 617 l 743 617 l 897 463 l 897 154 l 743 0 l 107 0 m 314 -333 l 375 -79 l 576 -79 l 435 -333 l 314 -333 z "},"ẞ":{"ha":997,"x_min":104,"x_max":925,"o":"m 104 0 l 104 878 l 254 1024 l 674 1024 l 824 878 l 824 743 l 697 604 l 743 604 l 925 431 l 925 146 l 775 0 l 407 0 l 407 168 l 638 168 l 693 224 l 693 389 l 631 451 l 431 451 l 431 590 l 614 794 l 553 857 l 389 856 l 333 801 l 333 0 l 104 0 z "},"Ə":{"ha":1058,"x_min":76,"x_max":982,"o":"m 231 0 l 76 154 l 76 610 l 764 610 l 764 786 l 708 842 l 92 840 l 92 1024 l 826 1024 l 982 869 l 982 154 l 826 0 l 231 0 m 349 182 l 708 183 l 764 238 l 764 438 l 293 438 l 293 238 l 349 182 z "},"T":{"ha":815,"x_min":14,"x_max":801,"o":"m 299 0 l 299 839 l 14 839 l 14 1024 l 801 1024 l 801 839 l 515 839 l 515 0 l 299 0 z "},"Ŧ":{"ha":815,"x_min":14,"x_max":801,"o":"m 299 0 l 299 419 l 81 419 l 81 564 l 299 564 l 299 839 l 14 839 l 14 1024 l 801 1024 l 801 839 l 515 839 l 515 564 l 735 564 l 735 419 l 515 419 l 515 0 l 299 0 z "},"Ť":{"ha":815,"x_min":14,"x_max":801,"o":"m 293 1104 l 143 1308 l 311 1308 l 407 1211 l 501 1308 l 671 1308 l 519 1104 l 293 1104 m 299 0 l 299 839 l 14 839 l 14 1024 l 801 1024 l 801 839 l 515 839 l 515 0 l 299 0 z "},"Ţ":{"ha":815,"x_min":14,"x_max":801,"o":"m 311 -174 l 339 0 l 299 0 l 299 839 l 14 839 l 14 1024 l 801 1024 l 801 839 l 515 839 l 515 0 l 454 -174 l 311 -174 z "},"Ț":{"ha":815,"x_min":14,"x_max":801,"o":"m 299 0 l 299 839 l 14 839 l 14 1024 l 801 1024 l 801 839 l 515 839 l 515 0 l 299 0 m 244 -333 l 306 -79 l 508 -79 l 365 -333 l 244 -333 z "},"U":{"ha":1035,"x_min":90,"x_max":944,"o":"m 243 0 l 90 154 l 90 1024 l 307 1024 l 307 231 l 363 175 l 672 175 l 728 229 l 728 1024 l 944 1024 l 944 154 l 790 0 l 243 0 z "},"Ú":{"ha":1035,"x_min":90,"x_max":944,"o":"m 440 1104 l 583 1319 l 806 1319 l 606 1104 l 440 1104 m 243 0 l 90 154 l 90 1024 l 307 1024 l 307 231 l 363 175 l 672 175 l 728 229 l 728 1024 l 944 1024 l 944 154 l 790 0 l 243 0 z "},"Ŭ":{"ha":1035,"x_min":90,"x_max":944,"o":"m 386 1104 l 278 1206 l 278 1308 l 426 1308 l 426 1247 l 450 1224 l 585 1224 l 608 1247 l 608 1308 l 757 1308 l 757 1206 l 649 1104 l 386 1104 m 243 0 l 90 154 l 90 1024 l 307 1024 l 307 231 l 363 175 l 672 175 l 728 229 l 728 1024 l 944 1024 l 944 154 l 790 0 l 243 0 z "},"Û":{"ha":1035,"x_min":90,"x_max":944,"o":"m 253 1104 l 404 1308 l 631 1308 l 782 1104 l 613 1104 l 518 1201 l 421 1104 l 253 1104 m 243 0 l 90 154 l 90 1024 l 307 1024 l 307 231 l 363 175 l 672 175 l 728 229 l 728 1024 l 944 1024 l 944 154 l 790 0 l 243 0 z "},"Ȕ":{"ha":1035,"x_min":90,"x_max":944,"o":"m 303 1104 l 103 1319 l 317 1319 l 461 1104 l 303 1104 m 583 1104 l 382 1319 l 597 1319 l 740 1104 l 583 1104 m 243 0 l 90 154 l 90 1024 l 307 1024 l 307 231 l 363 175 l 672 175 l 728 229 l 728 1024 l 944 1024 l 944 154 l 790 0 l 243 0 z "},"Ü":{"ha":1035,"x_min":90,"x_max":944,"o":"m 224 1104 l 224 1288 l 429 1288 l 429 1104 l 224 1104 m 606 1104 l 606 1288 l 811 1288 l 811 1104 l 606 1104 m 243 0 l 90 154 l 90 1024 l 307 1024 l 307 231 l 363 175 l 672 175 l 728 229 l 728 1024 l 944 1024 l 944 154 l 790 0 l 243 0 z "},"Ụ":{"ha":1035,"x_min":90,"x_max":944,"o":"m 243 0 l 90 154 l 90 1024 l 307 1024 l 307 231 l 363 175 l 672 175 l 728 229 l 728 1024 l 944 1024 l 944 154 l 790 0 l 243 0 m 410 -264 l 410 -79 l 624 -79 l 624 -264 l 410 -264 z "},"Ù":{"ha":1035,"x_min":90,"x_max":944,"o":"m 428 1104 l 228 1319 l 450 1319 l 593 1104 l 428 1104 m 243 0 l 90 154 l 90 1024 l 307 1024 l 307 231 l 363 175 l 672 175 l 728 229 l 728 1024 l 944 1024 l 944 154 l 790 0 l 243 0 z "},"Ủ":{"ha":1035,"x_min":90,"x_max":944,"o":"m 443 1104 l 443 1210 l 540 1278 l 540 1315 l 492 1315 l 492 1281 l 350 1281 l 350 1350 l 414 1413 l 624 1413 l 689 1351 l 689 1226 l 588 1160 l 588 1104 l 443 1104 m 243 0 l 90 154 l 90 1024 l 307 1024 l 307 231 l 363 175 l 672 175 l 728 229 l 728 1024 l 944 1024 l 944 154 l 790 0 l 243 0 z "},"Ư":{"ha":1035,"x_min":90,"x_max":1267,"o":"m 243 0 l 90 154 l 90 1024 l 307 1024 l 307 231 l 363 175 l 672 175 l 728 229 l 728 1024 l 944 1024 l 944 950 l 1029 950 l 1053 1114 l 1267 1114 l 1143 835 l 944 835 l 944 154 l 790 0 l 243 0 z "},"Ứ":{"ha":1035,"x_min":90,"x_max":1267,"o":"m 440 1104 l 583 1319 l 806 1319 l 606 1104 l 440 1104 m 243 0 l 90 154 l 90 1024 l 307 1024 l 307 231 l 363 175 l 672 175 l 728 229 l 728 1024 l 944 1024 l 944 950 l 1029 950 l 1053 1114 l 1267 1114 l 1143 835 l 944 835 l 944 154 l 790 0 l 243 0 z "},"Ự":{"ha":1035,"x_min":90,"x_max":1267,"o":"m 243 0 l 90 154 l 90 1024 l 307 1024 l 307 231 l 363 175 l 672 175 l 728 229 l 728 1024 l 944 1024 l 944 950 l 1029 950 l 1053 1114 l 1267 1114 l 1143 835 l 944 835 l 944 154 l 790 0 l 243 0 m 410 -264 l 410 -79 l 624 -79 l 624 -264 l 410 -264 z "},"Ừ":{"ha":1035,"x_min":90,"x_max":1267,"o":"m 428 1104 l 228 1319 l 450 1319 l 593 1104 l 428 1104 m 243 0 l 90 154 l 90 1024 l 307 1024 l 307 231 l 363 175 l 672 175 l 728 229 l 728 1024 l 944 1024 l 944 950 l 1029 950 l 1053 1114 l 1267 1114 l 1143 835 l 944 835 l 944 154 l 790 0 l 243 0 z "},"Ử":{"ha":1035,"x_min":90,"x_max":1267,"o":"m 443 1104 l 443 1210 l 540 1278 l 540 1315 l 492 1315 l 492 1281 l 350 1281 l 350 1350 l 414 1413 l 624 1413 l 689 1351 l 689 1226 l 588 1160 l 588 1104 l 443 1104 m 243 0 l 90 154 l 90 1024 l 307 1024 l 307 231 l 363 175 l 672 175 l 728 229 l 728 1024 l 944 1024 l 944 950 l 1029 950 l 1053 1114 l 1267 1114 l 1143 835 l 944 835 l 944 154 l 790 0 l 243 0 z "},"Ữ":{"ha":1035,"x_min":90,"x_max":1267,"o":"m 517 1104 l 436 1193 l 401 1193 l 367 1146 l 367 1111 l 231 1111 l 232 1217 l 325 1311 l 528 1311 l 608 1225 l 643 1225 l 678 1268 l 678 1304 l 814 1304 l 813 1200 l 719 1104 l 517 1104 m 243 0 l 90 154 l 90 1024 l 307 1024 l 307 231 l 363 175 l 672 175 l 728 229 l 728 1024 l 944 1024 l 944 950 l 1029 950 l 1053 1114 l 1267 1114 l 1143 835 l 944 835 l 944 154 l 790 0 l 243 0 z "},"Ű":{"ha":1035,"x_min":90,"x_max":950,"o":"m 311 1104 l 456 1319 l 669 1319 l 469 1104 l 311 1104 m 592 1104 l 735 1319 l 950 1319 l 750 1104 l 592 1104 m 243 0 l 90 154 l 90 1024 l 307 1024 l 307 231 l 363 175 l 672 175 l 728 229 l 728 1024 l 944 1024 l 944 154 l 790 0 l 243 0 z "},"Ȗ":{"ha":1035,"x_min":90,"x_max":944,"o":"m 278 1104 l 278 1206 l 386 1308 l 649 1308 l 757 1206 l 757 1104 l 608 1104 l 608 1167 l 585 1189 l 450 1189 l 426 1167 l 426 1104 l 278 1104 m 243 0 l 90 154 l 90 1024 l 307 1024 l 307 231 l 363 175 l 672 175 l 728 229 l 728 1024 l 944 1024 l 944 154 l 790 0 l 243 0 z "},"Ū":{"ha":1035,"x_min":90,"x_max":944,"o":"m 224 1104 l 224 1249 l 811 1249 l 811 1104 l 224 1104 m 243 0 l 90 154 l 90 1024 l 307 1024 l 307 231 l 363 175 l 672 175 l 728 229 l 728 1024 l 944 1024 l 944 154 l 790 0 l 243 0 z "},"Ų":{"ha":1035,"x_min":90,"x_max":944,"o":"m 528 -244 l 433 -154 l 433 -46 l 496 0 l 243 0 l 90 154 l 90 1024 l 307 1024 l 307 231 l 363 175 l 672 175 l 728 229 l 728 1024 l 944 1024 l 944 154 l 790 0 l 618 0 l 557 -50 l 557 -90 l 585 -117 l 626 -117 l 626 -244 l 528 -244 z "},"Ů":{"ha":1035,"x_min":90,"x_max":944,"o":"m 439 1104 l 342 1200 l 342 1310 l 439 1407 l 596 1407 l 693 1310 l 693 1200 l 596 1104 l 439 1104 m 499 1204 l 536 1204 l 568 1236 l 568 1274 l 536 1306 l 499 1306 l 467 1274 l 467 1236 l 499 1204 m 243 0 l 90 154 l 90 1024 l 307 1024 l 307 231 l 363 175 l 672 175 l 728 229 l 728 1024 l 944 1024 l 944 154 l 790 0 l 243 0 z "},"Ũ":{"ha":1035,"x_min":90,"x_max":944,"o":"m 517 1104 l 436 1193 l 401 1193 l 367 1146 l 367 1111 l 231 1111 l 232 1217 l 325 1311 l 528 1311 l 608 1225 l 643 1225 l 678 1268 l 678 1304 l 814 1304 l 813 1200 l 719 1104 l 517 1104 m 243 0 l 90 154 l 90 1024 l 307 1024 l 307 231 l 363 175 l 672 175 l 728 229 l 728 1024 l 944 1024 l 944 154 l 790 0 l 243 0 z "},"V":{"ha":968,"x_min":7,"x_max":961,"o":"m 304 0 l 7 1024 l 249 1024 l 464 181 l 506 181 l 721 1024 l 961 1024 l 664 0 l 304 0 z "},"W":{"ha":1339,"x_min":7,"x_max":1332,"o":"m 233 0 l 7 1024 l 249 1024 l 385 181 l 426 181 l 564 1024 l 775 1024 l 913 181 l 953 181 l 1090 1024 l 1332 1024 l 1106 0 l 768 0 l 669 560 l 571 0 l 233 0 z "},"Ẃ":{"ha":1339,"x_min":7,"x_max":1332,"o":"m 592 1104 l 735 1319 l 957 1319 l 757 1104 l 592 1104 m 233 0 l 7 1024 l 249 1024 l 385 181 l 426 181 l 564 1024 l 775 1024 l 913 181 l 953 181 l 1090 1024 l 1332 1024 l 1106 0 l 768 0 l 669 560 l 571 0 l 233 0 z "},"Ŵ":{"ha":1339,"x_min":7,"x_max":1332,"o":"m 406 1104 l 557 1308 l 782 1308 l 933 1104 l 764 1104 l 669 1201 l 574 1104 l 406 1104 m 233 0 l 7 1024 l 249 1024 l 385 181 l 426 181 l 564 1024 l 775 1024 l 913 181 l 953 181 l 1090 1024 l 1332 1024 l 1106 0 l 768 0 l 669 560 l 571 0 l 233 0 z "},"Ẅ":{"ha":1339,"x_min":7,"x_max":1332,"o":"m 375 1104 l 375 1288 l 581 1288 l 581 1104 l 375 1104 m 757 1104 l 757 1288 l 963 1288 l 963 1104 l 757 1104 m 233 0 l 7 1024 l 249 1024 l 385 181 l 426 181 l 564 1024 l 775 1024 l 913 181 l 953 181 l 1090 1024 l 1332 1024 l 1106 0 l 768 0 l 669 560 l 571 0 l 233 0 z "},"Ẁ":{"ha":1339,"x_min":7,"x_max":1332,"o":"m 579 1104 l 379 1319 l 601 1319 l 744 1104 l 579 1104 m 233 0 l 7 1024 l 249 1024 l 385 181 l 426 181 l 564 1024 l 775 1024 l 913 181 l 953 181 l 1090 1024 l 1332 1024 l 1106 0 l 768 0 l 669 560 l 571 0 l 233 0 z "},"X":{"ha":949,"x_min":7,"x_max":942,"o":"m 7 0 l 279 533 l 10 1024 l 258 1024 l 454 633 l 496 633 l 692 1024 l 940 1024 l 671 533 l 942 0 l 692 0 l 496 417 l 454 417 l 257 0 l 7 0 z "},"Y":{"ha":929,"x_min":7,"x_max":922,"o":"m 357 0 l 357 367 l 306 411 l 7 1024 l 256 1024 l 444 564 l 486 564 l 674 1024 l 922 1024 l 624 411 l 572 367 l 572 0 l 357 0 z "},"Ý":{"ha":929,"x_min":7,"x_max":922,"o":"m 388 1104 l 531 1319 l 753 1319 l 553 1104 l 388 1104 m 357 0 l 357 367 l 306 411 l 7 1024 l 256 1024 l 444 564 l 486 564 l 674 1024 l 922 1024 l 624 411 l 572 367 l 572 0 l 357 0 z "},"Ŷ":{"ha":929,"x_min":7,"x_max":922,"o":"m 200 1104 l 351 1308 l 578 1308 l 729 1104 l 560 1104 l 465 1201 l 369 1104 l 200 1104 m 357 0 l 357 367 l 306 411 l 7 1024 l 256 1024 l 444 564 l 486 564 l 674 1024 l 922 1024 l 624 411 l 572 367 l 572 0 l 357 0 z "},"Ÿ":{"ha":929,"x_min":7,"x_max":922,"o":"m 171 1104 l 171 1288 l 376 1288 l 376 1104 l 171 1104 m 553 1104 l 553 1288 l 758 1288 l 758 1104 l 553 1104 m 357 0 l 357 367 l 306 411 l 7 1024 l 256 1024 l 444 564 l 486 564 l 674 1024 l 922 1024 l 624 411 l 572 367 l 572 0 l 357 0 z "},"Ỵ":{"ha":929,"x_min":7,"x_max":922,"o":"m 357 0 l 357 367 l 306 411 l 7 1024 l 256 1024 l 444 564 l 486 564 l 674 1024 l 922 1024 l 624 411 l 572 367 l 572 0 l 357 0 m 358 -264 l 358 -79 l 572 -79 l 572 -264 l 358 -264 z "},"Ỳ":{"ha":929,"x_min":7,"x_max":922,"o":"m 375 1104 l 175 1319 l 397 1319 l 540 1104 l 375 1104 m 357 0 l 357 367 l 306 411 l 7 1024 l 256 1024 l 444 564 l 486 564 l 674 1024 l 922 1024 l 624 411 l 572 367 l 572 0 l 357 0 z "},"Ỷ":{"ha":929,"x_min":7,"x_max":922,"o":"m 390 1104 l 390 1210 l 488 1278 l 488 1315 l 439 1315 l 439 1281 l 297 1281 l 297 1350 l 363 1413 l 571 1413 l 636 1351 l 636 1226 l 535 1160 l 535 1104 l 390 1104 m 357 0 l 357 367 l 306 411 l 7 1024 l 256 1024 l 444 564 l 486 564 l 674 1024 l 922 1024 l 624 411 l 572 367 l 572 0 l 357 0 z "},"Ȳ":{"ha":929,"x_min":7,"x_max":922,"o":"m 171 1104 l 171 1249 l 758 1249 l 758 1104 l 171 1104 m 357 0 l 357 367 l 306 411 l 7 1024 l 256 1024 l 444 564 l 486 564 l 674 1024 l 922 1024 l 624 411 l 572 367 l 572 0 l 357 0 z "},"Ỹ":{"ha":929,"x_min":7,"x_max":922,"o":"m 464 1104 l 383 1193 l 349 1193 l 314 1146 l 314 1111 l 178 1111 l 179 1217 l 272 1311 l 475 1311 l 556 1225 l 590 1225 l 625 1268 l 625 1304 l 761 1304 l 760 1200 l 667 1104 l 464 1104 m 357 0 l 357 367 l 306 411 l 7 1024 l 256 1024 l 444 564 l 486 564 l 674 1024 l 922 1024 l 624 411 l 572 367 l 572 0 l 357 0 z "},"Z":{"ha":929,"x_min":74,"x_max":857,"o":"m 74 0 l 74 189 l 568 797 l 568 839 l 106 839 l 106 1024 l 857 1024 l 857 835 l 364 226 l 364 185 l 857 185 l 857 0 l 74 0 z "},"Ź":{"ha":929,"x_min":74,"x_max":857,"o":"m 413 1104 l 557 1319 l 779 1319 l 579 1104 l 413 1104 m 74 0 l 74 189 l 568 797 l 568 839 l 106 839 l 106 1024 l 857 1024 l 857 835 l 364 226 l 364 185 l 857 185 l 857 0 l 74 0 z "},"Ž":{"ha":929,"x_min":74,"x_max":857,"o":"m 378 1104 l 226 1308 l 394 1308 l 490 1211 l 586 1308 l 754 1308 l 604 1104 l 378 1104 m 74 0 l 74 189 l 568 797 l 568 839 l 106 839 l 106 1024 l 857 1024 l 857 835 l 364 226 l 364 185 l 857 185 l 857 0 l 74 0 z "},"Ż":{"ha":929,"x_min":74,"x_max":857,"o":"m 383 1104 l 383 1288 l 597 1288 l 597 1104 l 383 1104 m 74 0 l 74 189 l 568 797 l 568 839 l 106 839 l 106 1024 l 857 1024 l 857 835 l 364 226 l 364 185 l 857 185 l 857 0 l 74 0 z "},"a":{"ha":853,"x_min":49,"x_max":765,"o":"m 203 0 l 49 154 l 49 310 l 203 464 l 551 464 l 551 519 l 496 575 l 140 575 l 140 725 l 611 725 l 765 571 l 765 0 l 551 0 l 551 103 l 450 0 l 203 0 m 317 136 l 419 136 l 551 268 l 551 335 l 317 335 l 261 281 l 263 190 l 317 136 z "},"á":{"ha":853,"x_min":49,"x_max":765,"o":"m 338 806 l 481 1021 l 703 1021 l 503 806 l 338 806 m 203 0 l 49 154 l 49 310 l 203 464 l 551 464 l 551 519 l 496 575 l 140 575 l 140 725 l 611 725 l 765 571 l 765 0 l 551 0 l 551 103 l 450 0 l 203 0 m 317 136 l 419 136 l 551 268 l 551 335 l 317 335 l 261 281 l 263 190 l 317 136 z "},"ă":{"ha":853,"x_min":49,"x_max":765,"o":"m 283 806 l 176 908 l 176 1010 l 324 1010 l 324 949 l 347 925 l 482 925 l 507 949 l 507 1010 l 654 1010 l 654 908 l 546 806 l 283 806 m 203 0 l 49 154 l 49 310 l 203 464 l 551 464 l 551 519 l 496 575 l 140 575 l 140 725 l 611 725 l 765 571 l 765 0 l 551 0 l 551 103 l 450 0 l 203 0 m 317 136 l 419 136 l 551 268 l 551 335 l 317 335 l 261 281 l 263 190 l 317 136 z "},"ắ":{"ha":853,"x_min":49,"x_max":765,"o":"m 331 1054 l 474 1269 l 697 1269 l 496 1054 l 331 1054 m 283 806 l 176 908 l 176 1010 l 324 1010 l 324 949 l 347 925 l 482 925 l 507 949 l 507 1010 l 654 1010 l 654 908 l 546 806 l 283 806 m 203 0 l 49 154 l 49 310 l 203 464 l 551 464 l 551 519 l 496 575 l 140 575 l 140 725 l 611 725 l 765 571 l 765 0 l 551 0 l 551 103 l 450 0 l 203 0 m 317 136 l 419 136 l 551 268 l 551 335 l 317 335 l 261 281 l 263 190 l 317 136 z "},"ặ":{"ha":853,"x_min":49,"x_max":765,"o":"m 283 806 l 176 908 l 176 1010 l 324 1010 l 324 949 l 347 925 l 482 925 l 507 949 l 507 1010 l 654 1010 l 654 908 l 546 806 l 283 806 m 203 0 l 49 154 l 49 310 l 203 464 l 551 464 l 551 519 l 496 575 l 140 575 l 140 725 l 611 725 l 765 571 l 765 0 l 551 0 l 551 103 l 450 0 l 203 0 m 317 136 l 419 136 l 551 268 l 551 335 l 317 335 l 261 281 l 263 190 l 317 136 m 310 -264 l 310 -79 l 524 -79 l 524 -264 l 310 -264 z "},"ằ":{"ha":853,"x_min":49,"x_max":765,"o":"m 325 1054 l 125 1269 l 347 1269 l 490 1054 l 325 1054 m 283 806 l 176 908 l 176 1010 l 324 1010 l 324 949 l 347 925 l 482 925 l 507 949 l 507 1010 l 654 1010 l 654 908 l 546 806 l 283 806 m 203 0 l 49 154 l 49 310 l 203 464 l 551 464 l 551 519 l 496 575 l 140 575 l 140 725 l 611 725 l 765 571 l 765 0 l 551 0 l 551 103 l 450 0 l 203 0 m 317 136 l 419 136 l 551 268 l 551 335 l 317 335 l 261 281 l 263 190 l 317 136 z "},"ẳ":{"ha":853,"x_min":49,"x_max":765,"o":"m 332 1054 l 332 1160 l 429 1228 l 429 1265 l 381 1265 l 381 1231 l 239 1231 l 239 1300 l 303 1363 l 513 1363 l 576 1300 l 576 1176 l 476 1110 l 476 1054 l 332 1054 m 283 806 l 176 908 l 176 1010 l 324 1010 l 324 949 l 347 925 l 482 925 l 507 949 l 507 1010 l 654 1010 l 654 908 l 546 806 l 283 806 m 203 0 l 49 154 l 49 310 l 203 464 l 551 464 l 551 519 l 496 575 l 140 575 l 140 725 l 611 725 l 765 571 l 765 0 l 551 0 l 551 103 l 450 0 l 203 0 m 317 136 l 419 136 l 551 268 l 551 335 l 317 335 l 261 281 l 263 190 l 317 136 z "},"ẵ":{"ha":853,"x_min":49,"x_max":765,"o":"m 417 1054 l 335 1143 l 300 1143 l 265 1096 l 265 1061 l 129 1061 l 132 1167 l 224 1261 l 426 1261 l 507 1174 l 543 1174 l 576 1218 l 576 1254 l 713 1254 l 711 1150 l 618 1054 l 417 1054 m 283 806 l 176 908 l 176 1010 l 324 1010 l 324 949 l 347 925 l 482 925 l 507 949 l 507 1010 l 654 1010 l 654 908 l 546 806 l 283 806 m 203 0 l 49 154 l 49 310 l 203 464 l 551 464 l 551 519 l 496 575 l 140 575 l 140 725 l 611 725 l 765 571 l 765 0 l 551 0 l 551 103 l 450 0 l 203 0 m 317 136 l 419 136 l 551 268 l 551 335 l 317 335 l 261 281 l 263 190 l 317 136 z "},"â":{"ha":853,"x_min":49,"x_max":765,"o":"m 151 806 l 301 1010 l 528 1010 l 679 806 l 510 806 l 415 903 l 319 806 l 151 806 m 203 0 l 49 154 l 49 310 l 203 464 l 551 464 l 551 519 l 496 575 l 140 575 l 140 725 l 611 725 l 765 571 l 765 0 l 551 0 l 551 103 l 450 0 l 203 0 m 317 136 l 419 136 l 551 268 l 551 335 l 317 335 l 261 281 l 263 190 l 317 136 z "},"ấ":{"ha":853,"x_min":49,"x_max":1024,"o":"m 657 919 l 800 1135 l 1024 1135 l 822 919 l 657 919 m 151 806 l 301 1010 l 528 1010 l 679 806 l 511 806 l 415 903 l 319 806 l 151 806 m 203 0 l 49 154 l 49 310 l 203 464 l 551 464 l 551 519 l 496 575 l 140 575 l 140 725 l 611 725 l 765 571 l 765 0 l 551 0 l 551 103 l 450 0 l 203 0 m 317 136 l 419 136 l 551 268 l 551 335 l 317 335 l 261 281 l 263 190 l 317 136 z "},"ậ":{"ha":853,"x_min":49,"x_max":765,"o":"m 151 806 l 301 1010 l 528 1010 l 679 806 l 510 806 l 415 903 l 319 806 l 151 806 m 203 0 l 49 154 l 49 310 l 203 464 l 551 464 l 551 519 l 496 575 l 140 575 l 140 725 l 611 725 l 765 571 l 765 0 l 551 0 l 551 103 l 450 0 l 203 0 m 317 136 l 419 136 l 551 268 l 551 335 l 317 335 l 261 281 l 263 190 l 317 136 m 310 -264 l 310 -79 l 524 -79 l 524 -264 l 310 -264 z "},"ầ":{"ha":853,"x_min":-193,"x_max":765,"o":"m 7 919 l -193 1136 l 29 1136 l 172 919 l 7 919 m 151 806 l 301 1010 l 528 1010 l 679 806 l 510 806 l 415 903 l 319 806 l 151 806 m 203 0 l 49 154 l 49 310 l 203 464 l 551 464 l 551 519 l 496 575 l 140 575 l 140 725 l 611 725 l 765 571 l 765 0 l 551 0 l 551 103 l 450 0 l 203 0 m 317 136 l 419 136 l 551 268 l 551 335 l 317 335 l 261 281 l 263 190 l 317 136 z "},"ẩ":{"ha":853,"x_min":49,"x_max":879,"o":"m 635 919 l 635 1026 l 732 1093 l 732 1131 l 683 1131 l 683 1096 l 540 1096 l 540 1165 l 606 1229 l 814 1229 l 879 1167 l 879 1043 l 778 976 l 778 919 l 635 919 m 151 806 l 301 1010 l 528 1010 l 679 806 l 510 806 l 415 903 l 319 806 l 151 806 m 203 0 l 49 154 l 49 310 l 203 464 l 551 464 l 551 519 l 496 575 l 140 575 l 140 725 l 611 725 l 765 571 l 765 0 l 551 0 l 551 103 l 450 0 l 203 0 m 317 136 l 419 136 l 551 268 l 551 335 l 317 335 l 261 281 l 263 190 l 317 136 z "},"ẫ":{"ha":853,"x_min":49,"x_max":765,"o":"m 417 1053 l 335 1143 l 300 1143 l 265 1096 l 265 1060 l 129 1060 l 132 1167 l 224 1261 l 426 1261 l 507 1174 l 543 1174 l 576 1217 l 576 1254 l 713 1254 l 711 1150 l 618 1053 l 417 1053 m 151 806 l 301 1010 l 528 1010 l 679 806 l 510 806 l 415 903 l 319 806 l 151 806 m 203 0 l 49 154 l 49 310 l 203 464 l 551 464 l 551 519 l 496 575 l 140 575 l 140 725 l 611 725 l 765 571 l 765 0 l 551 0 l 551 103 l 450 0 l 203 0 m 317 136 l 419 136 l 551 268 l 551 335 l 317 335 l 261 281 l 263 190 l 317 136 z "},"ȁ":{"ha":853,"x_min":0,"x_max":765,"o":"m 200 806 l 0 1021 l 215 1021 l 358 806 l 200 806 m 481 806 l 281 1021 l 496 1021 l 639 806 l 481 806 m 203 0 l 49 154 l 49 310 l 203 464 l 551 464 l 551 519 l 496 575 l 140 575 l 140 725 l 611 725 l 765 571 l 765 0 l 551 0 l 551 103 l 450 0 l 203 0 m 317 136 l 419 136 l 551 268 l 551 335 l 317 335 l 263 281 l 263 190 l 317 136 z "},"ä":{"ha":853,"x_min":49,"x_max":765,"o":"m 121 806 l 121 990 l 326 990 l 326 806 l 121 806 m 503 806 l 503 990 l 708 990 l 708 806 l 503 806 m 203 0 l 49 154 l 49 310 l 203 464 l 551 464 l 551 519 l 496 575 l 140 575 l 140 725 l 611 725 l 765 571 l 765 0 l 551 0 l 551 103 l 450 0 l 203 0 m 317 136 l 419 136 l 551 268 l 551 335 l 317 335 l 261 281 l 263 190 l 317 136 z "},"ạ":{"ha":853,"x_min":49,"x_max":765,"o":"m 203 0 l 49 154 l 49 310 l 203 464 l 551 464 l 551 519 l 496 575 l 140 575 l 140 725 l 611 725 l 765 571 l 765 0 l 551 0 l 551 103 l 450 0 l 203 0 m 317 136 l 419 136 l 551 268 l 551 335 l 317 335 l 261 281 l 263 190 l 317 136 m 310 -264 l 310 -79 l 524 -79 l 524 -264 l 310 -264 z "},"à":{"ha":853,"x_min":49,"x_max":765,"o":"m 325 806 l 125 1021 l 347 1021 l 490 806 l 325 806 m 203 0 l 49 154 l 49 310 l 203 464 l 551 464 l 551 519 l 496 575 l 140 575 l 140 725 l 611 725 l 765 571 l 765 0 l 551 0 l 551 103 l 450 0 l 203 0 m 317 136 l 419 136 l 551 268 l 551 335 l 317 335 l 261 281 l 263 190 l 317 136 z "},"ả":{"ha":853,"x_min":49,"x_max":765,"o":"m 340 806 l 340 913 l 438 979 l 438 1017 l 389 1017 l 389 982 l 247 982 l 247 1051 l 313 1115 l 521 1115 l 586 1053 l 586 929 l 485 863 l 485 806 l 340 806 m 203 0 l 49 154 l 49 310 l 203 464 l 551 464 l 551 519 l 496 575 l 140 575 l 140 725 l 611 725 l 765 571 l 765 0 l 551 0 l 551 103 l 450 0 l 203 0 m 317 136 l 419 136 l 551 268 l 551 335 l 317 335 l 261 281 l 263 190 l 317 136 z "},"ȃ":{"ha":853,"x_min":49,"x_max":765,"o":"m 176 806 l 176 908 l 283 1010 l 546 1010 l 654 908 l 654 806 l 507 806 l 507 868 l 482 892 l 347 892 l 324 868 l 324 806 l 176 806 m 203 0 l 49 154 l 49 310 l 203 464 l 551 464 l 551 519 l 496 575 l 140 575 l 140 725 l 611 725 l 765 571 l 765 0 l 551 0 l 551 103 l 450 0 l 203 0 m 317 136 l 419 136 l 551 268 l 551 335 l 317 335 l 261 281 l 263 190 l 317 136 z "},"ā":{"ha":853,"x_min":49,"x_max":765,"o":"m 121 806 l 121 950 l 708 950 l 708 806 l 121 806 m 203 0 l 49 154 l 49 310 l 203 464 l 551 464 l 551 519 l 496 575 l 140 575 l 140 725 l 611 725 l 765 571 l 765 0 l 551 0 l 551 103 l 450 0 l 203 0 m 317 136 l 419 136 l 551 268 l 551 335 l 317 335 l 261 281 l 263 190 l 317 136 z "},"ą":{"ha":853,"x_min":49,"x_max":765,"o":"m 583 -244 l 489 -154 l 489 -46 l 551 0 l 551 103 l 450 0 l 203 0 l 49 154 l 49 310 l 203 464 l 551 464 l 551 519 l 496 575 l 140 575 l 140 725 l 611 725 l 765 571 l 765 0 l 674 0 l 614 -50 l 614 -90 l 640 -117 l 682 -117 l 682 -244 l 583 -244 m 317 136 l 419 136 l 551 268 l 551 335 l 317 335 l 261 281 l 263 190 l 317 136 z "},"å":{"ha":853,"x_min":49,"x_max":765,"o":"m 336 806 l 240 901 l 240 1011 l 336 1108 l 493 1108 l 590 1011 l 590 901 l 493 806 l 336 806 m 397 906 l 433 906 l 467 939 l 467 975 l 433 1008 l 397 1008 l 364 975 l 364 939 l 397 906 m 203 0 l 49 154 l 49 310 l 203 464 l 551 464 l 551 519 l 496 575 l 140 575 l 140 725 l 611 725 l 765 571 l 765 0 l 551 0 l 551 103 l 450 0 l 203 0 m 317 136 l 419 136 l 551 268 l 551 335 l 317 335 l 261 281 l 263 190 l 317 136 z "},"ǻ":{"ha":853,"x_min":49,"x_max":765,"o":"m 329 1153 l 472 1368 l 696 1368 l 494 1153 l 329 1153 m 336 806 l 240 901 l 240 1011 l 336 1108 l 493 1108 l 590 1011 l 590 901 l 493 806 l 336 806 m 397 906 l 433 906 l 467 939 l 467 975 l 433 1008 l 397 1008 l 364 975 l 364 939 l 397 906 m 203 0 l 49 154 l 49 310 l 203 464 l 551 464 l 551 519 l 496 575 l 140 575 l 140 725 l 611 725 l 765 571 l 765 0 l 551 0 l 551 103 l 450 0 l 203 0 m 317 136 l 419 136 l 551 268 l 551 335 l 317 335 l 261 281 l 263 190 l 317 136 z "},"ã":{"ha":853,"x_min":49,"x_max":765,"o":"m 414 806 l 333 894 l 299 894 l 264 849 l 264 813 l 128 813 l 131 918 l 222 1013 l 425 1013 l 506 926 l 540 926 l 575 969 l 575 1007 l 711 1007 l 710 901 l 617 806 l 414 806 m 203 0 l 49 154 l 49 310 l 203 464 l 551 464 l 551 519 l 496 575 l 140 575 l 140 725 l 611 725 l 765 571 l 765 0 l 551 0 l 551 103 l 450 0 l 203 0 m 317 136 l 419 136 l 551 268 l 551 335 l 317 335 l 261 281 l 263 190 l 317 136 z "},"æ":{"ha":1307,"x_min":49,"x_max":1224,"o":"m 204 0 l 49 154 l 49 296 l 204 450 l 543 450 l 543 519 l 489 575 l 144 575 l 144 725 l 589 725 l 651 663 l 714 725 l 1069 725 l 1224 571 l 1224 318 l 757 318 l 757 311 l 758 208 l 813 153 l 1211 153 l 1211 0 l 704 0 l 575 128 l 449 0 l 204 0 m 757 450 l 1021 450 l 1021 542 l 965 596 l 813 596 l 757 542 l 757 450 m 310 136 l 411 136 l 543 268 l 543 317 l 310 317 l 254 263 l 254 190 l 310 136 z "},"ǽ":{"ha":1307,"x_min":49,"x_max":1224,"o":"m 574 806 l 717 1022 l 940 1022 l 739 806 l 574 806 m 204 0 l 49 154 l 49 296 l 204 450 l 543 450 l 543 519 l 489 575 l 144 575 l 144 725 l 589 725 l 651 663 l 714 725 l 1069 725 l 1224 571 l 1224 318 l 757 318 l 757 311 l 758 208 l 813 153 l 1211 153 l 1211 0 l 704 0 l 575 128 l 449 0 l 204 0 m 757 450 l 1021 450 l 1021 542 l 965 596 l 813 596 l 757 542 l 757 450 m 310 136 l 411 136 l 543 268 l 543 317 l 310 317 l 254 263 l 254 190 l 310 136 z "},"b":{"ha":911,"x_min":97,"x_max":832,"o":"m 97 0 l 97 1024 l 311 1024 l 311 628 l 417 726 l 676 726 l 832 571 l 832 154 l 676 0 l 417 0 l 311 97 l 311 0 l 97 0 m 447 139 l 574 139 l 621 188 l 621 538 l 574 588 l 446 586 l 311 460 l 311 267 l 447 139 z "},"c":{"ha":821,"x_min":81,"x_max":761,"o":"m 235 0 l 81 154 l 81 571 l 235 725 l 618 725 l 761 590 l 761 451 l 547 451 l 547 533 l 493 589 l 349 588 l 293 533 l 294 215 l 349 160 l 750 161 l 750 0 l 235 0 z "},"ć":{"ha":821,"x_min":81,"x_max":761,"o":"m 347 806 l 490 1021 l 713 1021 l 513 806 l 347 806 m 235 0 l 81 154 l 81 571 l 235 725 l 618 725 l 761 590 l 761 451 l 547 451 l 547 533 l 493 589 l 349 588 l 293 533 l 294 215 l 349 160 l 750 161 l 750 0 l 235 0 z "},"č":{"ha":821,"x_min":81,"x_max":761,"o":"m 311 806 l 160 1010 l 328 1010 l 425 913 l 519 1010 l 689 1010 l 538 806 l 311 806 m 235 0 l 81 154 l 81 571 l 235 725 l 618 725 l 761 590 l 761 451 l 547 451 l 547 533 l 493 589 l 349 588 l 293 533 l 294 215 l 349 160 l 750 161 l 750 0 l 235 0 z "},"ç":{"ha":821,"x_min":81,"x_max":761,"o":"m 333 -174 l 361 0 l 235 0 l 81 154 l 81 571 l 235 725 l 618 725 l 761 590 l 761 451 l 547 451 l 547 533 l 493 589 l 349 588 l 293 533 l 294 215 l 349 160 l 750 161 l 750 0 l 538 0 l 476 -174 l 333 -174 z "},"ĉ":{"ha":821,"x_min":81,"x_max":761,"o":"m 160 806 l 311 1010 l 538 1010 l 689 806 l 519 806 l 425 903 l 328 806 l 160 806 m 235 0 l 81 154 l 81 571 l 235 725 l 618 725 l 761 590 l 761 451 l 547 451 l 547 533 l 493 589 l 349 588 l 293 533 l 294 215 l 349 160 l 750 161 l 750 0 l 235 0 z "},"ċ":{"ha":821,"x_min":81,"x_max":761,"o":"m 318 806 l 318 990 l 532 990 l 532 806 l 318 806 m 235 0 l 81 154 l 81 571 l 235 725 l 618 725 l 761 590 l 761 451 l 547 451 l 547 533 l 493 589 l 349 588 l 293 533 l 294 215 l 349 160 l 750 161 l 750 0 l 235 0 z "},"d":{"ha":911,"x_min":81,"x_max":814,"o":"m 235 0 l 81 154 l 81 571 l 235 726 l 494 726 l 600 628 l 600 1024 l 814 1024 l 814 0 l 600 0 l 600 97 l 494 0 l 235 0 m 464 139 l 600 267 l 600 460 l 465 586 l 338 588 l 290 538 l 290 188 l 338 139 l 464 139 z "},"ð":{"ha":875,"x_min":81,"x_max":796,"o":"m 222 0 l 81 138 l 81 528 l 222 664 l 483 664 l 383 804 l 303 746 l 225 856 l 306 914 l 264 971 l 426 1083 l 465 1028 l 544 1085 l 624 976 l 544 919 l 796 569 l 796 138 l 653 0 l 222 0 m 349 129 l 528 129 l 582 185 l 582 481 l 528 535 l 349 535 l 293 481 l 294 185 l 349 129 z "},"ď":{"ha":911,"x_min":81,"x_max":1124,"o":"m 235 0 l 81 154 l 81 571 l 235 726 l 494 726 l 600 628 l 600 1024 l 814 1024 l 814 0 l 600 0 l 600 97 l 494 0 l 235 0 m 861 769 l 922 1024 l 1124 1024 l 981 769 l 861 769 m 464 139 l 600 267 l 600 460 l 465 586 l 338 588 l 290 538 l 290 188 l 338 139 l 464 139 z "},"đ":{"ha":907,"x_min":81,"x_max":889,"o":"m 235 0 l 81 154 l 81 571 l 235 726 l 494 726 l 600 628 l 600 775 l 419 775 l 419 926 l 600 926 l 600 1024 l 814 1024 l 814 926 l 889 926 l 889 775 l 814 775 l 814 0 l 600 0 l 600 97 l 494 0 l 235 0 m 464 139 l 600 267 l 600 460 l 465 586 l 338 588 l 290 538 l 290 188 l 338 139 l 464 139 z "},"ǆ":{"ha":1746,"x_min":81,"x_max":1669,"o":"m 235 0 l 81 154 l 81 571 l 235 726 l 494 726 l 600 628 l 600 1024 l 814 1024 l 814 0 l 600 0 l 600 97 l 494 0 l 235 0 m 1225 806 l 1074 1010 l 1242 1010 l 1338 913 l 1432 1010 l 1601 1010 l 1450 806 l 1225 806 m 1001 0 l 1001 164 l 1381 568 l 1031 568 l 1031 725 l 1658 725 l 1658 560 l 1281 158 l 1669 158 l 1669 0 l 1001 0 m 464 139 l 600 267 l 600 460 l 465 586 l 338 588 l 290 538 l 290 188 l 338 139 l 464 139 z "},"e":{"ha":843,"x_min":81,"x_max":760,"o":"m 235 0 l 81 154 l 81 571 l 235 725 l 604 725 l 760 571 l 760 299 l 294 299 l 294 215 l 350 160 l 747 161 l 747 0 l 235 0 m 293 439 l 557 439 l 557 533 l 501 589 l 350 588 l 293 533 l 293 439 z "},"é":{"ha":843,"x_min":81,"x_max":760,"o":"m 342 806 l 485 1021 l 708 1021 l 507 806 l 342 806 m 235 0 l 81 154 l 81 571 l 235 725 l 604 725 l 760 571 l 760 299 l 294 299 l 294 215 l 350 160 l 747 161 l 747 0 l 235 0 m 293 439 l 557 439 l 557 533 l 501 589 l 350 588 l 293 533 l 293 439 z "},"ĕ":{"ha":843,"x_min":81,"x_max":760,"o":"m 288 806 l 181 908 l 181 1010 l 328 1010 l 328 949 l 353 925 l 488 925 l 511 949 l 511 1010 l 658 1010 l 658 908 l 550 806 l 288 806 m 235 0 l 81 154 l 81 571 l 235 725 l 604 725 l 760 571 l 760 299 l 294 299 l 294 215 l 350 160 l 747 161 l 747 0 l 235 0 m 293 439 l 557 439 l 557 533 l 501 589 l 350 588 l 293 533 l 293 439 z "},"ě":{"ha":843,"x_min":81,"x_max":760,"o":"m 307 806 l 156 1010 l 324 1010 l 419 913 l 515 1010 l 683 1010 l 532 806 l 307 806 m 235 0 l 81 154 l 81 571 l 235 725 l 604 725 l 760 571 l 760 299 l 294 299 l 294 215 l 350 160 l 747 161 l 747 0 l 235 0 m 293 439 l 557 439 l 557 533 l 501 589 l 350 588 l 293 533 l 293 439 z "},"ê":{"ha":843,"x_min":81,"x_max":760,"o":"m 156 806 l 307 1010 l 532 1010 l 683 806 l 515 806 l 419 903 l 324 806 l 156 806 m 235 0 l 81 154 l 81 571 l 235 725 l 604 725 l 760 571 l 760 299 l 294 299 l 294 215 l 350 160 l 747 161 l 747 0 l 235 0 m 293 439 l 557 439 l 557 533 l 501 589 l 350 588 l 293 533 l 293 439 z "},"ế":{"ha":843,"x_min":81,"x_max":1028,"o":"m 661 919 l 806 1136 l 1028 1136 l 828 919 l 661 919 m 156 806 l 307 1010 l 532 1010 l 683 806 l 515 806 l 419 903 l 324 806 l 156 806 m 235 0 l 81 154 l 81 571 l 235 725 l 604 725 l 760 571 l 760 299 l 294 299 l 294 215 l 350 160 l 747 161 l 747 0 l 235 0 m 293 439 l 557 439 l 557 533 l 501 589 l 350 588 l 293 533 l 293 439 z "},"ệ":{"ha":843,"x_min":81,"x_max":760,"o":"m 156 806 l 307 1010 l 532 1010 l 683 806 l 515 806 l 419 903 l 324 806 l 156 806 m 235 0 l 81 154 l 81 571 l 235 725 l 604 725 l 760 571 l 760 299 l 294 299 l 294 215 l 350 160 l 747 161 l 747 0 l 235 0 m 293 439 l 557 439 l 557 533 l 501 589 l 350 588 l 293 533 l 293 439 m 336 -264 l 336 -79 l 550 -79 l 550 -264 l 336 -264 z "},"ề":{"ha":843,"x_min":-189,"x_max":760,"o":"m 13 919 l -189 1136 l 35 1136 l 178 919 l 13 919 m 156 806 l 307 1010 l 532 1010 l 683 806 l 515 806 l 419 903 l 324 806 l 156 806 m 235 0 l 81 154 l 81 571 l 235 725 l 604 725 l 760 571 l 760 299 l 294 299 l 294 215 l 350 160 l 747 161 l 747 0 l 235 0 m 293 439 l 557 439 l 557 533 l 501 589 l 350 588 l 293 533 l 293 439 z "},"ể":{"ha":843,"x_min":81,"x_max":885,"o":"m 639 919 l 639 1026 l 736 1093 l 736 1131 l 688 1131 l 688 1096 l 546 1096 l 546 1165 l 610 1229 l 819 1229 l 885 1167 l 885 1043 l 783 976 l 783 919 l 639 919 m 156 806 l 307 1010 l 532 1010 l 683 806 l 515 806 l 419 903 l 324 806 l 156 806 m 235 0 l 81 154 l 81 571 l 235 725 l 604 725 l 760 571 l 760 299 l 294 299 l 294 215 l 350 160 l 747 161 l 747 0 l 235 0 m 293 439 l 557 439 l 557 533 l 501 589 l 350 588 l 293 533 l 293 439 z "},"ễ":{"ha":843,"x_min":81,"x_max":760,"o":"m 421 1053 l 340 1143 l 304 1143 l 271 1096 l 271 1060 l 135 1060 l 136 1167 l 229 1261 l 431 1261 l 511 1174 l 547 1174 l 581 1217 l 581 1254 l 718 1254 l 717 1150 l 624 1053 l 421 1053 m 156 806 l 307 1010 l 532 1010 l 683 806 l 515 806 l 419 903 l 324 806 l 156 806 m 235 0 l 81 154 l 81 571 l 235 725 l 604 725 l 760 571 l 760 299 l 294 299 l 294 215 l 350 160 l 747 161 l 747 0 l 235 0 m 293 439 l 557 439 l 557 533 l 501 589 l 350 588 l 293 533 l 293 439 z "},"ȅ":{"ha":843,"x_min":4,"x_max":760,"o":"m 204 806 l 4 1021 l 219 1021 l 363 806 l 204 806 m 485 806 l 285 1021 l 500 1021 l 643 806 l 485 806 m 235 0 l 81 154 l 81 571 l 235 725 l 604 725 l 760 571 l 760 299 l 294 299 l 294 215 l 350 160 l 747 161 l 747 0 l 235 0 m 293 439 l 557 439 l 557 533 l 501 589 l 350 588 l 293 533 l 293 439 z "},"ë":{"ha":843,"x_min":81,"x_max":760,"o":"m 126 806 l 126 990 l 332 990 l 332 806 l 126 806 m 508 806 l 508 990 l 714 990 l 714 806 l 508 806 m 235 0 l 81 154 l 81 571 l 235 725 l 604 725 l 760 571 l 760 299 l 294 299 l 294 215 l 350 160 l 747 161 l 747 0 l 235 0 m 293 439 l 557 439 l 557 533 l 501 589 l 350 588 l 293 533 l 293 439 z "},"ė":{"ha":843,"x_min":81,"x_max":760,"o":"m 313 806 l 313 990 l 526 990 l 526 806 l 313 806 m 235 0 l 81 154 l 81 571 l 235 725 l 604 725 l 760 571 l 760 299 l 294 299 l 294 215 l 350 160 l 747 161 l 747 0 l 235 0 m 293 439 l 557 439 l 557 533 l 501 589 l 350 588 l 293 533 l 293 439 z "},"ẹ":{"ha":843,"x_min":81,"x_max":760,"o":"m 235 0 l 81 154 l 81 571 l 235 725 l 604 725 l 760 571 l 760 299 l 294 299 l 294 215 l 350 160 l 747 161 l 747 0 l 235 0 m 293 439 l 557 439 l 557 533 l 501 589 l 350 588 l 293 533 l 293 439 m 336 -264 l 336 -79 l 550 -79 l 550 -264 l 336 -264 z "},"è":{"ha":843,"x_min":81,"x_max":760,"o":"m 329 806 l 129 1021 l 351 1021 l 496 806 l 329 806 m 235 0 l 81 154 l 81 571 l 235 725 l 604 725 l 760 571 l 760 299 l 294 299 l 294 215 l 350 160 l 747 161 l 747 0 l 235 0 m 293 439 l 557 439 l 557 533 l 501 589 l 350 588 l 293 533 l 293 439 z "},"ẻ":{"ha":843,"x_min":81,"x_max":760,"o":"m 346 806 l 346 913 l 443 979 l 443 1017 l 393 1017 l 393 982 l 251 982 l 251 1051 l 317 1115 l 525 1115 l 590 1053 l 590 929 l 489 863 l 489 806 l 346 806 m 235 0 l 81 154 l 81 571 l 235 725 l 604 725 l 760 571 l 760 299 l 294 299 l 294 215 l 350 160 l 747 161 l 747 0 l 235 0 m 293 439 l 557 439 l 557 533 l 501 589 l 350 588 l 293 533 l 293 439 z "},"ȇ":{"ha":843,"x_min":81,"x_max":760,"o":"m 181 806 l 181 908 l 288 1010 l 550 1010 l 658 908 l 658 806 l 511 806 l 511 868 l 488 892 l 353 892 l 328 868 l 328 806 l 181 806 m 235 0 l 81 154 l 81 571 l 235 725 l 604 725 l 760 571 l 760 299 l 294 299 l 294 215 l 350 160 l 747 161 l 747 0 l 235 0 m 293 439 l 557 439 l 557 533 l 501 589 l 350 588 l 293 533 l 293 439 z "},"ē":{"ha":843,"x_min":81,"x_max":760,"o":"m 126 806 l 126 950 l 714 950 l 714 806 l 126 806 m 235 0 l 81 154 l 81 571 l 235 725 l 604 725 l 760 571 l 760 299 l 294 299 l 294 215 l 350 160 l 747 161 l 747 0 l 235 0 m 293 439 l 557 439 l 557 533 l 501 589 l 350 588 l 293 533 l 293 439 z "},"ę":{"ha":843,"x_min":81,"x_max":760,"o":"m 657 -244 l 563 -154 l 563 -46 l 625 0 l 235 0 l 81 154 l 81 571 l 235 725 l 604 725 l 760 571 l 760 299 l 294 299 l 294 215 l 350 160 l 747 161 l 747 0 l 688 -50 l 688 -90 l 714 -117 l 747 -117 l 747 -244 l 657 -244 m 293 439 l 557 439 l 557 533 l 501 589 l 350 588 l 293 533 l 293 439 z "},"ẽ":{"ha":843,"x_min":81,"x_max":760,"o":"m 419 806 l 339 894 l 303 894 l 269 849 l 269 813 l 132 813 l 135 918 l 226 1013 l 429 1013 l 510 926 l 546 926 l 579 969 l 579 1007 l 715 1007 l 714 901 l 621 806 l 419 806 m 235 0 l 81 154 l 81 571 l 235 725 l 604 725 l 760 571 l 760 299 l 294 299 l 294 215 l 350 160 l 747 161 l 747 0 l 235 0 m 293 439 l 557 439 l 557 533 l 501 589 l 350 588 l 293 533 l 293 439 z "},"ə":{"ha":843,"x_min":83,"x_max":763,"o":"m 238 0 l 83 154 l 83 426 l 549 426 l 549 510 l 493 565 l 94 565 l 94 725 l 608 725 l 763 571 l 763 154 l 608 0 l 238 0 m 342 138 l 493 138 l 549 192 l 549 288 l 286 288 l 286 192 l 342 138 z "},"f":{"ha":474,"x_min":42,"x_max":474,"o":"m 99 0 l 99 581 l 42 581 l 42 725 l 99 725 l 99 886 l 242 1024 l 474 1024 l 474 879 l 360 879 l 313 831 l 313 725 l 440 725 l 440 581 l 313 581 l 313 0 l 99 0 z "},"g":{"ha":906,"x_min":81,"x_max":808,"o":"m 139 -260 l 139 -103 l 547 -103 l 603 -49 l 603 100 l 494 0 l 235 0 l 81 154 l 81 571 l 235 726 l 494 726 l 603 625 l 603 725 l 808 725 l 808 -104 l 654 -260 l 139 -260 m 464 139 l 603 269 l 603 457 l 465 586 l 338 588 l 290 538 l 290 188 l 338 139 l 464 139 z "},"ğ":{"ha":906,"x_min":81,"x_max":808,"o":"m 328 806 l 221 908 l 221 1010 l 368 1010 l 368 949 l 392 925 l 526 925 l 551 949 l 551 1010 l 699 1010 l 699 908 l 590 806 l 328 806 m 139 -260 l 139 -103 l 547 -103 l 603 -49 l 603 100 l 494 0 l 235 0 l 81 154 l 81 571 l 235 726 l 494 726 l 603 625 l 603 725 l 808 725 l 808 -104 l 654 -260 l 139 -260 m 464 139 l 603 269 l 603 457 l 465 586 l 338 588 l 290 538 l 290 188 l 338 139 l 464 139 z "},"ǧ":{"ha":906,"x_min":81,"x_max":808,"o":"m 347 806 l 196 1010 l 364 1010 l 460 913 l 556 1010 l 724 1010 l 572 806 l 347 806 m 139 -260 l 139 -103 l 547 -103 l 603 -49 l 603 100 l 494 0 l 235 0 l 81 154 l 81 571 l 235 726 l 494 726 l 603 625 l 603 725 l 808 725 l 808 -104 l 654 -260 l 139 -260 m 464 139 l 603 269 l 603 457 l 465 586 l 338 588 l 290 538 l 290 188 l 338 139 l 464 139 z "},"ĝ":{"ha":906,"x_min":81,"x_max":808,"o":"m 196 806 l 347 1010 l 572 1010 l 724 806 l 556 806 l 460 903 l 364 806 l 196 806 m 139 -260 l 139 -103 l 547 -103 l 603 -49 l 603 100 l 494 0 l 235 0 l 81 154 l 81 571 l 235 726 l 494 726 l 603 625 l 603 725 l 808 725 l 808 -104 l 654 -260 l 139 -260 m 464 139 l 603 269 l 603 457 l 465 586 l 338 588 l 290 538 l 290 188 l 338 139 l 464 139 z "},"ģ":{"ha":906,"x_min":81,"x_max":808,"o":"m 354 806 l 497 1060 l 617 1060 l 556 806 l 354 806 m 139 -260 l 139 -103 l 547 -103 l 603 -49 l 603 100 l 494 0 l 235 0 l 81 154 l 81 571 l 235 726 l 494 726 l 603 625 l 603 725 l 808 725 l 808 -104 l 654 -260 l 139 -260 m 464 139 l 603 269 l 603 457 l 465 586 l 338 588 l 290 538 l 290 188 l 338 139 l 464 139 z "},"ġ":{"ha":906,"x_min":81,"x_max":808,"o":"m 353 806 l 353 990 l 567 990 l 567 806 l 353 806 m 139 -260 l 139 -103 l 547 -103 l 603 -49 l 603 100 l 494 0 l 235 0 l 81 154 l 81 571 l 235 726 l 494 726 l 603 625 l 603 725 l 808 725 l 808 -104 l 654 -260 l 139 -260 m 464 139 l 603 269 l 603 457 l 465 586 l 338 588 l 290 538 l 290 188 l 338 139 l 464 139 z "},"h":{"ha":914,"x_min":97,"x_max":826,"o":"m 97 0 l 97 1024 l 311 1024 l 311 631 l 417 726 l 672 726 l 826 571 l 826 0 l 613 0 l 613 533 l 560 588 l 449 588 l 311 461 l 311 0 l 97 0 z "},"ħ":{"ha":914,"x_min":24,"x_max":826,"o":"m 97 0 l 97 781 l 24 781 l 24 931 l 97 931 l 97 1024 l 311 1024 l 311 931 l 492 931 l 492 781 l 311 781 l 311 631 l 417 726 l 672 726 l 826 571 l 826 0 l 613 0 l 613 533 l 560 588 l 449 588 l 311 461 l 311 0 l 97 0 z "},"ĥ":{"ha":914,"x_min":97,"x_max":826,"o":"m 97 1104 l 249 1308 l 475 1308 l 625 1104 l 457 1104 l 361 1201 l 265 1104 l 97 1104 m 97 0 l 97 1024 l 311 1024 l 311 631 l 417 726 l 672 726 l 826 571 l 826 0 l 613 0 l 613 533 l 560 588 l 449 588 l 311 461 l 311 0 l 97 0 z "},"i":{"ha":408,"x_min":97,"x_max":311,"o":"m 97 806 l 97 989 l 311 989 l 311 806 l 97 806 m 97 0 l 97 726 l 311 726 l 311 0 l 97 0 z "},"ı":{"ha":408,"x_min":97,"x_max":311,"o":"m 97 0 l 97 726 l 311 726 l 311 0 l 97 0 z "},"í":{"ha":408,"x_min":97,"x_max":485,"o":"m 119 806 l 263 1021 l 485 1021 l 285 806 l 119 806 m 97 0 l 97 726 l 311 726 l 311 0 l 97 0 z "},"ĭ":{"ha":408,"x_min":-35,"x_max":443,"o":"m 72 806 l -35 907 l -35 1010 l 113 1010 l 113 949 l 138 925 l 272 925 l 296 949 l 296 1010 l 443 1010 l 443 907 l 335 806 l 72 806 m 97 0 l 97 726 l 311 726 l 311 0 l 97 0 z "},"î":{"ha":408,"x_min":-60,"x_max":468,"o":"m -60 806 l 92 1010 l 317 1010 l 468 806 l 300 806 l 204 903 l 108 806 l -60 806 m 97 0 l 97 726 l 311 726 l 311 0 l 97 0 z "},"ȉ":{"ha":408,"x_min":-211,"x_max":428,"o":"m -11 806 l -211 1021 l 4 1021 l 147 806 l -11 806 m 269 806 l 69 1021 l 285 1021 l 428 806 l 269 806 m 97 0 l 97 726 l 311 726 l 311 0 l 97 0 z "},"ï":{"ha":408,"x_min":-89,"x_max":499,"o":"m -89 806 l -89 989 l 117 989 l 117 806 l -89 806 m 293 806 l 293 989 l 499 989 l 499 806 l 293 806 m 97 0 l 97 726 l 311 726 l 311 0 l 97 0 z "},"ị":{"ha":408,"x_min":97,"x_max":311,"o":"m 97 806 l 97 989 l 311 989 l 311 806 l 97 806 m 97 0 l 97 726 l 311 726 l 311 0 l 97 0 m 97 -264 l 97 -79 l 311 -79 l 311 -264 l 97 -264 z "},"ì":{"ha":408,"x_min":-86,"x_max":311,"o":"m 114 806 l -86 1021 l 136 1021 l 281 806 l 114 806 m 97 0 l 97 726 l 311 726 l 311 0 l 97 0 z "},"ỉ":{"ha":408,"x_min":36,"x_max":375,"o":"m 131 806 l 131 911 l 228 979 l 228 1017 l 178 1017 l 178 982 l 36 982 l 36 1051 l 101 1114 l 310 1114 l 375 1053 l 375 928 l 274 861 l 274 806 l 131 806 m 97 0 l 97 726 l 311 726 l 311 0 l 97 0 z "},"ȋ":{"ha":408,"x_min":-35,"x_max":443,"o":"m -35 806 l -35 907 l 72 1010 l 335 1010 l 443 907 l 443 806 l 296 806 l 296 868 l 272 890 l 138 890 l 113 868 l 113 806 l -35 806 m 97 0 l 97 726 l 311 726 l 311 0 l 97 0 z "},"ī":{"ha":408,"x_min":-89,"x_max":499,"o":"m -89 806 l -89 950 l 499 950 l 499 806 l -89 806 m 97 0 l 97 726 l 311 726 l 311 0 l 97 0 z "},"į":{"ha":408,"x_min":97,"x_max":311,"o":"m 97 806 l 97 989 l 311 989 l 311 806 l 97 806 m 222 -244 l 126 -154 l 126 -46 l 189 0 l 97 0 l 97 726 l 311 726 l 311 0 l 251 -50 l 251 -90 l 279 -117 l 311 -117 l 311 -244 l 222 -244 z "},"ĩ":{"ha":408,"x_min":-83,"x_max":500,"o":"m 204 806 l 124 894 l 88 894 l 54 847 l 54 813 l -83 813 l -81 918 l 11 1013 l 214 1013 l 294 926 l 331 926 l 364 969 l 364 1006 l 500 1006 l 499 901 l 406 806 l 204 806 m 97 0 l 97 726 l 311 726 l 311 0 l 97 0 z "},"j":{"ha":425,"x_min":-37,"x_max":328,"o":"m 114 806 l 114 990 l 328 990 l 328 806 l 114 806 m -37 -260 l -37 -107 l 67 -107 l 114 -60 l 114 725 l 328 725 l 328 -124 l 185 -260 l -37 -260 z "},"ȷ":{"ha":425,"x_min":-37,"x_max":328,"o":"m -37 -260 l -37 -107 l 67 -107 l 114 -60 l 114 725 l 328 725 l 328 -124 l 185 -260 l -37 -260 z "},"ĵ":{"ha":425,"x_min":-44,"x_max":485,"o":"m -44 806 l 107 1010 l 333 1010 l 485 806 l 315 806 l 221 903 l 124 806 l -44 806 m -37 -260 l -37 -107 l 67 -107 l 114 -60 l 114 725 l 328 725 l 328 -124 l 185 -260 l -37 -260 z "},"k":{"ha":831,"x_min":97,"x_max":819,"o":"m 97 0 l 97 1024 l 311 1024 l 311 493 l 542 725 l 807 725 l 507 421 l 819 0 l 553 0 l 363 275 l 311 224 l 311 0 l 97 0 z "},"ķ":{"ha":831,"x_min":97,"x_max":819,"o":"m 97 0 l 97 1024 l 311 1024 l 311 507 l 325 507 l 542 725 l 807 725 l 507 421 l 819 0 l 553 0 l 363 275 l 311 224 l 311 0 l 97 0 m 271 -333 l 332 -79 l 535 -79 l 392 -333 l 271 -333 z "},"ĸ":{"ha":831,"x_min":97,"x_max":819,"o":"m 97 0 l 97 725 l 311 725 l 311 507 l 325 507 l 542 725 l 807 725 l 507 421 l 819 0 l 553 0 l 363 275 l 311 224 l 311 0 l 97 0 z "},"l":{"ha":408,"x_min":97,"x_max":311,"o":"m 97 0 l 97 1024 l 311 1024 l 311 0 l 97 0 z "},"ĺ":{"ha":408,"x_min":97,"x_max":493,"o":"m 126 1104 l 269 1319 l 493 1319 l 292 1104 l 126 1104 m 97 0 l 97 1024 l 311 1024 l 311 0 l 97 0 z "},"ľ":{"ha":408,"x_min":97,"x_max":628,"o":"m 365 769 l 426 1024 l 628 1024 l 486 769 l 365 769 m 97 0 l 97 1024 l 311 1024 l 311 0 l 97 0 z "},"ļ":{"ha":408,"x_min":49,"x_max":311,"o":"m 97 0 l 97 1024 l 311 1024 l 311 0 l 97 0 m 49 -333 l 108 -79 l 311 -79 l 168 -333 l 49 -333 z "},"ŀ":{"ha":789,"x_min":97,"x_max":639,"o":"m 97 0 l 97 1024 l 311 1024 l 311 0 l 97 0 m 438 425 l 438 621 l 639 621 l 639 425 l 438 425 z "},"ǉ":{"ha":863,"x_min":97,"x_max":765,"o":"m 97 0 l 97 1024 l 311 1024 l 311 0 l 97 0 m 551 806 l 551 990 l 765 990 l 765 806 l 551 806 m 400 -260 l 400 -107 l 504 -107 l 551 -60 l 551 725 l 765 725 l 765 -124 l 622 -260 l 400 -260 z "},"ł":{"ha":532,"x_min":63,"x_max":469,"o":"m 157 0 l 157 396 l 63 354 l 63 539 l 157 579 l 157 1024 l 371 1024 l 371 672 l 469 715 l 469 533 l 371 489 l 371 0 l 157 0 z "},"m":{"ha":1447,"x_min":97,"x_max":1360,"o":"m 97 0 l 97 726 l 311 726 l 311 613 l 438 726 l 692 726 l 814 603 l 951 726 l 1206 726 l 1360 571 l 1360 0 l 1146 0 l 1146 533 l 1093 588 l 983 588 l 846 463 l 846 0 l 632 0 l 632 533 l 579 588 l 469 588 l 311 442 l 311 0 l 97 0 z "},"n":{"ha":933,"x_min":97,"x_max":846,"o":"m 97 0 l 97 726 l 311 726 l 311 613 l 438 726 l 692 726 l 846 571 l 846 0 l 632 0 l 632 533 l 579 588 l 469 588 l 311 442 l 311 0 l 97 0 z "},"ń":{"ha":933,"x_min":97,"x_max":846,"o":"m 403 806 l 546 1021 l 768 1021 l 568 806 l 403 806 m 97 0 l 97 726 l 311 726 l 311 613 l 438 726 l 692 726 l 846 571 l 846 0 l 632 0 l 632 533 l 579 588 l 469 588 l 311 442 l 311 0 l 97 0 z "},"ň":{"ha":933,"x_min":97,"x_max":846,"o":"m 367 806 l 217 1010 l 385 1010 l 481 913 l 575 1010 l 744 1010 l 593 806 l 367 806 m 97 0 l 97 726 l 311 726 l 311 613 l 438 726 l 692 726 l 846 571 l 846 0 l 632 0 l 632 533 l 579 588 l 469 588 l 311 442 l 311 0 l 97 0 z "},"ņ":{"ha":933,"x_min":97,"x_max":846,"o":"m 97 0 l 97 726 l 311 726 l 311 613 l 438 726 l 692 726 l 846 571 l 846 0 l 632 0 l 632 533 l 579 588 l 469 588 l 311 442 l 311 0 l 97 0 m 328 -333 l 389 -79 l 590 -79 l 447 -333 l 328 -333 z "},"ŋ":{"ha":933,"x_min":97,"x_max":846,"o":"m 481 -260 l 481 -115 l 586 -115 l 632 -67 l 632 533 l 579 588 l 469 588 l 311 442 l 311 0 l 97 0 l 97 726 l 311 726 l 311 613 l 438 726 l 692 726 l 846 571 l 846 -124 l 703 -260 l 481 -260 z "},"ǌ":{"ha":1347,"x_min":97,"x_max":1250,"o":"m 1036 806 l 1036 990 l 1250 990 l 1250 806 l 1036 806 m 883 -260 l 883 -107 l 989 -107 l 1036 -60 l 1036 725 l 1250 725 l 1250 -124 l 1107 -260 l 883 -260 m 97 0 l 97 725 l 311 725 l 311 613 l 438 725 l 692 725 l 846 571 l 846 0 l 632 0 l 632 532 l 579 586 l 469 586 l 311 442 l 311 0 l 97 0 z "},"ñ":{"ha":933,"x_min":97,"x_max":846,"o":"m 479 806 l 399 894 l 364 894 l 329 849 l 329 813 l 193 813 l 196 918 l 288 1013 l 490 1013 l 571 926 l 606 926 l 640 969 l 640 1007 l 776 1007 l 775 901 l 682 806 l 479 806 m 97 0 l 97 726 l 311 726 l 311 613 l 438 726 l 692 726 l 846 571 l 846 0 l 632 0 l 632 533 l 579 588 l 469 588 l 311 442 l 311 0 l 97 0 z "},"o":{"ha":876,"x_min":81,"x_max":797,"o":"m 235 0 l 81 154 l 81 571 l 235 725 l 642 725 l 797 571 l 797 154 l 642 0 l 235 0 m 349 138 l 528 138 l 583 193 l 582 533 l 528 589 l 349 588 l 293 533 l 294 193 l 349 138 z "},"ó":{"ha":876,"x_min":81,"x_max":797,"o":"m 361 806 l 504 1021 l 726 1021 l 526 806 l 361 806 m 235 0 l 81 154 l 81 571 l 235 725 l 642 725 l 797 571 l 797 154 l 642 0 l 235 0 m 349 138 l 528 138 l 583 193 l 582 533 l 528 589 l 349 588 l 293 533 l 294 193 l 349 138 z "},"ŏ":{"ha":876,"x_min":81,"x_max":797,"o":"m 307 806 l 199 908 l 199 1010 l 347 1010 l 347 949 l 371 925 l 506 925 l 529 949 l 529 1010 l 678 1010 l 678 908 l 569 806 l 307 806 m 235 0 l 81 154 l 81 571 l 235 725 l 642 725 l 797 571 l 797 154 l 642 0 l 235 0 m 349 138 l 528 138 l 583 193 l 582 533 l 528 589 l 349 588 l 293 533 l 294 193 l 349 138 z "},"ô":{"ha":876,"x_min":81,"x_max":797,"o":"m 174 806 l 325 1010 l 551 1010 l 703 806 l 533 806 l 439 903 l 342 806 l 174 806 m 235 0 l 81 154 l 81 571 l 235 725 l 642 725 l 797 571 l 797 154 l 642 0 l 235 0 m 349 138 l 528 138 l 583 193 l 582 533 l 528 589 l 349 588 l 293 533 l 294 193 l 349 138 z "},"ố":{"ha":876,"x_min":81,"x_max":1046,"o":"m 681 919 l 824 1135 l 1046 1135 l 846 919 l 681 919 m 174 806 l 325 1010 l 551 1010 l 703 806 l 535 806 l 439 903 l 343 806 l 174 806 m 235 0 l 81 154 l 81 571 l 235 725 l 642 725 l 797 571 l 797 154 l 642 0 l 235 0 m 349 138 l 528 138 l 583 193 l 582 533 l 528 589 l 349 588 l 293 533 l 294 193 l 349 138 z "},"ộ":{"ha":876,"x_min":81,"x_max":797,"o":"m 174 806 l 325 1010 l 551 1010 l 703 806 l 533 806 l 439 903 l 342 806 l 174 806 m 235 0 l 81 154 l 81 571 l 235 725 l 642 725 l 797 571 l 797 154 l 642 0 l 235 0 m 349 138 l 528 138 l 583 193 l 582 533 l 528 589 l 349 588 l 293 533 l 294 193 l 349 138 m 332 -264 l 332 -79 l 546 -79 l 546 -264 l 332 -264 z "},"ồ":{"ha":876,"x_min":-169,"x_max":797,"o":"m 31 919 l -169 1136 l 53 1136 l 196 919 l 31 919 m 174 806 l 325 1010 l 551 1010 l 703 806 l 533 806 l 439 903 l 342 806 l 174 806 m 235 0 l 81 154 l 81 571 l 235 725 l 642 725 l 797 571 l 797 154 l 642 0 l 235 0 m 349 138 l 528 138 l 583 193 l 582 533 l 528 589 l 349 588 l 293 533 l 294 193 l 349 138 z "},"ổ":{"ha":876,"x_min":81,"x_max":903,"o":"m 658 919 l 658 1026 l 756 1093 l 756 1131 l 706 1131 l 706 1096 l 564 1096 l 564 1165 l 629 1229 l 838 1229 l 903 1167 l 903 1043 l 801 976 l 801 919 l 658 919 m 174 806 l 325 1010 l 551 1010 l 703 806 l 533 806 l 439 903 l 342 806 l 174 806 m 235 0 l 81 154 l 81 571 l 235 725 l 642 725 l 797 571 l 797 154 l 642 0 l 235 0 m 349 138 l 528 138 l 583 193 l 582 533 l 528 589 l 349 588 l 293 533 l 294 193 l 349 138 z "},"ỗ":{"ha":876,"x_min":81,"x_max":797,"o":"m 439 1053 l 358 1143 l 324 1143 l 289 1096 l 289 1060 l 153 1060 l 156 1167 l 247 1261 l 450 1261 l 531 1174 l 565 1174 l 600 1217 l 600 1254 l 736 1254 l 735 1150 l 642 1053 l 439 1053 m 174 806 l 325 1010 l 551 1010 l 703 806 l 533 806 l 439 903 l 342 806 l 174 806 m 235 0 l 81 154 l 81 571 l 235 725 l 642 725 l 797 571 l 797 154 l 642 0 l 235 0 m 349 138 l 528 138 l 583 193 l 582 533 l 528 589 l 349 588 l 293 533 l 294 193 l 349 138 z "},"ȍ":{"ha":876,"x_min":24,"x_max":797,"o":"m 224 806 l 24 1021 l 238 1021 l 382 806 l 224 806 m 504 806 l 303 1021 l 518 1021 l 661 806 l 504 806 m 235 0 l 81 154 l 81 571 l 235 725 l 642 725 l 797 571 l 797 154 l 642 0 l 235 0 m 349 138 l 528 138 l 583 193 l 582 533 l 528 589 l 349 588 l 293 533 l 294 193 l 349 138 z "},"ö":{"ha":876,"x_min":81,"x_max":797,"o":"m 144 806 l 144 990 l 350 990 l 350 806 l 144 806 m 526 806 l 526 990 l 732 990 l 732 806 l 526 806 m 235 0 l 81 154 l 81 571 l 235 725 l 642 725 l 797 571 l 797 154 l 642 0 l 235 0 m 349 138 l 528 138 l 583 193 l 582 533 l 528 589 l 349 588 l 293 533 l 294 193 l 349 138 z "},"ȫ":{"ha":876,"x_min":81,"x_max":797,"o":"m 144 1044 l 144 1189 l 732 1189 l 732 1044 l 144 1044 m 144 806 l 144 990 l 350 990 l 350 806 l 144 806 m 526 806 l 526 990 l 732 990 l 732 806 l 526 806 m 235 0 l 81 154 l 81 571 l 235 725 l 642 725 l 797 571 l 797 154 l 642 0 l 235 0 m 349 138 l 528 138 l 583 193 l 582 533 l 528 589 l 349 588 l 293 533 l 294 193 l 349 138 z "},"ȱ":{"ha":876,"x_min":81,"x_max":797,"o":"m 144 1044 l 144 1189 l 732 1189 l 732 1044 l 144 1044 m 332 806 l 332 990 l 546 990 l 546 806 l 332 806 m 235 0 l 81 154 l 81 571 l 235 725 l 642 725 l 797 571 l 797 154 l 642 0 l 235 0 m 349 138 l 528 138 l 583 193 l 582 533 l 528 589 l 349 588 l 293 533 l 294 193 l 349 138 z "},"ọ":{"ha":876,"x_min":81,"x_max":797,"o":"m 235 0 l 81 154 l 81 571 l 235 725 l 642 725 l 797 571 l 797 154 l 642 0 l 235 0 m 349 138 l 528 138 l 583 193 l 582 533 l 528 589 l 349 588 l 293 533 l 294 193 l 349 138 m 332 -264 l 332 -79 l 546 -79 l 546 -264 l 332 -264 z "},"ò":{"ha":876,"x_min":81,"x_max":797,"o":"m 349 806 l 149 1021 l 371 1021 l 514 806 l 349 806 m 235 0 l 81 154 l 81 571 l 235 725 l 642 725 l 797 571 l 797 154 l 642 0 l 235 0 m 349 138 l 528 138 l 583 193 l 582 533 l 528 589 l 349 588 l 293 533 l 294 193 l 349 138 z "},"ỏ":{"ha":876,"x_min":81,"x_max":797,"o":"m 364 806 l 364 913 l 461 979 l 461 1017 l 413 1017 l 413 982 l 271 982 l 271 1051 l 335 1115 l 544 1115 l 610 1053 l 610 929 l 508 863 l 508 806 l 364 806 m 235 0 l 81 154 l 81 571 l 235 725 l 642 725 l 797 571 l 797 154 l 642 0 l 235 0 m 349 138 l 528 138 l 583 193 l 582 533 l 528 589 l 349 588 l 293 533 l 294 193 l 349 138 z "},"ơ":{"ha":1028,"x_min":81,"x_max":1028,"o":"m 235 0 l 81 154 l 81 571 l 235 725 l 642 725 l 714 654 l 790 654 l 814 818 l 1028 818 l 906 539 l 797 539 l 797 154 l 642 0 l 235 0 m 349 138 l 528 138 l 583 193 l 582 533 l 528 589 l 349 588 l 293 533 l 294 193 l 349 138 z "},"ớ":{"ha":1028,"x_min":81,"x_max":1028,"o":"m 361 806 l 504 1021 l 726 1021 l 526 806 l 361 806 m 235 0 l 81 154 l 81 571 l 235 725 l 642 725 l 714 654 l 790 654 l 814 818 l 1028 818 l 906 539 l 797 539 l 797 154 l 642 0 l 235 0 m 349 138 l 528 138 l 583 193 l 582 533 l 528 589 l 349 588 l 293 533 l 294 193 l 349 138 z "},"ợ":{"ha":1028,"x_min":81,"x_max":1028,"o":"m 235 0 l 81 154 l 81 571 l 235 725 l 642 725 l 714 654 l 790 654 l 814 818 l 1028 818 l 906 539 l 797 539 l 797 154 l 642 0 l 235 0 m 349 138 l 528 138 l 583 193 l 582 533 l 528 589 l 349 588 l 293 533 l 294 193 l 349 138 m 332 -264 l 332 -79 l 546 -79 l 546 -264 l 332 -264 z "},"ờ":{"ha":1028,"x_min":81,"x_max":1028,"o":"m 349 806 l 149 1021 l 371 1021 l 514 806 l 349 806 m 235 0 l 81 154 l 81 571 l 235 725 l 642 725 l 714 654 l 790 654 l 814 818 l 1028 818 l 906 539 l 797 539 l 797 154 l 642 0 l 235 0 m 349 138 l 528 138 l 583 193 l 582 533 l 528 589 l 349 588 l 293 533 l 294 193 l 349 138 z "},"ở":{"ha":1028,"x_min":81,"x_max":1028,"o":"m 364 806 l 364 913 l 461 979 l 461 1017 l 413 1017 l 413 982 l 271 982 l 271 1051 l 335 1115 l 544 1115 l 610 1053 l 610 929 l 508 863 l 508 806 l 364 806 m 235 0 l 81 154 l 81 571 l 235 725 l 642 725 l 714 654 l 790 654 l 814 818 l 1028 818 l 906 539 l 797 539 l 797 154 l 642 0 l 235 0 m 349 138 l 528 138 l 583 193 l 582 533 l 528 589 l 349 588 l 293 533 l 294 193 l 349 138 z "},"ỡ":{"ha":1028,"x_min":81,"x_max":1028,"o":"m 438 806 l 357 894 l 322 894 l 288 849 l 288 813 l 151 813 l 153 918 l 246 1013 l 449 1013 l 529 926 l 564 926 l 599 969 l 599 1007 l 735 1007 l 733 901 l 640 806 l 438 806 m 235 0 l 81 154 l 81 571 l 235 725 l 642 725 l 714 654 l 790 654 l 814 818 l 1028 818 l 906 539 l 797 539 l 797 154 l 642 0 l 235 0 m 349 138 l 528 138 l 583 193 l 582 533 l 528 589 l 349 588 l 293 533 l 294 193 l 349 138 z "},"ő":{"ha":876,"x_min":81,"x_max":871,"o":"m 232 806 l 376 1021 l 590 1021 l 390 806 l 232 806 m 513 806 l 656 1021 l 871 1021 l 671 806 l 513 806 m 235 0 l 81 154 l 81 571 l 235 725 l 642 725 l 797 571 l 797 154 l 642 0 l 235 0 m 349 138 l 528 138 l 583 193 l 582 533 l 528 589 l 349 588 l 293 533 l 294 193 l 349 138 z "},"ȏ":{"ha":876,"x_min":81,"x_max":797,"o":"m 199 806 l 199 908 l 307 1010 l 569 1010 l 678 908 l 678 806 l 529 806 l 529 868 l 506 892 l 371 892 l 347 868 l 347 806 l 199 806 m 235 0 l 81 154 l 81 571 l 235 725 l 642 725 l 797 571 l 797 154 l 642 0 l 235 0 m 349 138 l 528 138 l 583 193 l 582 533 l 528 589 l 349 588 l 293 533 l 294 193 l 349 138 z "},"ō":{"ha":876,"x_min":81,"x_max":797,"o":"m 144 806 l 144 950 l 732 950 l 732 806 l 144 806 m 235 0 l 81 154 l 81 571 l 235 725 l 642 725 l 797 571 l 797 154 l 642 0 l 235 0 m 349 138 l 528 138 l 583 193 l 582 533 l 528 589 l 349 588 l 293 533 l 294 193 l 349 138 z "},"ǫ":{"ha":876,"x_min":81,"x_max":797,"o":"m 563 -244 l 467 -154 l 467 -46 l 529 0 l 235 0 l 81 154 l 81 571 l 235 725 l 642 725 l 797 571 l 797 154 l 592 -50 l 592 -90 l 619 -117 l 661 -117 l 661 -244 l 563 -244 m 349 138 l 528 138 l 583 193 l 582 533 l 528 589 l 349 588 l 293 533 l 294 193 l 349 138 z "},"ø":{"ha":876,"x_min":81,"x_max":797,"o":"m 235 0 l 81 154 l 81 571 l 235 725 l 642 725 l 797 571 l 797 154 l 642 0 l 235 0 m 294 236 l 515 589 l 349 588 l 293 533 l 294 236 m 361 138 l 528 138 l 583 193 l 582 489 l 361 138 z "},"ǿ":{"ha":876,"x_min":81,"x_max":797,"o":"m 361 806 l 504 1021 l 726 1021 l 526 806 l 361 806 m 235 0 l 81 154 l 81 571 l 235 725 l 642 725 l 797 571 l 797 154 l 642 0 l 235 0 m 294 236 l 515 589 l 349 588 l 293 533 l 294 236 m 361 138 l 528 138 l 583 193 l 582 489 l 361 138 z "},"õ":{"ha":876,"x_min":81,"x_max":797,"o":"m 438 806 l 357 894 l 322 894 l 288 849 l 288 813 l 151 813 l 153 918 l 246 1013 l 449 1013 l 529 926 l 564 926 l 599 969 l 599 1007 l 735 1007 l 733 901 l 640 806 l 438 806 m 235 0 l 81 154 l 81 571 l 235 725 l 642 725 l 797 571 l 797 154 l 642 0 l 235 0 m 349 138 l 528 138 l 583 193 l 582 533 l 528 589 l 349 588 l 293 533 l 294 193 l 349 138 z "},"ȭ":{"ha":876,"x_min":81,"x_max":797,"o":"m 144 1057 l 144 1201 l 732 1201 l 732 1057 l 144 1057 m 438 806 l 357 894 l 322 894 l 288 849 l 288 813 l 151 813 l 153 918 l 246 1013 l 449 1013 l 529 926 l 564 926 l 599 969 l 599 1007 l 735 1007 l 733 901 l 640 806 l 438 806 m 235 0 l 81 154 l 81 571 l 235 725 l 642 725 l 797 571 l 797 154 l 642 0 l 235 0 m 349 138 l 528 138 l 583 193 l 582 533 l 528 589 l 349 588 l 293 533 l 294 193 l 349 138 z "},"œ":{"ha":1343,"x_min":81,"x_max":1260,"o":"m 235 0 l 81 154 l 81 571 l 235 725 l 1106 725 l 1260 571 l 1260 299 l 796 299 l 796 215 l 850 160 l 1249 161 l 1249 0 l 235 0 m 349 138 l 528 138 l 582 193 l 582 533 l 526 589 l 349 588 l 293 533 l 294 193 l 349 138 m 796 439 l 1057 439 l 1057 533 l 1003 589 l 850 588 l 796 533 l 796 439 z "},"p":{"ha":908,"x_min":97,"x_max":829,"o":"m 97 -260 l 97 725 l 311 725 l 311 629 l 414 726 l 675 726 l 829 571 l 829 154 l 675 0 l 415 0 l 311 96 l 311 -260 l 97 -260 m 444 139 l 572 139 l 619 188 l 619 538 l 572 588 l 444 586 l 311 461 l 311 264 l 444 139 z "},"þ":{"ha":908,"x_min":97,"x_max":829,"o":"m 97 -260 l 97 1024 l 311 1024 l 311 629 l 414 726 l 675 726 l 829 571 l 829 154 l 675 0 l 415 0 l 311 96 l 311 -260 l 97 -260 m 444 139 l 572 139 l 619 188 l 619 538 l 572 588 l 444 586 l 311 461 l 311 264 l 444 139 z "},"q":{"ha":908,"x_min":81,"x_max":811,"o":"m 597 -260 l 597 96 l 494 0 l 235 0 l 81 154 l 81 571 l 235 726 l 494 726 l 597 629 l 597 725 l 811 725 l 811 -260 l 597 -260 m 464 139 l 597 264 l 597 461 l 465 586 l 338 588 l 290 538 l 290 188 l 338 139 l 464 139 z "},"r":{"ha":606,"x_min":97,"x_max":592,"o":"m 97 0 l 97 726 l 311 726 l 311 606 l 438 725 l 592 725 l 592 525 l 406 525 l 311 435 l 311 0 l 97 0 z "},"ŕ":{"ha":606,"x_min":97,"x_max":607,"o":"m 242 819 l 385 1035 l 607 1035 l 407 819 l 242 819 m 97 0 l 97 726 l 311 726 l 311 606 l 438 725 l 592 725 l 592 525 l 406 525 l 311 435 l 311 0 l 97 0 z "},"ř":{"ha":606,"x_min":74,"x_max":601,"o":"m 224 806 l 74 1010 l 242 1010 l 338 913 l 432 1010 l 601 1010 l 450 806 l 224 806 m 97 0 l 97 726 l 311 726 l 311 606 l 438 725 l 592 725 l 592 525 l 406 525 l 311 435 l 311 0 l 97 0 z "},"ŗ":{"ha":606,"x_min":38,"x_max":592,"o":"m 97 0 l 97 726 l 311 726 l 311 606 l 438 725 l 592 725 l 592 525 l 406 525 l 311 435 l 311 0 l 97 0 m 38 -333 l 97 -79 l 300 -79 l 157 -333 l 38 -333 z "},"ȑ":{"ha":606,"x_min":-78,"x_max":592,"o":"m 122 806 l -78 1021 l 138 1021 l 281 806 l 122 806 m 403 806 l 203 1021 l 418 1021 l 561 806 l 403 806 m 97 0 l 97 726 l 311 726 l 311 606 l 438 725 l 592 725 l 592 525 l 406 525 l 311 435 l 311 0 l 97 0 z "},"ȓ":{"ha":606,"x_min":97,"x_max":592,"o":"m 99 806 l 99 908 l 206 1010 l 468 1010 l 576 908 l 576 806 l 429 806 l 429 868 l 404 892 l 269 892 l 246 868 l 246 806 l 99 806 m 97 0 l 97 726 l 311 726 l 311 606 l 438 725 l 592 725 l 592 525 l 406 525 l 311 435 l 311 0 l 97 0 z "},"s":{"ha":810,"x_min":65,"x_max":747,"o":"m 103 0 l 103 158 l 489 158 l 536 206 l 536 243 l 485 296 l 210 296 l 65 433 l 65 589 l 208 725 l 674 725 l 674 568 l 318 568 l 275 522 l 275 496 l 325 444 l 603 444 l 747 308 l 747 138 l 604 0 l 103 0 z "},"ś":{"ha":810,"x_min":65,"x_max":747,"o":"m 322 806 l 465 1021 l 688 1021 l 488 806 l 322 806 m 103 0 l 103 158 l 489 158 l 536 206 l 536 243 l 485 296 l 210 296 l 65 433 l 65 589 l 208 725 l 674 725 l 674 568 l 318 568 l 275 522 l 275 496 l 325 444 l 603 444 l 747 308 l 747 138 l 604 0 l 103 0 z "},"š":{"ha":810,"x_min":65,"x_max":747,"o":"m 286 806 l 135 1010 l 304 1010 l 400 913 l 494 1010 l 664 1010 l 513 806 l 286 806 m 103 0 l 103 158 l 489 158 l 536 206 l 536 243 l 485 296 l 210 296 l 65 433 l 65 589 l 208 725 l 674 725 l 674 568 l 318 568 l 275 522 l 275 496 l 325 444 l 603 444 l 747 308 l 747 138 l 604 0 l 103 0 z "},"ş":{"ha":810,"x_min":65,"x_max":747,"o":"m 290 -174 l 318 0 l 103 0 l 103 158 l 489 158 l 536 206 l 536 243 l 485 296 l 210 296 l 65 433 l 65 589 l 208 725 l 674 725 l 674 568 l 318 568 l 275 522 l 275 496 l 325 444 l 603 444 l 747 308 l 747 138 l 604 0 l 494 0 l 433 -174 l 290 -174 z "},"ŝ":{"ha":810,"x_min":65,"x_max":747,"o":"m 135 806 l 286 1010 l 513 1010 l 664 806 l 494 806 l 400 903 l 304 806 l 135 806 m 103 0 l 103 158 l 489 158 l 536 206 l 536 243 l 485 296 l 210 296 l 65 433 l 65 589 l 208 725 l 674 725 l 674 568 l 318 568 l 275 522 l 275 496 l 325 444 l 603 444 l 747 308 l 747 138 l 604 0 l 103 0 z "},"ș":{"ha":810,"x_min":65,"x_max":747,"o":"m 103 0 l 103 158 l 489 158 l 536 206 l 536 243 l 485 296 l 210 296 l 65 433 l 65 589 l 208 725 l 674 725 l 674 568 l 318 568 l 275 522 l 275 496 l 325 444 l 603 444 l 747 308 l 747 138 l 604 0 l 103 0 m 238 -333 l 299 -79 l 500 -79 l 357 -333 l 238 -333 z "},"ß":{"ha":982,"x_min":104,"x_max":910,"o":"m 104 0 l 104 878 l 254 1024 l 681 1024 l 831 878 l 831 617 l 778 564 l 910 439 l 910 146 l 760 0 l 408 0 l 408 168 l 622 168 l 676 222 l 676 396 l 622 451 l 408 451 l 408 610 l 560 610 l 614 665 l 614 801 l 560 857 l 389 856 l 333 801 l 333 0 l 104 0 z "},"t":{"ha":506,"x_min":47,"x_max":468,"o":"m 246 0 l 101 136 l 101 581 l 47 581 l 47 725 l 110 725 l 171 918 l 315 918 l 315 725 l 436 725 l 436 581 l 315 581 l 315 200 l 363 151 l 468 151 l 468 0 l 246 0 z "},"ŧ":{"ha":506,"x_min":47,"x_max":468,"o":"m 246 0 l 101 136 l 101 329 l 53 329 l 53 453 l 101 453 l 101 581 l 47 581 l 47 725 l 110 725 l 171 918 l 315 918 l 315 725 l 436 725 l 436 581 l 315 581 l 315 453 l 442 453 l 442 329 l 315 329 l 315 200 l 363 151 l 468 151 l 468 0 l 246 0 z "},"ť":{"ha":506,"x_min":47,"x_max":631,"o":"m 368 769 l 429 1024 l 631 1024 l 488 769 l 368 769 m 246 0 l 101 136 l 101 581 l 47 581 l 47 725 l 110 725 l 171 918 l 315 918 l 315 725 l 436 725 l 436 581 l 315 581 l 315 200 l 363 151 l 468 151 l 468 0 l 246 0 z "},"ţ":{"ha":506,"x_min":47,"x_max":468,"o":"m 239 -174 l 267 0 l 246 0 l 101 136 l 101 581 l 47 581 l 47 725 l 110 725 l 171 918 l 315 918 l 315 725 l 436 725 l 436 581 l 315 581 l 315 200 l 363 151 l 468 151 l 468 0 l 443 0 l 382 -174 l 239 -174 z "},"ț":{"ha":506,"x_min":47,"x_max":468,"o":"m 246 0 l 101 136 l 101 581 l 47 581 l 47 725 l 110 725 l 171 918 l 315 918 l 315 725 l 436 725 l 436 581 l 315 581 l 315 200 l 363 151 l 468 151 l 468 0 l 246 0 m 182 -333 l 243 -79 l 444 -79 l 303 -333 l 182 -333 z "},"u":{"ha":907,"x_min":88,"x_max":810,"o":"m 242 0 l 88 154 l 88 725 l 301 725 l 300 194 l 354 138 l 453 138 l 596 271 l 596 725 l 810 725 l 810 0 l 596 0 l 596 101 l 483 0 l 242 0 z "},"ú":{"ha":907,"x_min":88,"x_max":810,"o":"m 371 806 l 514 1021 l 738 1021 l 536 806 l 371 806 m 242 0 l 88 154 l 88 725 l 301 725 l 300 194 l 354 138 l 453 138 l 596 271 l 596 725 l 810 725 l 810 0 l 596 0 l 596 101 l 483 0 l 242 0 z "},"ŭ":{"ha":907,"x_min":88,"x_max":810,"o":"m 317 806 l 210 908 l 210 1010 l 357 1010 l 357 949 l 382 925 l 517 925 l 540 949 l 540 1010 l 688 1010 l 688 908 l 581 806 l 317 806 m 242 0 l 88 154 l 88 725 l 301 725 l 300 194 l 354 138 l 453 138 l 596 271 l 596 725 l 810 725 l 810 0 l 596 0 l 596 101 l 483 0 l 242 0 z "},"û":{"ha":907,"x_min":88,"x_max":810,"o":"m 185 806 l 336 1010 l 563 1010 l 713 806 l 544 806 l 449 903 l 353 806 l 185 806 m 242 0 l 88 154 l 88 725 l 301 725 l 300 194 l 354 138 l 453 138 l 596 271 l 596 725 l 810 725 l 810 0 l 596 0 l 596 101 l 483 0 l 242 0 z "},"ȕ":{"ha":907,"x_min":33,"x_max":810,"o":"m 235 806 l 33 1021 l 249 1021 l 392 806 l 235 806 m 514 806 l 314 1021 l 529 1021 l 672 806 l 514 806 m 242 0 l 88 154 l 88 725 l 301 725 l 300 194 l 354 138 l 453 138 l 596 271 l 596 725 l 810 725 l 810 0 l 596 0 l 596 101 l 483 0 l 242 0 z "},"ü":{"ha":907,"x_min":88,"x_max":810,"o":"m 156 806 l 156 990 l 361 990 l 361 806 l 156 806 m 538 806 l 538 990 l 743 990 l 743 806 l 538 806 m 242 0 l 88 154 l 88 725 l 301 725 l 300 194 l 354 138 l 453 138 l 596 271 l 596 725 l 810 725 l 810 0 l 596 0 l 596 101 l 483 0 l 242 0 z "},"ụ":{"ha":907,"x_min":88,"x_max":810,"o":"m 242 0 l 88 154 l 88 725 l 301 725 l 300 194 l 354 138 l 453 138 l 596 271 l 596 725 l 810 725 l 810 0 l 596 0 l 596 101 l 483 0 l 242 0 m 358 -264 l 358 -79 l 572 -79 l 572 -264 l 358 -264 z "},"ù":{"ha":907,"x_min":88,"x_max":810,"o":"m 360 806 l 158 1021 l 382 1021 l 525 806 l 360 806 m 242 0 l 88 154 l 88 725 l 301 725 l 300 194 l 354 138 l 453 138 l 596 271 l 596 725 l 810 725 l 810 0 l 596 0 l 596 101 l 483 0 l 242 0 z "},"ủ":{"ha":907,"x_min":88,"x_max":810,"o":"m 375 806 l 375 913 l 472 979 l 472 1017 l 422 1017 l 422 982 l 281 982 l 281 1051 l 346 1115 l 554 1115 l 619 1053 l 619 929 l 518 863 l 518 806 l 375 806 m 242 0 l 88 154 l 88 725 l 301 725 l 300 194 l 354 138 l 453 138 l 596 271 l 596 725 l 810 725 l 810 0 l 596 0 l 596 101 l 483 0 l 242 0 z "},"ư":{"ha":1124,"x_min":88,"x_max":1124,"o":"m 242 0 l 88 154 l 88 725 l 301 725 l 300 194 l 354 138 l 453 138 l 596 271 l 596 725 l 810 725 l 810 643 l 888 643 l 911 807 l 1124 807 l 1001 529 l 810 529 l 810 0 l 596 0 l 596 101 l 483 0 l 242 0 z "},"ứ":{"ha":1124,"x_min":88,"x_max":1124,"o":"m 371 806 l 514 1021 l 738 1021 l 536 806 l 371 806 m 242 0 l 88 154 l 88 725 l 301 725 l 300 194 l 354 138 l 453 138 l 596 271 l 596 725 l 810 725 l 810 643 l 888 643 l 911 807 l 1124 807 l 1001 529 l 810 529 l 810 0 l 596 0 l 596 101 l 483 0 l 242 0 z "},"ự":{"ha":1124,"x_min":88,"x_max":1124,"o":"m 242 0 l 88 154 l 88 725 l 301 725 l 300 194 l 354 138 l 453 138 l 596 271 l 596 725 l 810 725 l 810 643 l 888 643 l 911 807 l 1124 807 l 1001 529 l 810 529 l 810 0 l 596 0 l 596 101 l 483 0 l 242 0 m 342 -264 l 342 -79 l 556 -79 l 556 -264 l 342 -264 z "},"ừ":{"ha":1124,"x_min":88,"x_max":1124,"o":"m 360 806 l 158 1021 l 382 1021 l 525 806 l 360 806 m 242 0 l 88 154 l 88 725 l 301 725 l 300 194 l 354 138 l 453 138 l 596 271 l 596 725 l 810 725 l 810 643 l 888 643 l 911 807 l 1124 807 l 1001 529 l 810 529 l 810 0 l 596 0 l 596 101 l 483 0 l 242 0 z "},"ử":{"ha":1124,"x_min":88,"x_max":1124,"o":"m 375 806 l 375 913 l 472 979 l 472 1017 l 422 1017 l 422 982 l 281 982 l 281 1051 l 346 1115 l 554 1115 l 619 1053 l 619 929 l 518 863 l 518 806 l 375 806 m 242 0 l 88 154 l 88 725 l 301 725 l 300 194 l 354 138 l 453 138 l 596 271 l 596 725 l 810 725 l 810 643 l 888 643 l 911 807 l 1124 807 l 1001 529 l 810 529 l 810 0 l 596 0 l 596 101 l 483 0 l 242 0 z "},"ữ":{"ha":1124,"x_min":88,"x_max":1124,"o":"m 449 806 l 368 894 l 332 894 l 299 849 l 299 813 l 163 813 l 164 918 l 257 1013 l 458 1013 l 539 926 l 575 926 l 608 969 l 608 1007 l 746 1007 l 744 901 l 651 806 l 449 806 m 242 0 l 88 154 l 88 725 l 301 725 l 300 194 l 354 138 l 453 138 l 596 271 l 596 725 l 810 725 l 810 643 l 888 643 l 911 807 l 1124 807 l 1001 529 l 810 529 l 810 0 l 596 0 l 596 101 l 483 0 l 242 0 z "},"ű":{"ha":907,"x_min":88,"x_max":882,"o":"m 243 806 l 386 1021 l 601 1021 l 401 806 l 243 806 m 524 806 l 667 1021 l 882 1021 l 681 806 l 524 806 m 242 0 l 88 154 l 88 725 l 301 725 l 300 194 l 354 138 l 453 138 l 596 271 l 596 725 l 810 725 l 810 0 l 596 0 l 596 101 l 483 0 l 242 0 z "},"ȗ":{"ha":907,"x_min":88,"x_max":810,"o":"m 210 806 l 210 908 l 317 1010 l 581 1010 l 688 908 l 688 806 l 540 806 l 540 868 l 517 892 l 382 892 l 357 868 l 357 806 l 210 806 m 242 0 l 88 154 l 88 725 l 301 725 l 300 194 l 354 138 l 453 138 l 596 271 l 596 725 l 810 725 l 810 0 l 596 0 l 596 101 l 483 0 l 242 0 z "},"ū":{"ha":907,"x_min":88,"x_max":810,"o":"m 156 806 l 156 950 l 743 950 l 743 806 l 156 806 m 242 0 l 88 154 l 88 725 l 301 725 l 300 194 l 354 138 l 453 138 l 596 271 l 596 725 l 810 725 l 810 0 l 596 0 l 596 101 l 483 0 l 242 0 z "},"ų":{"ha":907,"x_min":88,"x_max":810,"o":"m 719 -244 l 625 -154 l 625 -46 l 688 0 l 596 0 l 596 101 l 483 0 l 242 0 l 88 154 l 88 725 l 301 725 l 300 194 l 354 138 l 453 138 l 596 271 l 596 725 l 810 725 l 810 0 l 749 -50 l 749 -90 l 776 -117 l 810 -117 l 810 -244 l 719 -244 z "},"ů":{"ha":907,"x_min":88,"x_max":810,"o":"m 371 806 l 274 901 l 274 1011 l 371 1108 l 528 1108 l 624 1011 l 624 901 l 528 806 l 371 806 m 431 906 l 467 906 l 500 939 l 500 975 l 467 1008 l 431 1008 l 397 975 l 397 939 l 431 906 m 242 0 l 88 154 l 88 725 l 301 725 l 300 194 l 354 138 l 453 138 l 596 271 l 596 725 l 810 725 l 810 0 l 596 0 l 596 101 l 483 0 l 242 0 z "},"ũ":{"ha":907,"x_min":88,"x_max":810,"o":"m 449 806 l 368 894 l 332 894 l 299 849 l 299 813 l 163 813 l 164 918 l 257 1013 l 458 1013 l 539 926 l 575 926 l 608 969 l 608 1007 l 746 1007 l 744 901 l 651 806 l 449 806 m 242 0 l 88 154 l 88 725 l 301 725 l 300 194 l 354 138 l 453 138 l 596 271 l 596 725 l 810 725 l 810 0 l 596 0 l 596 101 l 483 0 l 242 0 z "},"v":{"ha":865,"x_min":7,"x_max":858,"o":"m 292 0 l 7 725 l 249 725 l 411 181 l 454 181 l 617 725 l 858 725 l 574 0 l 292 0 z "},"w":{"ha":1281,"x_min":7,"x_max":1274,"o":"m 226 0 l 7 725 l 244 725 l 364 181 l 406 181 l 525 725 l 756 725 l 876 181 l 917 181 l 1038 725 l 1274 725 l 1056 0 l 750 0 l 640 390 l 532 0 l 226 0 z "},"ẃ":{"ha":1281,"x_min":7,"x_max":1274,"o":"m 563 806 l 706 1021 l 929 1021 l 728 806 l 563 806 m 226 0 l 7 725 l 244 725 l 364 181 l 406 181 l 525 725 l 756 725 l 876 181 l 917 181 l 1038 725 l 1274 725 l 1056 0 l 750 0 l 640 390 l 532 0 l 226 0 z "},"ŵ":{"ha":1281,"x_min":7,"x_max":1274,"o":"m 376 806 l 528 1010 l 754 1010 l 904 806 l 736 806 l 640 903 l 544 806 l 376 806 m 226 0 l 7 725 l 244 725 l 364 181 l 406 181 l 525 725 l 756 725 l 876 181 l 917 181 l 1038 725 l 1274 725 l 1056 0 l 750 0 l 640 390 l 532 0 l 226 0 z "},"ẅ":{"ha":1281,"x_min":7,"x_max":1274,"o":"m 347 806 l 347 990 l 553 990 l 553 806 l 347 806 m 729 806 l 729 990 l 935 990 l 935 806 l 729 806 m 226 0 l 7 725 l 244 725 l 364 181 l 406 181 l 525 725 l 756 725 l 876 181 l 917 181 l 1038 725 l 1274 725 l 1056 0 l 750 0 l 640 390 l 532 0 l 226 0 z "},"ẁ":{"ha":1281,"x_min":7,"x_max":1274,"o":"m 551 806 l 350 1021 l 574 1021 l 717 806 l 551 806 m 226 0 l 7 725 l 244 725 l 364 181 l 406 181 l 525 725 l 756 725 l 876 181 l 917 181 l 1038 725 l 1274 725 l 1056 0 l 750 0 l 640 390 l 532 0 l 226 0 z "},"x":{"ha":844,"x_min":7,"x_max":838,"o":"m 7 0 l 231 372 l 7 725 l 256 725 l 401 458 l 443 458 l 589 725 l 838 725 l 614 372 l 838 0 l 585 0 l 442 279 l 400 279 l 258 0 l 7 0 z "},"y":{"ha":865,"x_min":71,"x_max":793,"o":"m 122 -260 l 122 -103 l 532 -103 l 588 -47 l 588 107 l 468 0 l 225 0 l 71 154 l 71 725 l 285 725 l 285 194 l 339 139 l 438 139 l 588 278 l 588 725 l 793 725 l 793 -104 l 639 -260 l 122 -260 z "},"ý":{"ha":865,"x_min":71,"x_max":793,"o":"m 357 806 l 500 1021 l 722 1021 l 522 806 l 357 806 m 122 -260 l 122 -103 l 532 -103 l 588 -47 l 588 107 l 468 0 l 225 0 l 71 154 l 71 725 l 285 725 l 285 194 l 339 139 l 438 139 l 588 278 l 588 725 l 793 725 l 793 -104 l 639 -260 l 122 -260 z "},"ŷ":{"ha":865,"x_min":71,"x_max":793,"o":"m 169 806 l 321 1010 l 547 1010 l 699 806 l 529 806 l 433 903 l 338 806 l 169 806 m 122 -260 l 122 -103 l 532 -103 l 588 -47 l 588 107 l 468 0 l 225 0 l 71 154 l 71 725 l 285 725 l 285 194 l 339 139 l 438 139 l 588 278 l 588 725 l 793 725 l 793 -104 l 639 -260 l 122 -260 z "},"ÿ":{"ha":865,"x_min":71,"x_max":793,"o":"m 140 806 l 140 990 l 346 990 l 346 806 l 140 806 m 522 806 l 522 990 l 728 990 l 728 806 l 522 806 m 122 -260 l 122 -103 l 532 -103 l 588 -47 l 588 107 l 468 0 l 225 0 l 71 154 l 71 725 l 285 725 l 285 194 l 339 139 l 438 139 l 588 278 l 588 725 l 793 725 l 793 -104 l 639 -260 l 122 -260 z "},"ỵ":{"ha":867,"x_min":71,"x_max":1078,"o":"m 122 -260 l 122 -103 l 532 -103 l 588 -47 l 588 107 l 468 0 l 225 0 l 71 154 l 71 725 l 285 725 l 285 194 l 339 139 l 438 139 l 588 278 l 588 725 l 793 725 l 793 -104 l 639 -260 l 122 -260 m 864 -260 l 864 -75 l 1078 -75 l 1078 -260 l 864 -260 z "},"ỳ":{"ha":865,"x_min":71,"x_max":793,"o":"m 344 806 l 144 1021 l 367 1021 l 510 806 l 344 806 m 122 -260 l 122 -103 l 532 -103 l 588 -47 l 588 107 l 468 0 l 225 0 l 71 154 l 71 725 l 285 725 l 285 194 l 339 139 l 438 139 l 588 278 l 588 725 l 793 725 l 793 -104 l 639 -260 l 122 -260 z "},"ỷ":{"ha":865,"x_min":71,"x_max":793,"o":"m 360 806 l 360 913 l 457 979 l 457 1017 l 408 1017 l 408 982 l 267 982 l 267 1051 l 331 1115 l 540 1115 l 606 1053 l 606 929 l 504 863 l 504 806 l 360 806 m 122 -260 l 122 -103 l 532 -103 l 588 -47 l 588 107 l 468 0 l 225 0 l 71 154 l 71 725 l 285 725 l 285 194 l 339 139 l 438 139 l 588 278 l 588 725 l 793 725 l 793 -104 l 639 -260 l 122 -260 z "},"ȳ":{"ha":865,"x_min":71,"x_max":793,"o":"m 140 806 l 140 950 l 728 950 l 728 806 l 140 806 m 122 -260 l 122 -103 l 532 -103 l 588 -47 l 588 107 l 468 0 l 225 0 l 71 154 l 71 725 l 285 725 l 285 194 l 339 139 l 438 139 l 588 278 l 588 725 l 793 725 l 793 -104 l 639 -260 l 122 -260 z "},"ỹ":{"ha":865,"x_min":71,"x_max":793,"o":"m 433 806 l 353 894 l 318 894 l 283 849 l 283 813 l 147 813 l 149 918 l 242 1013 l 444 1013 l 525 926 l 560 926 l 594 969 l 594 1007 l 731 1007 l 729 901 l 636 806 l 433 806 m 122 -260 l 122 -103 l 532 -103 l 588 -47 l 588 107 l 468 0 l 225 0 l 71 154 l 71 725 l 285 725 l 285 194 l 339 139 l 438 139 l 588 278 l 588 725 l 793 725 l 793 -104 l 639 -260 l 122 -260 z "},"z":{"ha":814,"x_min":69,"x_max":738,"o":"m 69 0 l 69 164 l 449 568 l 100 568 l 100 725 l 728 725 l 728 560 l 349 158 l 738 158 l 738 0 l 69 0 z "},"ź":{"ha":814,"x_min":69,"x_max":738,"o":"m 329 806 l 472 1021 l 694 1021 l 494 806 l 329 806 m 69 0 l 69 164 l 449 568 l 100 568 l 100 725 l 728 725 l 728 560 l 349 158 l 738 158 l 738 0 l 69 0 z "},"ž":{"ha":814,"x_min":69,"x_max":738,"o":"m 293 806 l 142 1010 l 310 1010 l 406 913 l 501 1010 l 671 1010 l 519 806 l 293 806 m 69 0 l 69 164 l 449 568 l 100 568 l 100 725 l 728 725 l 728 560 l 349 158 l 738 158 l 738 0 l 69 0 z "},"ż":{"ha":814,"x_min":69,"x_max":738,"o":"m 299 806 l 299 990 l 513 990 l 513 806 l 299 806 m 69 0 l 69 164 l 449 568 l 100 568 l 100 725 l 728 725 l 728 560 l 349 158 l 738 158 l 738 0 l 69 0 z "},"ﬁ":{"ha":808,"x_min":42,"x_max":711,"o":"m 99 0 l 99 581 l 42 581 l 42 725 l 99 725 l 99 886 l 240 1024 l 643 1024 l 643 879 l 360 879 l 313 831 l 313 725 l 440 725 l 440 581 l 313 581 l 313 0 l 99 0 m 497 0 l 497 725 l 711 725 l 711 0 l 497 0 z "},"ﬂ":{"ha":850,"x_min":42,"x_max":753,"o":"m 99 0 l 99 581 l 42 581 l 42 725 l 99 725 l 99 886 l 242 1024 l 474 1024 l 474 879 l 360 879 l 313 831 l 313 725 l 440 725 l 440 581 l 313 581 l 313 0 l 99 0 m 539 0 l 539 1024 l 753 1024 l 753 0 l 539 0 z "},"ª":{"ha":724,"x_min":88,"x_max":636,"o":"m 204 447 l 88 568 l 88 708 l 199 822 l 443 822 l 443 863 l 414 892 l 154 892 l 154 1024 l 514 1024 l 636 899 l 636 447 l 453 447 l 453 518 l 389 447 l 204 447 m 303 576 l 376 576 l 435 633 l 435 713 l 303 713 l 274 683 l 274 606 l 303 576 z "},"º":{"ha":738,"x_min":88,"x_max":650,"o":"m 206 447 l 88 569 l 88 903 l 206 1024 l 531 1024 l 650 903 l 650 569 l 531 447 l 206 447 m 308 581 l 428 581 l 457 610 l 457 863 l 428 892 l 308 892 l 281 863 l 281 610 l 308 581 z "},"¹":{"ha":415,"x_min":76,"x_max":353,"o":"m 76 481 l 76 603 l 144 603 l 144 901 l 85 901 l 85 1024 l 285 1024 l 285 603 l 353 603 l 353 481 l 76 481 z "},"²":{"ha":583,"x_min":76,"x_max":497,"o":"m 83 481 l 83 617 l 353 850 l 353 888 l 335 907 l 228 907 l 168 847 l 76 936 l 167 1024 l 408 1024 l 493 943 l 493 796 l 268 603 l 497 603 l 497 481 l 83 481 z "},"³":{"ha":575,"x_min":75,"x_max":499,"o":"m 163 481 l 75 571 l 165 658 l 224 600 l 342 600 l 361 618 l 361 686 l 342 704 l 188 704 l 188 821 l 342 821 l 361 840 l 361 888 l 342 907 l 231 907 l 171 847 l 79 936 l 169 1024 l 413 1024 l 499 938 l 499 806 l 457 763 l 499 721 l 499 568 l 413 481 l 163 481 z "},"⁴":{"ha":542,"x_min":39,"x_max":490,"o":"m 293 481 l 293 574 l 39 574 l 39 682 l 299 1024 l 431 1024 l 431 692 l 490 692 l 490 574 l 431 574 l 431 481 l 293 481 m 208 692 l 293 692 l 293 808 l 208 692 z "},"⁄":{"ha":1031,"x_min":97,"x_max":933,"o":"m 213 -92 l 97 -17 l 818 1115 l 933 1042 l 213 -92 z "},"½":{"ha":1154,"x_min":97,"x_max":1057,"o":"m 229 -92 l 115 -17 l 836 1115 l 951 1042 l 229 -92 m 97 481 l 97 603 l 165 603 l 165 901 l 106 901 l 106 1024 l 306 1024 l 306 603 l 374 603 l 374 481 l 97 481 m 643 0 l 643 136 l 913 369 l 913 407 l 894 425 l 788 425 l 728 367 l 636 454 l 726 543 l 968 543 l 1053 461 l 1053 315 l 828 122 l 1057 122 l 1057 0 l 643 0 z "},"¼":{"ha":1067,"x_min":97,"x_max":965,"o":"m 229 -92 l 115 -17 l 836 1115 l 951 1042 l 229 -92 m 97 481 l 97 603 l 165 603 l 165 901 l 106 901 l 106 1024 l 306 1024 l 306 603 l 374 603 l 374 481 l 97 481 m 768 0 l 768 92 l 514 92 l 514 201 l 774 543 l 907 543 l 907 211 l 965 211 l 965 92 l 907 92 l 907 0 l 768 0 m 683 211 l 768 211 l 768 347 l 735 279 l 683 211 z "},"¾":{"ha":1186,"x_min":99,"x_max":1086,"o":"m 349 -92 l 235 -17 l 956 1115 l 1071 1042 l 349 -92 m 188 481 l 99 571 l 189 658 l 247 600 l 367 600 l 385 618 l 385 686 l 367 704 l 211 704 l 211 821 l 367 821 l 385 840 l 385 888 l 367 907 l 254 907 l 194 847 l 104 936 l 193 1024 l 438 1024 l 524 938 l 524 806 l 481 763 l 524 721 l 524 568 l 438 481 l 188 481 m 889 0 l 889 92 l 635 92 l 635 201 l 894 543 l 1028 543 l 1028 211 l 1086 211 l 1086 92 l 1028 92 l 1028 0 l 889 0 m 804 211 l 889 211 l 889 347 l 856 279 l 804 211 z "},".":{"ha":401,"x_min":93,"x_max":294,"o":"m 93 0 l 93 196 l 294 196 l 294 0 l 93 0 z "},",":{"ha":401,"x_min":33,"x_max":294,"o":"m 33 -153 l 93 196 l 294 196 l 153 -153 l 33 -153 z "},":":{"ha":401,"x_min":93,"x_max":294,"o":"m 93 531 l 93 726 l 294 726 l 294 531 l 93 531 m 93 0 l 93 196 l 294 196 l 294 0 l 93 0 z "},";":{"ha":401,"x_min":33,"x_max":294,"o":"m 93 531 l 93 726 l 294 726 l 294 531 l 93 531 m 33 -153 l 93 196 l 294 196 l 153 -153 l 33 -153 z "},"…":{"ha":1094,"x_min":93,"x_max":988,"o":"m 786 0 l 786 196 l 988 196 l 988 0 l 786 0 m 93 0 l 93 196 l 294 196 l 294 0 l 93 0 m 440 0 l 440 196 l 642 196 l 642 0 l 440 0 z "},"!":{"ha":417,"x_min":97,"x_max":319,"o":"m 121 283 l 97 1024 l 319 1024 l 297 283 l 121 283 m 108 0 l 108 196 l 310 196 l 310 0 l 108 0 z "},"¡":{"ha":417,"x_min":97,"x_max":319,"o":"m 108 529 l 108 725 l 310 725 l 310 529 l 108 529 m 97 -299 l 121 443 l 297 443 l 319 -299 l 97 -299 z "},"?":{"ha":853,"x_min":51,"x_max":776,"o":"m 311 279 l 311 521 l 569 689 l 569 810 l 515 864 l 314 864 l 190 744 l 51 876 l 199 1024 l 626 1024 l 776 878 l 776 599 l 490 418 l 490 279 l 311 279 m 300 0 l 300 196 l 501 196 l 501 0 l 300 0 z "},"¿":{"ha":860,"x_min":83,"x_max":808,"o":"m 358 529 l 358 725 l 560 725 l 560 529 l 358 529 m 233 -299 l 83 -153 l 83 128 l 369 307 l 369 446 l 547 446 l 547 204 l 289 36 l 289 -83 l 344 -139 l 546 -139 l 668 -18 l 808 -151 l 661 -299 l 233 -299 z "},"·":{"ha":396,"x_min":97,"x_max":299,"o":"m 97 414 l 97 610 l 299 610 l 299 414 l 97 414 z "},"•":{"ha":613,"x_min":97,"x_max":513,"o":"m 213 304 l 97 421 l 97 603 l 213 719 l 396 719 l 513 603 l 513 421 l 396 304 l 213 304 z "},"*":{"ha":651,"x_min":76,"x_max":575,"o":"m 246 549 l 129 635 l 224 751 l 76 789 l 122 928 l 263 871 l 253 1024 l 399 1024 l 389 872 l 529 931 l 575 792 l 429 753 l 528 636 l 410 550 l 328 676 l 246 549 z "},"#":{"ha":1131,"x_min":97,"x_max":1033,"o":"m 235 0 l 253 131 l 97 131 l 97 300 l 278 300 l 296 429 l 138 429 l 138 597 l 318 597 l 336 725 l 550 725 l 532 597 l 663 597 l 681 725 l 894 725 l 876 597 l 1033 597 l 1033 429 l 854 429 l 836 300 l 992 300 l 992 131 l 813 131 l 794 0 l 581 0 l 599 131 l 467 131 l 449 0 l 235 0 m 492 300 l 622 300 l 640 429 l 510 429 l 492 300 z "},"/":{"ha":708,"x_min":25,"x_max":683,"o":"m 25 -151 l 454 1024 l 683 1024 l 254 -151 l 25 -151 z "},"\\":{"ha":708,"x_min":25,"x_max":683,"o":"m 454 -151 l 25 1024 l 254 1024 l 683 -151 l 454 -151 z "},"(":{"ha":544,"x_min":97,"x_max":496,"o":"m 331 -260 l 97 -21 l 97 936 l 331 1175 l 496 1175 l 496 1024 l 429 1024 l 297 892 l 297 25 l 429 -108 l 496 -108 l 496 -260 l 331 -260 z "},")":{"ha":544,"x_min":49,"x_max":447,"o":"m 49 -260 l 49 -108 l 115 -108 l 247 25 l 247 890 l 115 1024 l 49 1024 l 49 1175 l 214 1175 l 447 936 l 447 -21 l 214 -260 l 49 -260 z "},"{":{"ha":660,"x_min":97,"x_max":618,"o":"m 360 -260 l 218 -112 l 218 340 l 175 383 l 97 383 l 97 532 l 175 532 l 218 575 l 218 1028 l 360 1175 l 618 1175 l 618 1024 l 457 1024 l 418 985 l 418 543 l 333 457 l 418 372 l 418 -69 l 457 -108 l 618 -108 l 618 -260 l 360 -260 z "},"}":{"ha":660,"x_min":43,"x_max":563,"o":"m 43 -260 l 43 -108 l 203 -108 l 242 -69 l 242 372 l 326 458 l 242 543 l 242 985 l 203 1024 l 43 1024 l 43 1175 l 301 1175 l 442 1028 l 442 575 l 485 532 l 563 532 l 563 383 l 485 383 l 442 340 l 442 -112 l 301 -260 l 43 -260 z "},"[":{"ha":532,"x_min":97,"x_max":483,"o":"m 97 -260 l 97 1175 l 483 1175 l 483 1024 l 297 1024 l 297 -108 l 483 -108 l 483 -260 l 97 -260 z "},"]":{"ha":532,"x_min":49,"x_max":435,"o":"m 49 -260 l 49 -108 l 235 -108 l 235 1024 l 49 1024 l 49 1175 l 435 1175 l 435 -260 l 49 -260 z "},"-":{"ha":644,"x_min":93,"x_max":551,"o":"m 93 314 l 93 475 l 551 475 l 551 314 l 93 314 z "},"­":{"ha":758,"x_min":88,"x_max":546,"o":"m 88 314 l 88 475 l 546 475 l 546 314 l 88 314 z "},"–":{"ha":922,"x_min":88,"x_max":835,"o":"m 88 292 l 88 453 l 835 453 l 835 292 l 88 292 z "},"—":{"ha":1265,"x_min":88,"x_max":1168,"o":"m 88 292 l 88 453 l 1168 453 l 1168 292 l 88 292 z "},"‐":{"ha":875,"x_min":88,"x_max":546,"o":"m 88 314 l 88 475 l 546 475 l 546 314 l 88 314 z "},"_":{"ha":831,"x_min":25,"x_max":806,"o":"m 25 -249 l 25 -87 l 806 -87 l 806 -249 l 25 -249 z "},"‚":{"ha":417,"x_min":76,"x_max":340,"o":"m 76 -204 l 128 144 l 340 144 l 207 -204 l 76 -204 z "},"„":{"ha":665,"x_min":78,"x_max":597,"o":"m 333 -204 l 385 144 l 597 144 l 464 -204 l 333 -204 m 78 -204 l 129 144 l 340 144 l 207 -204 l 78 -204 z "},"“":{"ha":678,"x_min":76,"x_max":600,"o":"m 338 675 l 469 1024 l 600 1024 l 549 675 l 338 675 m 76 675 l 208 1024 l 339 1024 l 288 675 l 76 675 z "},"”":{"ha":678,"x_min":76,"x_max":601,"o":"m 76 675 l 128 1024 l 340 1024 l 207 675 l 76 675 m 339 675 l 390 1024 l 601 1024 l 468 675 l 339 675 z "},"‘":{"ha":417,"x_min":76,"x_max":339,"o":"m 76 675 l 208 1024 l 339 1024 l 288 675 l 76 675 z "},"’":{"ha":417,"x_min":76,"x_max":340,"o":"m 76 675 l 128 1024 l 340 1024 l 207 675 l 76 675 z "},"«":{"ha":963,"x_min":44,"x_max":917,"o":"m 679 0 l 410 364 l 679 725 l 917 725 l 647 364 l 917 0 l 679 0 m 314 0 l 44 364 l 314 725 l 551 725 l 282 364 l 551 0 l 314 0 z "},"»":{"ha":963,"x_min":46,"x_max":918,"o":"m 411 0 l 681 364 l 411 725 l 649 725 l 918 364 l 649 0 l 411 0 m 46 0 l 315 364 l 46 725 l 283 725 l 553 364 l 283 0 l 46 0 z "},"‹":{"ha":597,"x_min":46,"x_max":551,"o":"m 314 0 l 46 364 l 314 725 l 551 725 l 282 364 l 551 0 l 314 0 z "},"›":{"ha":597,"x_min":46,"x_max":551,"o":"m 46 0 l 314 364 l 46 725 l 282 725 l 551 364 l 282 0 l 46 0 z "},"\"":{"ha":586,"x_min":78,"x_max":510,"o":"m 356 675 l 315 1024 l 510 1024 l 471 675 l 356 675 m 117 675 l 78 1024 l 271 1024 l 232 675 l 117 675 z "},"'":{"ha":347,"x_min":76,"x_max":271,"o":"m 117 675 l 76 1024 l 271 1024 l 232 675 l 117 675 z "},"⟨":{"ha":649,"x_min":97,"x_max":607,"o":"m 367 -260 l 97 467 l 367 1192 l 607 1192 l 336 467 l 607 -260 l 367 -260 z "},"⟩":{"ha":642,"x_min":35,"x_max":544,"o":"m 35 -260 l 304 467 l 35 1192 l 275 1192 l 544 467 l 275 -260 l 35 -260 z "}," ":{"ha":332,"x_min":0,"x_max":0,"o":""},"₵":{"ha":935,"x_min":76,"x_max":893,"o":"m 369 -153 l 369 0 l 231 0 l 76 154 l 76 869 l 231 1024 l 369 1024 l 369 1176 l 581 1176 l 581 1024 l 735 1024 l 883 876 l 746 744 l 639 849 l 349 849 l 293 794 l 293 231 l 349 175 l 650 175 l 756 279 l 893 147 l 746 0 l 581 0 l 581 -153 l 369 -153 z "},"¢":{"ha":821,"x_min":81,"x_max":761,"o":"m 333 -7 l 333 146 l 235 146 l 81 300 l 81 717 l 235 871 l 333 871 l 333 1017 l 517 1017 l 517 871 l 618 871 l 761 736 l 761 597 l 547 597 l 547 676 l 492 733 l 350 733 l 294 675 l 294 360 l 347 304 l 750 304 l 750 146 l 517 146 l 517 -7 l 333 -7 z "},"₡":{"ha":935,"x_min":76,"x_max":893,"o":"m 261 -151 l 269 0 l 231 0 l 76 154 l 76 869 l 231 1024 l 331 1024 l 340 1176 l 482 1176 l 472 1024 l 536 1024 l 546 1176 l 688 1176 l 678 1024 l 735 1024 l 883 876 l 746 744 l 639 849 l 349 849 l 293 794 l 293 231 l 349 175 l 650 175 l 756 279 l 893 147 l 746 0 l 617 0 l 607 -151 l 467 -151 l 475 0 l 411 0 l 403 -151 l 261 -151 z "},"¤":{"ha":874,"x_min":90,"x_max":783,"o":"m 200 117 l 90 226 l 168 304 l 143 329 l 143 510 l 168 535 l 90 613 l 200 722 l 276 646 l 303 672 l 571 672 l 597 646 l 674 722 l 783 613 l 706 535 l 731 510 l 731 329 l 706 304 l 783 226 l 674 117 l 597 193 l 571 167 l 303 167 l 276 193 l 200 117 m 399 308 l 475 308 l 528 365 l 528 472 l 475 529 l 399 529 l 346 472 l 346 365 l 399 308 z "},"$":{"ha":967,"x_min":69,"x_max":897,"o":"m 388 -153 l 388 0 l 107 0 l 107 183 l 628 183 l 682 239 l 682 382 l 628 438 l 224 436 l 69 592 l 69 869 l 224 1024 l 388 1024 l 388 1176 l 599 1176 l 599 1024 l 842 1024 l 842 840 l 339 840 l 285 785 l 285 672 l 339 617 l 743 617 l 897 463 l 897 154 l 743 0 l 599 0 l 599 -153 l 388 -153 z "},"₫":{"ha":919,"x_min":94,"x_max":906,"o":"m 249 0 l 94 154 l 94 571 l 249 726 l 510 726 l 614 628 l 614 779 l 435 779 l 435 931 l 614 931 l 614 1024 l 828 1024 l 828 931 l 906 931 l 906 779 l 828 779 l 828 0 l 614 0 l 614 97 l 508 0 l 249 0 m 479 139 l 614 267 l 614 460 l 479 586 l 351 588 l 304 538 l 304 188 l 351 139 l 479 139 m 99 -264 l 99 -104 l 846 -104 l 846 -264 l 99 -264 z "},"€":{"ha":1047,"x_min":76,"x_max":1006,"o":"m 342 0 l 188 154 l 188 343 l 76 343 l 76 496 l 188 496 l 188 565 l 76 565 l 76 718 l 188 718 l 188 869 l 342 1024 l 847 1024 l 994 876 l 857 744 l 751 849 l 460 849 l 404 794 l 404 718 l 710 718 l 710 565 l 404 565 l 404 496 l 640 496 l 640 343 l 404 343 l 404 231 l 460 175 l 763 175 l 868 279 l 1006 147 l 858 0 l 342 0 z "},"ƒ":{"ha":482,"x_min":-53,"x_max":482,"o":"m -53 -157 l -53 -12 l 58 -12 l 107 36 l 107 588 l 50 588 l 50 725 l 107 725 l 107 878 l 258 1024 l 482 1024 l 482 879 l 371 879 l 321 831 l 321 725 l 449 725 l 449 588 l 321 588 l 321 -12 l 171 -157 l -53 -157 z "},"₣":{"ha":897,"x_min":56,"x_max":879,"o":"m 153 0 l 153 156 l 56 156 l 56 306 l 153 306 l 153 1024 l 879 1024 l 879 839 l 369 839 l 369 597 l 817 597 l 817 419 l 369 419 l 369 306 l 538 306 l 538 156 l 369 156 l 369 0 l 153 0 z "},"₲":{"ha":1024,"x_min":76,"x_max":926,"o":"m 396 -153 l 396 0 l 231 0 l 76 154 l 76 869 l 231 1024 l 396 1024 l 396 1176 l 607 1176 l 607 1024 l 771 1024 l 918 876 l 781 744 l 675 849 l 349 849 l 293 794 l 293 231 l 349 175 l 590 175 l 738 304 l 738 381 l 526 381 l 526 556 l 926 556 l 926 0 l 744 0 l 744 97 l 635 0 l 607 0 l 607 -153 l 396 -153 z "},"₭":{"ha":1000,"x_min":63,"x_max":996,"o":"m 151 0 l 151 500 l 63 500 l 63 650 l 151 650 l 151 1024 l 368 1024 l 368 650 l 440 650 l 750 1024 l 996 1024 l 686 650 l 949 650 l 949 500 l 679 500 l 996 0 l 753 0 l 446 500 l 368 500 l 368 0 l 151 0 z "},"₤":{"ha":993,"x_min":76,"x_max":922,"o":"m 76 0 l 76 185 l 188 185 l 188 322 l 83 322 l 83 475 l 188 475 l 188 544 l 83 544 l 83 697 l 188 697 l 188 869 l 342 1024 l 775 1024 l 922 876 l 785 744 l 679 849 l 460 849 l 404 796 l 404 697 l 663 697 l 663 544 l 404 544 l 404 475 l 663 475 l 663 322 l 404 322 l 404 185 l 922 185 l 922 0 l 76 0 z "},"₺":{"ha":915,"x_min":76,"x_max":839,"o":"m 181 0 l 181 419 l 76 382 l 76 543 l 181 579 l 181 651 l 76 615 l 76 776 l 181 813 l 181 1024 l 397 1024 l 397 889 l 619 968 l 619 806 l 397 728 l 397 656 l 619 735 l 619 574 l 397 496 l 397 183 l 568 183 l 622 238 l 622 486 l 839 486 l 839 154 l 685 0 l 181 0 z "},"₼":{"ha":1013,"x_min":76,"x_max":936,"o":"m 76 0 l 76 739 l 231 893 l 401 893 l 401 1024 l 611 1024 l 611 893 l 781 893 l 936 739 l 936 0 l 718 0 l 718 656 l 663 711 l 611 711 l 611 0 l 401 0 l 401 711 l 349 711 l 293 656 l 293 0 l 76 0 z "},"₦":{"ha":1163,"x_min":76,"x_max":1121,"o":"m 179 0 l 179 322 l 76 322 l 76 475 l 179 475 l 179 544 l 76 544 l 76 697 l 179 697 l 179 1024 l 433 1024 l 808 361 l 808 1024 l 1018 1024 l 1018 697 l 1121 697 l 1121 544 l 1018 544 l 1018 475 l 1121 475 l 1121 322 l 1018 322 l 1018 0 l 801 0 l 429 657 l 389 657 l 389 0 l 179 0 z "},"₧":{"ha":1092,"x_min":76,"x_max":1068,"o":"m 181 0 l 181 600 l 76 600 l 76 753 l 181 753 l 181 1024 l 811 1024 l 965 869 l 965 753 l 1068 753 l 1068 600 l 965 600 l 965 492 l 811 338 l 397 338 l 397 0 l 181 0 m 397 513 l 697 513 l 753 567 l 751 794 l 697 849 l 397 849 l 397 513 z "},"₱":{"ha":1093,"x_min":76,"x_max":1068,"o":"m 181 0 l 181 492 l 76 492 l 76 644 l 181 644 l 181 719 l 76 719 l 76 872 l 181 872 l 181 1024 l 811 1024 l 963 872 l 1068 872 l 1068 719 l 965 719 l 965 644 l 1068 644 l 1068 492 l 965 492 l 811 338 l 397 338 l 397 0 l 181 0 m 397 513 l 697 513 l 753 567 l 751 794 l 697 849 l 397 849 l 397 513 z "},"₽":{"ha":990,"x_min":76,"x_max":965,"o":"m 181 0 l 181 117 l 76 117 l 76 269 l 181 269 l 181 344 l 76 344 l 76 513 l 181 513 l 181 1024 l 811 1024 l 965 869 l 965 499 l 811 344 l 397 344 l 397 269 l 794 269 l 794 117 l 397 117 l 397 0 l 181 0 m 397 513 l 697 513 l 753 567 l 751 794 l 697 849 l 397 849 l 397 513 z "},"₹":{"ha":853,"x_min":104,"x_max":828,"o":"m 461 0 l 104 363 l 104 538 l 429 538 l 485 592 l 485 629 l 104 629 l 104 782 l 485 782 l 485 817 l 429 871 l 104 871 l 104 1024 l 828 1024 l 828 871 l 697 871 l 697 782 l 828 782 l 828 629 l 697 629 l 697 517 l 543 363 l 383 363 l 747 0 l 461 0 z "},"£":{"ha":993,"x_min":76,"x_max":924,"o":"m 76 0 l 76 185 l 188 185 l 188 425 l 76 425 l 76 592 l 188 592 l 188 869 l 342 1024 l 775 1024 l 922 876 l 785 744 l 679 849 l 461 849 l 404 796 l 404 592 l 697 592 l 697 425 l 404 425 l 404 185 l 924 185 l 924 0 l 76 0 z "},"₩":{"ha":1499,"x_min":78,"x_max":1457,"o":"m 331 0 l 249 369 l 78 369 l 78 522 l 215 522 l 200 590 l 78 590 l 78 743 l 167 743 l 104 1024 l 346 1024 l 482 181 l 524 181 l 661 1024 l 872 1024 l 1010 181 l 1050 181 l 1188 1024 l 1429 1024 l 1367 743 l 1457 743 l 1457 590 l 1333 590 l 1318 522 l 1457 522 l 1457 369 l 1285 369 l 1203 0 l 865 0 l 767 560 l 668 0 l 331 0 z "},"¥":{"ha":938,"x_min":11,"x_max":926,"o":"m 361 0 l 361 207 l 82 207 l 82 360 l 361 360 l 301 428 l 82 428 l 82 581 l 226 581 l 11 1024 l 260 1024 l 449 564 l 490 564 l 678 1024 l 926 1024 l 711 581 l 856 581 l 856 428 l 636 428 l 576 360 l 856 360 l 856 207 l 576 207 l 576 0 l 361 0 z "},"∙":{"ha":403,"x_min":94,"x_max":296,"o":"m 94 414 l 94 611 l 296 611 l 296 414 l 94 414 z "},"⁒":{"ha":947,"x_min":88,"x_max":861,"o":"m 214 -28 l 88 61 l 735 1051 l 861 963 l 214 -28 m 154 828 l 154 1024 l 356 1024 l 356 828 l 154 828 m 593 0 l 593 196 l 796 196 l 796 0 l 593 0 z "},"∕":{"ha":1031,"x_min":100,"x_max":936,"o":"m 214 -92 l 100 -17 l 821 1115 l 936 1042 l 214 -92 z "},"+":{"ha":815,"x_min":88,"x_max":729,"o":"m 328 190 l 328 432 l 88 432 l 88 592 l 328 592 l 328 832 l 488 832 l 488 592 l 729 592 l 729 432 l 488 432 l 488 190 l 328 190 z "},"−":{"ha":815,"x_min":88,"x_max":729,"o":"m 88 432 l 88 592 l 729 592 l 729 432 l 88 432 z "},"×":{"ha":935,"x_min":88,"x_max":847,"o":"m 735 131 l 468 397 l 203 132 l 89 246 l 353 511 l 88 778 l 200 892 l 467 625 l 735 892 l 847 778 l 581 511 l 847 243 l 735 131 z "},"÷":{"ha":907,"x_min":88,"x_max":821,"o":"m 374 735 l 374 883 l 533 883 l 533 735 l 374 735 m 88 432 l 88 592 l 821 592 l 821 432 l 88 432 m 374 140 l 374 289 l 533 289 l 533 140 l 374 140 z "},"=":{"ha":907,"x_min":88,"x_max":821,"o":"m 88 589 l 88 749 l 821 749 l 821 589 l 88 589 m 88 275 l 88 436 l 821 436 l 821 275 l 88 275 z "},"≠":{"ha":907,"x_min":88,"x_max":821,"o":"m 238 47 l 108 142 l 199 275 l 88 275 l 88 436 l 307 436 l 410 589 l 88 589 l 88 749 l 518 749 l 672 976 l 799 882 l 708 749 l 821 749 l 821 589 l 601 589 l 499 436 l 821 436 l 821 275 l 390 275 l 238 47 z "},">":{"ha":660,"x_min":88,"x_max":572,"o":"m 200 139 l 88 254 l 344 511 l 88 769 l 200 885 l 572 511 l 200 139 z "},"<":{"ha":660,"x_min":88,"x_max":572,"o":"m 460 139 l 88 513 l 460 885 l 572 769 l 315 513 l 572 254 l 460 139 z "},"≥":{"ha":681,"x_min":97,"x_max":583,"o":"m 97 0 l 97 161 l 190 161 l 97 254 l 356 511 l 97 769 l 211 885 l 583 511 l 232 161 l 583 161 l 583 0 l 97 0 z "},"≤":{"ha":681,"x_min":97,"x_max":583,"o":"m 97 0 l 97 161 l 449 161 l 97 513 l 469 885 l 583 769 l 325 513 l 583 254 l 490 161 l 583 161 l 583 0 l 97 0 z "},"±":{"ha":815,"x_min":88,"x_max":729,"o":"m 328 236 l 328 478 l 88 478 l 88 638 l 328 638 l 328 878 l 488 878 l 488 638 l 729 638 l 729 478 l 488 478 l 488 236 l 328 236 m 88 0 l 88 160 l 729 160 l 729 0 l 88 0 z "},"≈":{"ha":894,"x_min":97,"x_max":797,"o":"m 440 550 l 346 660 l 301 660 l 261 607 l 261 556 l 97 556 l 99 672 l 210 786 l 453 786 l 547 676 l 592 676 l 633 728 l 633 781 l 797 781 l 796 664 l 683 550 l 440 550 m 440 244 l 346 354 l 301 354 l 261 301 l 261 250 l 97 250 l 99 367 l 210 481 l 453 481 l 547 371 l 592 371 l 633 422 l 633 475 l 797 475 l 796 358 l 683 244 l 440 244 z "},"~":{"ha":894,"x_min":97,"x_max":797,"o":"m 440 400 l 346 510 l 301 510 l 261 458 l 261 407 l 97 407 l 99 524 l 210 638 l 453 638 l 547 526 l 592 526 l 633 579 l 633 631 l 797 631 l 796 514 l 683 400 l 440 400 z "},"¬":{"ha":861,"x_min":88,"x_max":774,"o":"m 613 382 l 613 564 l 88 564 l 88 725 l 774 725 l 774 382 l 613 382 z "},"^":{"ha":858,"x_min":97,"x_max":761,"o":"m 97 725 l 317 1024 l 542 1024 l 761 725 l 571 725 l 429 865 l 288 725 l 97 725 z "},"µ":{"ha":907,"x_min":88,"x_max":810,"o":"m 88 -260 l 88 726 l 301 726 l 301 193 l 354 138 l 453 138 l 596 271 l 596 725 l 810 725 l 810 -1 l 596 -1 l 596 100 l 483 -1 l 301 -1 l 301 -260 l 88 -260 z "},"%":{"ha":1347,"x_min":88,"x_max":1260,"o":"m 249 -33 l 136 76 l 1099 1057 l 1210 947 l 249 -33 m 242 518 l 88 669 l 88 871 l 242 1024 l 475 1024 l 631 871 l 631 669 l 475 518 l 242 518 m 324 672 l 394 672 l 451 729 l 451 811 l 394 869 l 324 869 l 267 811 l 267 729 l 324 672 m 872 0 l 717 153 l 717 354 l 872 506 l 1104 506 l 1260 354 l 1260 153 l 1104 0 l 872 0 m 953 156 l 1024 156 l 1081 213 l 1081 294 l 1024 351 l 953 351 l 896 294 l 896 213 l 953 156 z "},"‰":{"ha":1950,"x_min":88,"x_max":1864,"o":"m 249 -33 l 136 76 l 1099 1057 l 1210 947 l 249 -33 m 242 518 l 88 669 l 88 871 l 242 1024 l 475 1024 l 631 871 l 631 669 l 475 518 l 242 518 m 324 672 l 394 672 l 451 729 l 451 811 l 394 869 l 324 869 l 267 811 l 267 729 l 324 672 m 872 0 l 717 153 l 717 354 l 872 506 l 1104 506 l 1260 354 l 1260 153 l 1104 0 l 872 0 m 1474 0 l 1319 153 l 1319 354 l 1474 506 l 1707 506 l 1864 354 l 1864 153 l 1707 0 l 1474 0 m 953 156 l 1024 156 l 1081 213 l 1081 294 l 1024 351 l 953 351 l 896 294 l 896 213 l 953 156 m 1556 156 l 1626 156 l 1683 213 l 1683 294 l 1626 351 l 1556 351 l 1499 294 l 1499 213 l 1556 156 z "},"◊":{"ha":839,"x_min":7,"x_max":832,"o":"m 325 0 l 7 486 l 7 538 l 325 1024 l 513 1024 l 832 538 l 832 486 l 513 0 l 325 0 m 419 221 l 610 511 l 419 803 l 229 511 l 419 221 z "},"@":{"ha":1554,"x_min":76,"x_max":1478,"o":"m 315 -260 l 76 -32 l 76 796 l 315 1024 l 1215 1024 l 1453 796 l 1453 172 l 1307 35 l 993 35 l 908 128 l 810 35 l 567 35 l 417 179 l 417 581 l 567 725 l 792 725 l 879 642 l 879 725 l 1093 725 l 1093 233 l 1143 182 l 1200 182 l 1250 233 l 1250 718 l 1094 869 l 436 869 l 279 718 l 279 42 l 436 -108 l 1250 -108 l 1369 4 l 1478 -114 l 1324 -260 l 315 -260 m 692 172 l 783 172 l 879 256 l 879 493 l 776 588 l 692 588 l 629 525 l 629 235 l 692 172 z "},"&":{"ha":1146,"x_min":104,"x_max":1069,"o":"m 935 -17 l 828 90 l 743 0 l 256 0 l 104 146 l 104 360 l 278 525 l 315 553 l 164 696 l 164 878 l 315 1024 l 679 1024 l 829 878 l 829 700 l 688 564 l 644 535 l 824 358 l 935 476 l 1069 343 l 956 226 l 1067 115 l 935 -17 m 485 643 l 531 658 l 613 739 l 613 822 l 557 878 l 443 878 l 386 822 l 388 739 l 485 643 m 392 144 l 618 144 l 690 219 l 475 432 l 443 410 l 338 307 l 336 200 l 392 144 z "},"¶":{"ha":1182,"x_min":81,"x_max":1094,"o":"m 497 -172 l 497 317 l 246 317 l 81 482 l 81 857 l 246 1022 l 1094 1022 l 1094 871 l 990 871 l 990 -172 l 779 -172 l 779 871 l 708 871 l 708 -172 l 497 -172 z "},"§":{"ha":944,"x_min":122,"x_max":824,"o":"m 147 -92 l 147 60 l 565 60 l 613 107 l 613 161 l 568 206 l 326 206 l 122 393 l 122 585 l 203 665 l 122 740 l 122 878 l 269 1024 l 771 1024 l 771 872 l 392 872 l 349 828 l 349 786 l 400 735 l 608 735 l 824 533 l 824 347 l 750 276 l 824 207 l 824 49 l 682 -92 l 147 -92 m 415 360 l 583 360 l 628 404 l 628 478 l 519 582 l 360 582 l 318 536 l 318 450 l 415 360 z "},"©":{"ha":1426,"x_min":76,"x_max":1350,"o":"m 315 -87 l 76 140 l 76 796 l 315 1024 l 1113 1024 l 1350 796 l 1350 140 l 1113 -87 l 315 -87 m 429 67 l 997 67 l 1147 210 l 1147 725 l 997 869 l 429 869 l 279 725 l 279 210 l 429 67 m 544 147 l 392 297 l 392 640 l 544 792 l 893 792 l 1011 676 l 899 568 l 799 657 l 663 657 l 597 593 l 597 346 l 663 281 l 801 281 l 907 376 l 1019 268 l 896 147 l 544 147 z "},"®":{"ha":1185,"x_min":76,"x_max":1108,"o":"m 290 115 l 76 319 l 76 821 l 290 1024 l 894 1024 l 1108 821 l 1108 319 l 894 115 l 290 115 m 390 258 l 794 258 l 917 375 l 917 765 l 794 882 l 390 882 l 267 765 l 267 375 l 390 258 m 365 340 l 365 800 l 740 800 l 825 718 l 825 556 l 764 496 l 840 342 l 654 340 l 590 474 l 549 474 l 549 340 l 365 340 m 549 571 l 621 571 l 656 604 l 656 658 l 621 693 l 549 693 l 549 571 z "},"™":{"ha":1254,"x_min":25,"x_max":1150,"o":"m 528 461 l 528 1024 l 753 1024 l 839 749 l 924 1024 l 1150 1024 l 1150 461 l 981 461 l 981 756 l 886 471 l 790 471 l 696 756 l 696 461 l 528 461 m 165 461 l 165 886 l 25 886 l 25 1024 l 474 1024 l 474 886 l 335 886 l 335 461 l 165 461 z "},"°":{"ha":604,"x_min":32,"x_max":500,"o":"m 178 550 l 32 696 l 32 876 l 178 1024 l 353 1024 l 500 876 l 500 696 l 353 550 l 178 550 m 174 696 l 357 696 l 357 878 l 174 878 l 174 696 z "},"′":{"ha":417,"x_min":76,"x_max":340,"o":"m 76 675 l 128 1024 l 340 1024 l 207 675 l 76 675 z "},"″":{"ha":678,"x_min":76,"x_max":601,"o":"m 76 675 l 128 1024 l 340 1024 l 207 675 l 76 675 m 339 675 l 389 1024 l 601 1024 l 468 675 l 339 675 z "},"|":{"ha":419,"x_min":104,"x_max":315,"o":"m 104 -193 l 104 1125 l 315 1125 l 315 -193 l 104 -193 z "},"¦":{"ha":419,"x_min":104,"x_max":315,"o":"m 104 626 l 104 1125 l 315 1125 l 315 626 l 104 626 m 104 -193 l 104 306 l 315 306 l 315 -193 l 104 -193 z "},"†":{"ha":631,"x_min":14,"x_max":617,"o":"m 210 -56 l 210 561 l 14 561 l 14 718 l 210 718 l 210 947 l 421 947 l 421 718 l 617 718 l 617 561 l 421 561 l 421 -56 l 210 -56 z "},"‡":{"ha":631,"x_min":14,"x_max":617,"o":"m 210 -56 l 210 165 l 14 165 l 14 324 l 210 324 l 210 569 l 14 569 l 14 726 l 210 726 l 210 947 l 421 947 l 421 726 l 617 726 l 617 569 l 421 569 l 421 324 l 617 324 l 617 165 l 421 165 l 421 -56 l 210 -56 z "},"№":{"ha":1658,"x_min":103,"x_max":1554,"o":"m 1165 518 l 1010 671 l 1010 871 l 1165 1025 l 1399 1025 l 1554 871 l 1554 671 l 1399 518 l 1165 518 m 103 0 l 103 1024 l 357 1024 l 732 361 l 732 1024 l 942 1024 l 942 0 l 725 0 l 354 657 l 313 657 l 313 0 l 103 0 m 1246 672 l 1317 672 l 1375 731 l 1375 811 l 1317 869 l 1246 869 l 1189 811 l 1189 731 l 1246 672 m 1033 299 l 1033 454 l 1531 454 l 1531 299 l 1033 299 z "},"ʼ":{"ha":417,"x_min":76,"x_max":340,"o":"m 76 675 l 128 1024 l 340 1024 l 207 675 l 76 675 z "},"ʺ":{"ha":678,"x_min":76,"x_max":601,"o":"m 339 675 l 390 1024 l 601 1024 l 468 675 l 339 675 m 76 675 l 128 1024 l 340 1024 l 207 675 l 76 675 z "},"ʹ":{"ha":417,"x_min":76,"x_max":340,"o":"m 76 675 l 128 1024 l 340 1024 l 207 675 l 76 675 z "},"̈":{"ha":0,"x_min":-646,"x_max":-58,"o":"m -264 1104 l -264 1288 l -58 1288 l -58 1104 l -264 1104 m -646 1104 l -646 1288 l -440 1288 l -440 1104 l -646 1104 z "},"̇":{"ha":0,"x_min":-300,"x_max":-86,"o":"m -300 1104 l -300 1288 l -86 1288 l -86 1104 l -300 1104 z "},"̀":{"ha":0,"x_min":-421,"x_max":-56,"o":"m -221 1104 l -421 1319 l -199 1319 l -56 1104 l -221 1104 z "},"́":{"ha":0,"x_min":-410,"x_max":-43,"o":"m -410 1104 l -267 1319 l -43 1319 l -244 1104 l -410 1104 z "},"̋":{"ha":0,"x_min":-689,"x_max":-50,"o":"m -408 1104 l -265 1319 l -50 1319 l -250 1104 l -408 1104 m -689 1104 l -546 1319 l -331 1319 l -531 1104 l -689 1104 z "},"̂":{"ha":0,"x_min":-579,"x_max":-50,"o":"m -579 1104 l -428 1308 l -201 1308 l -50 1104 l -219 1104 l -315 1201 l -411 1104 l -579 1104 z "},"̌":{"ha":0,"x_min":-579,"x_max":-50,"o":"m -428 1104 l -579 1308 l -411 1308 l -315 1211 l -219 1308 l -50 1308 l -201 1104 l -428 1104 z "},"̆":{"ha":0,"x_min":-529,"x_max":-50,"o":"m -422 1104 l -529 1206 l -529 1308 l -382 1308 l -382 1247 l -357 1224 l -222 1224 l -199 1247 l -199 1308 l -50 1308 l -50 1206 l -158 1104 l -422 1104 z "},"̊":{"ha":0,"x_min":-401,"x_max":-50,"o":"m -304 1104 l -401 1200 l -401 1310 l -304 1407 l -147 1407 l -50 1310 l -50 1200 l -147 1104 l -304 1104 m -244 1204 l -207 1204 l -175 1236 l -175 1274 l -207 1306 l -244 1306 l -276 1274 l -276 1236 l -244 1204 z "},"̃":{"ha":0,"x_min":-639,"x_max":-56,"o":"m -353 1104 l -433 1193 l -469 1193 l -503 1146 l -503 1111 l -639 1111 l -637 1217 l -544 1311 l -343 1311 l -262 1225 l -226 1225 l -193 1268 l -193 1304 l -56 1304 l -57 1200 l -150 1104 l -353 1104 z "},"̄":{"ha":0,"x_min":-618,"x_max":-31,"o":"m -618 1104 l -618 1249 l -31 1249 l -31 1104 l -618 1104 z "},"̉":{"ha":0,"x_min":-397,"x_max":-58,"o":"m -303 1104 l -303 1210 l -206 1278 l -206 1315 l -254 1315 l -254 1281 l -397 1281 l -397 1350 l -332 1413 l -122 1413 l -58 1351 l -58 1226 l -158 1160 l -158 1104 l -303 1104 z "},"̏":{"ha":0,"x_min":-689,"x_max":-50,"o":"m -489 1104 l -689 1319 l -474 1319 l -331 1104 l -489 1104 m -208 1104 l -408 1319 l -194 1319 l -50 1104 l -208 1104 z "},"̑":{"ha":0,"x_min":-529,"x_max":-50,"o":"m -529 1104 l -529 1206 l -422 1308 l -158 1308 l -50 1206 l -50 1104 l -199 1104 l -199 1167 l -222 1189 l -357 1189 l -382 1167 l -382 1104 l -529 1104 z "},"̒":{"ha":0,"x_min":-337,"x_max":-75,"o":"m -337 1104 l -194 1357 l -75 1357 l -136 1104 l -337 1104 z "},"̛":{"ha":0,"x_min":-383,"x_max":-49,"o":"m -383 801 l -383 917 l -286 917 l -262 1081 l -49 1081 l -171 801 l -383 801 z "},"̣":{"ha":0,"x_min":-290,"x_max":-76,"o":"m -290 -264 l -290 -79 l -76 -79 l -76 -264 l -290 -264 z "},"̦":{"ha":0,"x_min":-317,"x_max":-54,"o":"m -317 -333 l -256 -79 l -54 -79 l -197 -333 l -317 -333 z "},"̧":{"ha":0,"x_min":-256,"x_max":-50,"o":"m -256 -174 l -228 0 l -50 0 l -112 -174 l -256 -174 z "},"̨":{"ha":0,"x_min":-236,"x_max":-43,"o":"m -142 -244 l -236 -154 l -236 -46 l -174 0 l -51 0 l -111 -50 l -111 -90 l -85 -117 l -43 -117 l -43 -244 l -142 -244 z "},"̵":{"ha":0,"x_min":-522,"x_max":-53,"o":"m -522 319 l -522 471 l -53 471 l -53 319 l -522 319 z "},"´":{"ha":465,"x_min":56,"x_max":421,"o":"m 56 1104 l 199 1319 l 421 1319 l 221 1104 l 56 1104 z "},"˘":{"ha":593,"x_min":65,"x_max":543,"o":"m 172 1104 l 65 1206 l 65 1308 l 213 1308 l 213 1247 l 236 1224 l 371 1224 l 396 1247 l 396 1308 l 543 1308 l 543 1206 l 435 1104 l 172 1104 z "},"ˇ":{"ha":663,"x_min":83,"x_max":611,"o":"m 235 1104 l 83 1308 l 251 1308 l 347 1211 l 443 1308 l 611 1308 l 461 1104 l 235 1104 z "},"¸":{"ha":306,"x_min":51,"x_max":256,"o":"m 51 -174 l 78 0 l 256 0 l 193 -174 l 51 -174 z "},"ˆ":{"ha":643,"x_min":65,"x_max":593,"o":"m 65 1104 l 215 1308 l 442 1308 l 593 1104 l 424 1104 l 329 1201 l 233 1104 l 65 1104 z "},"¨":{"ha":703,"x_min":65,"x_max":653,"o":"m 447 1104 l 447 1288 l 653 1288 l 653 1104 l 447 1104 m 65 1104 l 65 1288 l 271 1288 l 271 1104 l 65 1104 z "},"˙":{"ha":400,"x_min":97,"x_max":311,"o":"m 97 1104 l 97 1288 l 311 1288 l 311 1104 l 97 1104 z "},"`":{"ha":465,"x_min":44,"x_max":410,"o":"m 244 1092 l 44 1308 l 267 1308 l 410 1092 l 244 1092 z "},"˝":{"ha":740,"x_min":51,"x_max":689,"o":"m 331 1104 l 474 1319 l 689 1319 l 489 1104 l 331 1104 m 51 1104 l 194 1319 l 408 1319 l 208 1104 l 51 1104 z "},"¯":{"ha":663,"x_min":44,"x_max":632,"o":"m 44 1104 l 44 1249 l 632 1249 l 632 1104 l 44 1104 z "},"˛":{"ha":294,"x_min":58,"x_max":251,"o":"m 153 -244 l 58 -154 l 58 -46 l 121 0 l 243 0 l 183 -50 l 183 -90 l 210 -117 l 251 -117 l 251 -244 l 153 -244 z "},"˚":{"ha":465,"x_min":65,"x_max":415,"o":"m 161 1104 l 65 1200 l 65 1310 l 161 1407 l 318 1407 l 415 1310 l 415 1200 l 318 1104 l 161 1104 m 221 1204 l 258 1204 l 290 1236 l 290 1274 l 258 1306 l 221 1306 l 189 1274 l 189 1236 l 221 1204 z "},"˜":{"ha":708,"x_min":71,"x_max":654,"o":"m 357 1104 l 276 1193 l 242 1193 l 207 1146 l 207 1111 l 71 1111 l 74 1217 l 165 1311 l 368 1311 l 449 1225 l 483 1225 l 518 1268 l 518 1304 l 654 1304 l 653 1200 l 560 1104 l 357 1104 z "},"":{"ha":833,"x_min":0,"x_max":0,"o":""},"":{"ha":833,"x_min":0,"x_max":0,"o":""},"":{"ha":833,"x_min":0,"x_max":0,"o":""}}}
